<svg width="316" height="139" viewBox="0 0 316 139" fill="none" xmlns="http://www.w3.org/2000/svg">
<g filter="url(#filter0_d_488_14)">
<path d="M4 10C4 4.47716 8.47715 0 14 0H302C307.523 0 312 4.47715 312 10V121C312 126.523 307.523 131 302 131H14C8.47716 131 4 126.523 4 121V10Z" fill="#0D0403"/>
<path d="M89.3118 55.8663C87.8268 55.7763 85.9368 56.0463 84.2718 56.0463C81.9768 56.0463 80.0868 55.5963 80.0868 53.1663V27.0213C80.0868 24.4113 82.0668 23.8263 84.4968 23.8263C86.5668 23.8263 88.9968 24.2763 90.8418 24.2313C101.912 23.9613 102.407 56.4513 89.3118 55.8663ZM87.4218 32.3763C87.2868 34.5813 86.3868 47.1813 87.9168 47.1813C94.3068 47.1813 95.2968 31.4763 87.4218 32.3763ZM120.863 50.1063C119.018 54.4263 115.688 56.5863 112.313 56.5863C108.443 56.5863 104.573 53.7963 102.728 48.3513C101.873 45.9663 101.513 43.3113 101.513 40.7013C101.513 30.6663 105.473 23.6013 112.133 23.6013C120.728 23.6013 122.393 32.4663 122.663 39.3063C122.843 42.9513 122.303 46.7313 120.863 50.1063ZM109.388 40.7013C109.388 45.1563 110.153 48.9813 112.673 48.6213C115.508 48.1263 115.553 42.7263 115.328 39.4413C115.103 35.6163 114.653 31.6563 112.313 31.6563C110.018 31.6563 109.388 34.6263 109.388 40.7013ZM139.467 55.9563C136.587 56.1813 133.617 55.7313 130.512 55.7313C129.567 55.7313 126.192 56.4063 126.192 53.6613C126.192 51.8163 126.102 47.2713 126.102 45.4263C125.967 39.1263 125.607 32.7813 125.877 26.4813C125.967 24.4563 126.192 24.0963 127.542 24.0963C128.217 24.0963 129.207 24.1863 130.647 24.1863C131.367 24.1863 132.537 23.9613 132.807 24.9063C133.572 27.7863 133.212 39.6213 133.257 42.7263C133.257 44.5713 132.987 46.8213 134.292 46.9113C135.597 46.9563 139.242 46.9113 141.222 46.9113C142.257 46.9113 142.302 50.7363 142.302 52.1763C142.302 56.0463 141.087 55.8213 139.467 55.9563ZM162.963 50.1063C161.118 54.4263 157.788 56.5863 154.413 56.5863C150.543 56.5863 146.673 53.7963 144.828 48.3513C143.973 45.9663 143.613 43.3113 143.613 40.7013C143.613 30.6663 147.573 23.6013 154.233 23.6013C162.828 23.6013 164.493 32.4663 164.763 39.3063C164.943 42.9513 164.403 46.7313 162.963 50.1063ZM151.488 40.7013C151.488 45.1563 152.253 48.9813 154.773 48.6213C157.608 48.1263 157.653 42.7263 157.428 39.4413C157.203 35.6163 156.753 31.6563 154.413 31.6563C152.118 31.6563 151.488 34.6263 151.488 40.7013ZM175.221 53.7963C175.221 55.5063 173.331 56.0913 171.531 56.0913C170.091 56.0913 168.741 55.7313 168.381 55.2813C167.796 54.4713 167.886 51.5913 167.931 50.4663C168.111 42.3213 168.066 34.1763 168.291 26.0313C168.291 23.7813 173.826 23.3763 175.356 23.3763C177.966 23.3763 180.576 24.0513 182.826 25.7163C187.596 29.2263 187.686 40.5663 183.366 45.2913C184.896 48.3063 185.031 49.0713 185.796 50.9613C186.651 53.1213 187.911 55.6413 186.156 55.8213C185.751 55.8663 184.221 56.0013 182.736 56.0013C181.026 56.0013 179.361 55.8213 179.271 55.1913C179.001 53.2113 177.651 49.5663 177.021 46.9563C176.301 47.0913 175.221 48.0363 175.221 48.0363V53.7963ZM175.401 39.8013C180.396 40.2063 181.611 31.0713 175.401 31.7913C175.356 34.4913 175.401 39.8013 175.401 39.8013ZM208.799 55.8663C207.314 55.7763 205.424 56.0463 203.759 56.0463C201.464 56.0463 199.574 55.5963 199.574 53.1663V27.0213C199.574 24.4113 201.554 23.8263 203.984 23.8263C206.054 23.8263 208.484 24.2763 210.329 24.2313C221.399 23.9613 221.894 56.4513 208.799 55.8663ZM206.909 32.3763C206.774 34.5813 205.874 47.1813 207.404 47.1813C213.794 47.1813 214.784 31.4763 206.909 32.3763ZM234.95 55.9563C231.935 55.9563 228.875 56.1363 225.86 56.0913C224.78 56.0913 223.34 56.0013 222.485 55.2363C222.26 55.0113 222.08 54.6963 221.99 54.3363C221.81 53.8863 221.765 53.3913 221.765 52.8963C221.675 52.3113 221.675 51.6813 221.675 51.0513C221.675 47.8563 221.72 44.7063 221.765 41.5563C221.9 38.0013 222.125 34.4463 222.08 30.9363C222.035 29.0913 221.99 27.2463 222.215 25.4913C222.26 25.1763 222.305 24.8613 222.44 24.6363C222.53 24.3663 222.755 24.1863 222.935 24.1413C223.34 23.9613 223.79 24.0063 224.195 24.0513C225.005 24.0963 225.86 24.1863 226.67 24.2313C227.93 24.3213 229.19 24.3663 230.45 24.3663C232.25 24.3663 234.05 24.2763 235.85 24.0513C236.435 23.9613 237.02 23.8713 237.65 23.8713C237.92 23.8713 238.28 24.0513 238.28 24.3663C238.37 24.7263 238.37 25.1763 238.415 25.5813C238.46 27.1113 238.595 28.6863 238.55 30.2613C238.505 30.5763 238.46 30.8913 238.37 31.2063C238.28 31.5213 238.1 31.7913 237.92 31.9713C237.605 32.1963 237.2 32.2863 236.84 32.3313C235.49 32.4213 234.14 32.5113 232.79 32.5113C232.115 32.4663 231.44 32.3763 230.72 32.2863C229.64 32.2863 229.64 32.8263 229.64 33.8163C229.64 34.3563 229.595 35.8863 229.865 36.2913C229.955 36.4263 230.36 36.4263 230.495 36.4713C231.62 36.4713 232.7 36.3813 233.825 36.2463C234.41 36.1563 234.995 36.0663 235.625 36.0213C236.93 36.0213 237.515 36.5163 237.605 37.8213C237.65 38.6313 237.605 39.4413 237.56 40.2513C237.56 42.5463 237.47 43.9863 234.77 44.2563C233.51 44.3013 232.25 44.2113 230.99 44.0313C230.675 43.9863 230.315 43.9413 230 44.0763C229.64 44.2563 229.55 45.2463 229.55 45.8313C229.55 46.3263 229.55 47.6763 229.82 47.9913C229.955 48.2163 230.54 48.2613 230.72 48.2613C232.52 48.2163 234.275 47.6763 236.03 47.6763C236.48 47.6763 236.885 47.6763 237.29 47.7663C237.92 47.9913 238.235 48.1713 238.37 48.8463C238.505 49.5213 238.505 50.2413 238.55 50.9613C238.55 51.9513 238.505 52.9863 238.37 53.9763C238.37 54.2463 238.325 54.5613 238.235 54.8313C238.055 55.2813 237.65 55.5963 237.335 55.7313C236.57 56.0463 235.76 55.9563 234.95 55.9563ZM99.5549 109.956C96.5399 109.956 93.4799 110.136 90.4649 110.091C89.3849 110.091 87.9449 110.001 87.0899 109.236C86.8649 109.011 86.6849 108.696 86.5949 108.336C86.4149 107.886 86.3699 107.391 86.3699 106.896C86.2799 106.311 86.2799 105.681 86.2799 105.051C86.2799 101.856 86.3249 98.7063 86.3699 95.5563C86.5049 92.0013 86.7299 88.4463 86.6849 84.9363C86.6399 83.0913 86.5949 81.2463 86.8199 79.4913C86.8649 79.1763 86.9099 78.8613 87.0449 78.6363C87.1349 78.3663 87.3599 78.1863 87.5399 78.1413C87.9449 77.9613 88.3949 78.0063 88.7999 78.0513C89.6099 78.0963 90.4649 78.1863 91.2749 78.2313C92.5349 78.3213 93.7949 78.3663 95.0549 78.3663C96.8549 78.3663 98.6549 78.2763 100.455 78.0513C101.04 77.9613 101.625 77.8713 102.255 77.8713C102.525 77.8713 102.885 78.0513 102.885 78.3663C102.975 78.7263 102.975 79.1763 103.02 79.5813C103.065 81.1113 103.2 82.6863 103.155 84.2613C103.11 84.5763 103.065 84.8913 102.975 85.2063C102.885 85.5213 102.705 85.7913 102.525 85.9713C102.21 86.1963 101.805 86.2863 101.445 86.3313C100.095 86.4213 98.7449 86.5113 97.3949 86.5113C96.7199 86.4663 96.0449 86.3763 95.3249 86.2863C94.2449 86.2863 94.2449 86.8263 94.2449 87.8163C94.2449 88.3563 94.1999 89.8863 94.4699 90.2913C94.5599 90.4263 94.9649 90.4263 95.0999 90.4713C96.2249 90.4713 97.3049 90.3813 98.4299 90.2463C99.0149 90.1563 99.5999 90.0663 100.23 90.0213C101.535 90.0213 102.12 90.5163 102.21 91.8213C102.255 92.6313 102.21 93.4413 102.165 94.2513C102.165 96.5463 102.075 97.9863 99.3749 98.2563C98.1149 98.3013 96.8549 98.2113 95.5949 98.0313C95.2799 97.9863 94.9199 97.9413 94.6049 98.0763C94.2449 98.2563 94.1549 99.2463 94.1549 99.8313C94.1549 100.326 94.1549 101.676 94.4249 101.991C94.5599 102.216 95.1449 102.261 95.3249 102.261C97.1249 102.216 98.8799 101.676 100.635 101.676C101.085 101.676 101.49 101.676 101.895 101.766C102.525 101.991 102.84 102.171 102.975 102.846C103.11 103.521 103.11 104.241 103.155 104.961C103.155 105.951 103.11 106.986 102.975 107.976C102.975 108.246 102.93 108.561 102.84 108.831C102.66 109.281 102.255 109.596 101.94 109.731C101.175 110.046 100.365 109.956 99.5549 109.956ZM125.258 101.226C125.213 108.516 119.453 110.271 115.268 110.271C110.903 110.271 105.503 109.191 105.998 101.856C106.133 99.9213 108.023 99.2913 109.733 99.2913C111.218 99.2913 112.568 99.7863 112.568 100.371C112.748 102.936 113.873 103.206 115.268 103.206C117.833 103.206 119.003 99.4263 115.718 98.3913C112.973 97.5813 109.778 97.0863 107.843 94.2063C103.703 87.9513 108.743 78.0963 114.773 78.0963C118.823 78.0963 123.863 78.8163 123.863 86.9163C123.863 87.9063 122.378 88.3563 120.803 88.3563C119.093 88.3563 117.248 87.8163 117.293 86.8263C117.338 85.0263 116.438 84.1713 115.448 84.1713C114.413 84.1713 113.288 85.1613 113.288 86.8263C113.288 92.0463 125.303 90.0213 125.258 101.226ZM133.246 110.316C132.256 110.316 129.376 110.271 128.656 109.281C128.026 108.516 128.116 105.681 128.161 104.556C128.341 95.8263 128.296 88.7163 128.521 79.9863C128.521 78.4563 131.446 77.6013 134.821 77.6013C137.701 77.6013 140.986 78.2313 143.011 79.6713C147.961 83.1813 148.321 93.8013 144.406 98.7063C141.886 101.811 135.586 101.136 135.586 101.136C135.586 101.136 135.811 106.536 135.361 108.651C135.136 109.731 134.101 110.271 133.246 110.316ZM135.631 94.1163H137.341C140.716 94.1163 142.921 84.8913 135.631 85.7913C135.586 87.9063 135.631 94.1163 135.631 94.1163ZM152.825 110.091C152.51 110.271 151.835 110.361 151.115 110.361C149.675 110.361 147.83 110.091 147.2 110.046C144.185 109.776 145.49 108.246 147.47 100.866C149.45 93.5763 150.935 87.6813 152.825 80.3463C153.545 77.6913 154.76 77.9613 157.73 77.9613C161.06 77.9613 161.6 77.9163 162.185 80.4813C164.615 91.1013 166.325 98.7963 168.71 107.841C168.98 108.831 168.845 109.641 168.125 109.821C167.45 109.956 165.695 110.181 164.21 110.181C163.31 110.181 162.5 110.091 162.095 109.866C161.105 109.281 161.105 104.061 159.8 104.061C158.045 104.016 156.875 103.926 155.12 104.061C153.545 104.196 154.31 109.236 152.825 110.091ZM155.66 96.5913C156.245 96.6813 156.92 96.7263 157.595 96.7263C158.225 96.7263 158.81 96.6813 159.305 96.5913C158.945 94.5213 157.64 89.3013 157.415 87.7713C156.875 90.7413 156.245 93.6663 155.66 96.5913ZM184.906 109.956C182.026 110.181 179.056 109.731 175.951 109.731C175.006 109.731 171.631 110.406 171.631 107.661C171.631 105.816 171.541 101.271 171.541 99.4263C171.406 93.1263 171.046 86.7813 171.316 80.4813C171.406 78.4563 171.631 78.0963 172.981 78.0963C173.656 78.0963 174.646 78.1863 176.086 78.1863C176.806 78.1863 177.976 77.9613 178.246 78.9063C179.011 81.7863 178.651 93.6213 178.696 96.7263C178.696 98.5713 178.426 100.821 179.731 100.911C181.036 100.956 184.681 100.911 186.661 100.911C187.696 100.911 187.741 104.736 187.741 106.176C187.741 110.046 186.526 109.821 184.906 109.956ZM199.658 109.866C198.173 109.776 196.283 110.046 194.618 110.046C192.323 110.046 190.433 109.596 190.433 107.166V81.0213C190.433 78.4113 192.413 77.8263 194.843 77.8263C196.913 77.8263 199.343 78.2763 201.188 78.2313C212.258 77.9613 212.753 110.451 199.658 109.866ZM197.768 86.3763C197.633 88.5813 196.733 101.181 198.263 101.181C204.653 101.181 205.643 85.4763 197.768 86.3763ZM217.249 110.091C216.934 110.271 216.259 110.361 215.539 110.361C214.099 110.361 212.254 110.091 211.624 110.046C208.609 109.776 209.914 108.246 211.894 100.866C213.874 93.5763 215.359 87.6813 217.249 80.3463C217.969 77.6913 219.184 77.9613 222.154 77.9613C225.484 77.9613 226.024 77.9163 226.609 80.4813C229.039 91.1013 230.749 98.7963 233.134 107.841C233.404 108.831 233.269 109.641 232.549 109.821C231.874 109.956 230.119 110.181 228.634 110.181C227.734 110.181 226.924 110.091 226.519 109.866C225.529 109.281 225.529 104.061 224.224 104.061C222.469 104.016 221.299 103.926 219.544 104.061C217.969 104.196 218.734 109.236 217.249 110.091ZM220.084 96.5913C220.669 96.6813 221.344 96.7263 222.019 96.7263C222.649 96.7263 223.234 96.6813 223.729 96.5913C223.369 94.5213 222.064 89.3013 221.839 87.7713C221.299 90.7413 220.669 93.6663 220.084 96.5913Z" fill="#FEF8E8"/>
</g>
<defs>
<filter id="filter0_d_488_14" x="0" y="0" width="316" height="139" filterUnits="userSpaceOnUse" color-interpolation-filters="sRGB">
<feFlood flood-opacity="0" result="BackgroundImageFix"/>
<feColorMatrix in="SourceAlpha" type="matrix" values="0 0 0 0 0 0 0 0 0 0 0 0 0 0 0 0 0 0 127 0" result="hardAlpha"/>
<feOffset dy="4"/>
<feGaussianBlur stdDeviation="2"/>
<feComposite in2="hardAlpha" operator="out"/>
<feColorMatrix type="matrix" values="0 0 0 0 0 0 0 0 0 0 0 0 0 0 0 0 0 0 0.25 0"/>
<feBlend mode="normal" in2="BackgroundImageFix" result="effect1_dropShadow_488_14"/>
<feBlend mode="normal" in="SourceGraphic" in2="effect1_dropShadow_488_14" result="shape"/>
</filter>
</defs>
</svg>
