<svg width="562" height="96" viewBox="0 0 562 96" fill="none" xmlns="http://www.w3.org/2000/svg">
<path d="M38.35 93.4701C29.64 93.4701 20.8 93.9901 12.09 93.8601C7.67 93.8601 2.6 93.4701 0.779999 88.7901C0.389999 87.4901 0.259999 86.0601 0.259999 84.6301C-7.6741e-07 82.9401 -7.6741e-07 81.1201 -7.6741e-07 79.3001C-7.6741e-07 70.0701 0.129999 60.9701 0.259999 51.8701C0.519999 41.6001 1.3 31.3301 1.17 21.1901C1.04 15.8601 0.779999 10.5301 1.43 5.46007C1.69 4.55007 1.82 3.64008 2.21 2.99008C2.47 2.21007 3.12 1.69008 3.64 1.56007C4.81 1.04008 6.11 1.17008 7.28 1.30007C9.62 1.43007 12.09 1.69008 14.43 1.82008C18.07 2.08007 21.71 2.21007 25.35 2.21007C30.55 2.21007 35.75 1.95007 40.95 1.30007C42.64 1.04008 44.33 0.780073 46.02 0.780073C46.28 0.780073 47.19 0.910071 47.45 1.17008C47.58 1.30007 47.84 1.95007 47.97 2.21007C48.23 3.25007 48.23 4.55007 48.36 5.72007C48.49 10.1401 48.88 14.6901 48.75 19.2401C48.62 20.1501 48.49 21.0601 48.23 21.9701C47.97 22.8801 47.45 23.6601 46.93 24.1801C46.02 24.8301 44.85 25.0901 43.81 25.2201C39.91 25.4801 36.01 25.7401 32.11 25.7401C30.16 25.6101 28.08 25.3501 26.13 25.0901C23.01 25.0901 23.01 26.6501 23.01 29.5101C23.01 31.0701 22.88 35.4901 23.53 36.6601C23.92 37.0501 25.09 37.0501 25.48 37.1801C28.73 37.1801 31.85 36.9201 35.1 36.5301C36.79 36.2701 38.48 36.0101 40.3 35.8801C44.07 35.8801 45.76 37.3101 46.02 41.0801C46.15 43.4201 46.02 45.7601 45.89 48.1001C45.89 51.8701 45.89 57.3301 41.73 58.8901C40.56 59.4101 39.13 59.5401 37.83 59.6701C34.19 59.8001 30.55 59.5401 26.91 59.0201C26 58.8901 24.96 58.7601 24.05 59.1501C23.01 59.6701 22.75 62.5301 22.75 64.2201C22.75 65.6501 22.75 69.5501 23.53 70.4601C23.92 71.1101 25.61 71.2401 26.13 71.2401C31.2 71.1101 36.27 69.5501 41.47 69.5501C42.64 69.5501 43.94 69.5501 45.11 69.8101C46.93 70.4601 47.84 70.9801 48.23 72.9301C48.62 74.8801 48.62 76.9601 48.75 79.0401C48.75 81.9001 48.75 87.4901 47.84 90.2201C47.19 91.5201 46.15 92.4301 45.11 92.8201C43.03 93.7301 40.56 93.4701 38.35 93.4701ZM113.107 68.2501C112.977 89.3101 96.3371 94.3801 84.2471 94.3801C71.6371 94.3801 56.0371 91.2601 57.4671 70.0701C57.8571 64.4801 63.3171 62.6601 68.2571 62.6601C72.5471 62.6601 76.4471 64.0901 76.4471 65.7801C76.9671 73.1901 80.2171 73.9701 84.3771 73.9701C91.6571 73.9701 95.0371 63.0501 85.5471 60.0601C77.6171 57.7201 68.3871 56.2901 62.7971 47.9701C50.8371 29.9001 65.3971 1.43007 82.8171 1.43007C94.5171 1.43007 109.077 3.51008 109.077 26.9101C109.077 29.7701 104.787 31.0701 100.237 31.0701C95.2971 31.0701 89.9671 29.5101 90.0971 26.6501C90.2271 21.4501 87.6271 18.9801 84.7671 18.9801C81.7771 18.9801 78.5271 21.8401 78.5271 26.6501C78.5271 41.7301 113.237 35.8801 113.107 68.2501ZM177.896 58.2401C177.896 81.3801 168.276 93.0801 151.116 93.0801C138.766 93.0801 126.156 86.0601 122.126 66.8201C115.496 34.5801 126.156 0.39007 149.686 0.39007C168.926 0.39007 178.546 13.5201 178.546 34.1901C178.546 37.9601 174.386 39.5201 170.096 39.5201C165.676 39.5201 160.996 37.7001 160.996 34.8401C160.996 27.1701 156.836 23.7901 152.026 23.7901C136.686 23.7901 134.216 71.8901 152.156 70.5901C157.486 70.2001 160.996 66.1701 160.346 56.9401C160.216 53.4301 164.506 51.4801 168.796 51.4801C173.346 51.4801 177.896 53.5601 177.896 58.2401ZM242.091 76.5701C236.761 89.0501 227.141 95.2901 217.391 95.2901C206.211 95.2901 195.031 87.2301 189.701 71.5001C187.231 64.6101 186.191 56.9401 186.191 49.4001C186.191 20.4101 197.631 7.54595e-05 216.871 7.54595e-05C241.831 7.54595e-05 246.511 25.6101 247.291 45.3701C247.811 55.9001 246.251 66.8201 242.091 76.5701ZM208.941 49.4001C208.941 62.2701 211.151 73.3201 218.431 72.2801C226.751 70.8501 226.751 55.2501 226.101 45.7601C225.451 34.7101 224.151 23.2701 217.391 23.2701C210.761 23.2701 208.941 31.8501 208.941 49.4001ZM296.603 93.4701C288.153 94.1201 279.573 92.8201 270.733 92.8201C267.873 92.8201 258.253 94.7701 258.253 86.8401C258.253 81.5101 257.993 68.3801 257.863 63.0501C257.473 44.8501 256.563 26.5201 257.213 8.32008C257.473 2.47007 258.253 1.43007 262.153 1.43007C264.103 1.43007 266.963 1.69008 271.123 1.69008C273.203 1.69008 276.583 1.04008 277.233 3.77007C279.443 12.0901 278.403 46.2801 278.533 55.2501C278.663 60.5801 277.753 67.0801 281.523 67.3401C285.423 67.4701 295.953 67.3401 301.673 67.3401C304.663 67.3401 304.793 78.3901 304.793 82.5501C304.793 93.7301 301.153 93.0801 296.603 93.4701ZM331.681 72.6701C331.681 78.9101 332.721 93.2101 328.821 93.2101H315.951C311.271 93.2101 312.571 84.8901 312.571 70.9801V22.6201C312.571 6.24007 312.311 1.69008 317.511 1.69008C318.941 1.69008 322.581 1.17008 325.571 1.17008C327.911 1.17008 329.991 1.43007 330.771 2.47007C333.501 5.98008 331.941 18.8501 331.941 24.0501C331.551 40.1701 331.421 56.4201 331.681 72.6701ZM397.609 76.5701C392.279 89.0501 382.659 95.2901 372.909 95.2901C361.729 95.2901 350.549 87.2301 345.219 71.5001C342.749 64.6101 341.709 56.9401 341.709 49.4001C341.709 20.4101 353.149 7.54595e-05 372.389 7.54595e-05C397.349 7.54595e-05 402.029 25.6101 402.809 45.3701C403.329 55.9001 401.769 66.8201 397.609 76.5701ZM364.459 49.4001C364.459 62.2701 366.669 73.3201 373.949 72.2801C382.269 70.8501 382.269 55.2501 381.619 45.7601C380.969 34.7101 379.669 23.2701 372.909 23.2701C366.279 23.2701 364.459 31.8501 364.459 49.4001ZM466.291 68.2501C466.161 89.3101 449.521 94.3801 437.431 94.3801C424.821 94.3801 409.221 91.2601 410.651 70.0701C411.041 64.4801 416.501 62.6601 421.441 62.6601C425.731 62.6601 429.631 64.0901 429.631 65.7801C430.151 73.1901 433.401 73.9701 437.561 73.9701C444.841 73.9701 448.221 63.0501 438.731 60.0601C430.801 57.7201 421.571 56.2901 415.981 47.9701C404.021 29.9001 418.581 1.43007 436.001 1.43007C447.701 1.43007 462.261 3.51008 462.261 26.9101C462.261 29.7701 457.971 31.0701 453.421 31.0701C448.481 31.0701 443.151 29.5101 443.281 26.6501C443.411 21.4501 440.811 18.9801 437.951 18.9801C434.961 18.9801 431.711 21.8401 431.711 26.6501C431.711 41.7301 466.421 35.8801 466.291 68.2501ZM495.069 72.6701C495.069 78.9101 496.109 93.2101 492.209 93.2101H479.339C474.659 93.2101 475.959 84.8901 475.959 70.9801V22.6201C475.959 6.24007 475.699 1.69008 480.899 1.69008C482.329 1.69008 485.969 1.17008 488.959 1.17008C491.299 1.17008 493.379 1.43007 494.159 2.47007C496.889 5.98008 495.329 18.8501 495.329 24.0501C494.939 40.1701 494.809 56.4201 495.069 72.6701ZM560.998 68.2501C560.868 89.3101 544.228 94.3801 532.138 94.3801C519.528 94.3801 503.928 91.2601 505.358 70.0701C505.748 64.4801 511.208 62.6601 516.148 62.6601C520.438 62.6601 524.338 64.0901 524.338 65.7801C524.858 73.1901 528.108 73.9701 532.268 73.9701C539.548 73.9701 542.928 63.0501 533.438 60.0601C525.508 57.7201 516.278 56.2901 510.688 47.9701C498.728 29.9001 513.288 1.43007 530.708 1.43007C542.408 1.43007 556.968 3.51008 556.968 26.9101C556.968 29.7701 552.678 31.0701 548.128 31.0701C543.188 31.0701 537.858 29.5101 537.988 26.6501C538.118 21.4501 535.518 18.9801 532.658 18.9801C529.668 18.9801 526.418 21.8401 526.418 26.6501C526.418 41.7301 561.128 35.8801 560.998 68.2501Z" fill="black"/>
</svg>
