<svg width="316" height="139" viewBox="0 0 316 139" fill="none" xmlns="http://www.w3.org/2000/svg">
<g filter="url(#filter0_d_439_291)">
<path d="M4 10C4 4.47716 8.47715 0 14 0H302C307.523 0 312 4.47715 312 10V121C312 126.523 307.523 131 302 131H14C8.47716 131 4 126.523 4 121V10Z" fill="#0D0403"/>
<path d="M94.9971 56.0013C91.8471 56.2263 91.2171 56.3163 91.1271 52.5813C91.0821 49.7913 91.2171 47.0013 91.0821 44.2563C91.0371 43.5363 90.6771 43.4013 90.1821 43.4013C89.7771 43.4013 89.3271 43.4913 88.9221 43.4913C87.5271 43.5363 86.0421 43.4463 84.6021 43.7613C83.4321 43.9863 84.1971 51.5913 84.1971 54.3813C84.1971 56.3613 82.0371 55.9113 81.5421 55.9113C79.4271 55.9113 76.6821 56.6763 76.6371 53.6613C76.5021 45.1563 76.9071 37.5063 76.7271 29.0463C76.7271 28.0113 76.5471 25.2213 77.0871 24.5013C77.2671 24.2763 77.6271 24.1863 78.0771 24.1863C78.7071 24.1863 79.4721 24.3663 79.8321 24.3663C80.2821 24.3663 81.2271 24.1863 82.0821 24.1863C82.6671 24.1863 83.2071 24.2763 83.4321 24.5913C84.6021 26.0313 84.0621 32.4213 84.2871 34.5363C84.3771 35.4813 84.7371 35.7063 85.4571 35.7063C86.0421 35.7063 86.8521 35.5713 87.9321 35.5713C89.4171 35.5713 90.7671 35.7963 90.9021 34.5813C90.9921 33.2763 90.6321 26.4813 91.0371 25.2663C91.5321 23.7813 93.7371 24.1413 94.8621 24.1863C95.5821 24.2313 97.4721 24.0063 97.9671 24.6813C98.4621 25.3563 98.1471 27.9213 98.1021 28.8663C98.0121 34.8963 98.1471 40.4763 98.1471 46.5513V53.8413C98.1471 56.1363 95.7171 55.9113 94.9971 56.0013ZM120.665 50.1063C118.82 54.4263 115.49 56.5863 112.115 56.5863C108.245 56.5863 104.375 53.7963 102.53 48.3513C101.675 45.9663 101.315 43.3113 101.315 40.7013C101.315 30.6663 105.275 23.6013 111.935 23.6013C120.53 23.6013 122.195 32.4663 122.465 39.3063C122.645 42.9513 122.105 46.7313 120.665 50.1063ZM109.19 40.7013C109.19 45.1563 109.955 48.9813 112.475 48.6213C115.31 48.1263 115.355 42.7263 115.13 39.4413C114.905 35.6163 114.455 31.6563 112.115 31.6563C109.82 31.6563 109.19 34.6263 109.19 40.7013ZM151.959 53.7513C152.049 55.1013 149.979 55.9113 148.224 55.9113C146.919 55.9113 145.794 55.4613 145.839 54.4713C145.929 49.3413 145.659 44.1663 145.569 38.9913C144.039 44.6163 142.914 48.8463 141.519 54.3813C141.294 55.2363 140.034 55.7763 138.819 55.7763C137.694 55.7763 136.614 55.3713 136.389 54.3813C136.029 52.9413 135.129 49.4313 134.769 47.9463C133.959 44.5263 133.194 41.6913 132.159 38.3613C132.114 42.3663 132.159 45.3813 132.159 49.8363C132.159 52.7163 132.564 55.8663 130.584 55.6863C129.819 55.6413 127.209 55.9563 126.579 55.3713C125.589 54.4263 125.859 50.4213 125.859 48.7563C125.814 42.5013 125.859 37.9563 125.634 31.7013C125.544 29.3613 125.499 24.1863 127.164 24.2313C128.244 24.2313 129.954 23.8263 131.439 23.8263C132.744 23.8263 133.869 24.1413 134.184 25.2663C136.074 31.5213 137.559 36.3813 139.134 41.2413C139.989 37.4613 141.339 33.9513 142.329 30.2163C142.689 28.8213 143.229 24.5913 144.174 23.9163C144.804 23.4213 147.639 23.5563 148.359 23.5563C149.214 23.5563 151.374 23.4213 151.959 24.2763C152.274 24.8163 152.139 26.6613 152.094 27.3813C151.824 32.5563 151.824 37.8213 151.959 43.0413C152.139 48.5763 151.824 50.8713 151.959 53.7513ZM165.227 55.8663C163.787 55.8663 161.942 56.1363 160.322 56.1363C157.982 56.1363 156.002 55.5963 156.002 53.1663V27.0213C156.002 24.3663 158.477 23.8263 161.402 23.8263C163.787 23.8263 166.487 24.1863 168.287 24.0963C174.902 23.7813 175.802 36.5613 170.942 39.8913C175.172 39.8913 176.837 50.1063 173.012 54.1563C170.897 56.4063 167.837 55.8663 165.227 55.8663ZM163.382 48.2163C163.697 48.6663 164.192 48.8463 164.687 48.8463C165.767 48.8463 167.027 47.9463 167.477 46.7313C168.377 44.1213 165.317 43.3563 163.337 43.5813C163.202 44.7063 162.797 47.4513 163.382 48.2163ZM163.337 31.2063C163.202 33.4113 162.707 36.2013 164.237 36.2913C165.317 36.3363 167.162 35.6613 167.522 34.1763C168.017 32.0163 166.127 31.0713 164.372 31.0713C164.012 31.0713 163.652 31.1163 163.337 31.2063ZM185.527 53.7963C185.527 55.5063 183.637 56.0913 181.837 56.0913C180.397 56.0913 179.047 55.7313 178.687 55.2813C178.102 54.4713 178.192 51.5913 178.237 50.4663C178.417 42.3213 178.372 34.1763 178.597 26.0313C178.597 23.7813 184.132 23.3763 185.662 23.3763C188.272 23.3763 190.882 24.0513 193.132 25.7163C197.902 29.2263 197.992 40.5663 193.672 45.2913C195.202 48.3063 195.337 49.0713 196.102 50.9613C196.957 53.1213 198.217 55.6413 196.462 55.8213C196.057 55.8663 194.527 56.0013 193.042 56.0013C191.332 56.0013 189.667 55.8213 189.577 55.1913C189.307 53.2113 187.957 49.5663 187.327 46.9563C186.607 47.0913 185.527 48.0363 185.527 48.0363V53.7963ZM185.707 39.8013C190.702 40.2063 191.917 31.0713 185.707 31.7913C185.662 34.4913 185.707 39.8013 185.707 39.8013ZM218.971 50.1063C217.126 54.4263 213.796 56.5863 210.421 56.5863C206.551 56.5863 202.681 53.7963 200.836 48.3513C199.981 45.9663 199.621 43.3113 199.621 40.7013C199.621 30.6663 203.581 23.6013 210.241 23.6013C218.836 23.6013 220.501 32.4663 220.771 39.3063C220.951 42.9513 220.411 46.7313 218.971 50.1063ZM207.496 40.7013C207.496 45.1563 208.261 48.9813 210.781 48.6213C213.616 48.1263 213.661 42.7263 213.436 39.4413C213.211 35.6163 212.761 31.6563 210.421 31.6563C208.126 31.6563 207.496 34.6263 207.496 40.7013ZM242.57 47.2263C242.525 54.5163 236.765 56.2713 232.58 56.2713C228.215 56.2713 222.815 55.1913 223.31 47.8563C223.445 45.9213 225.335 45.2913 227.045 45.2913C228.53 45.2913 229.88 45.7863 229.88 46.3713C230.06 48.9363 231.185 49.2063 232.58 49.2063C235.145 49.2063 236.315 45.4263 233.03 44.3913C230.285 43.5813 227.09 43.0863 225.155 40.2063C221.015 33.9513 226.055 24.0963 232.085 24.0963C236.135 24.0963 241.175 24.8163 241.175 32.9163C241.175 33.9063 239.69 34.3563 238.115 34.3563C236.405 34.3563 234.56 33.8163 234.605 32.8263C234.65 31.0263 233.75 30.1713 232.76 30.1713C231.725 30.1713 230.6 31.1613 230.6 32.8263C230.6 38.0463 242.615 36.0213 242.57 47.2263ZM42.9715 109.866C41.4865 109.776 39.5965 110.046 37.9315 110.046C35.6365 110.046 33.7465 109.596 33.7465 107.166V81.0213C33.7465 78.4113 35.7265 77.8263 38.1565 77.8263C40.2265 77.8263 42.6565 78.2763 44.5015 78.2313C55.5715 77.9613 56.0665 110.451 42.9715 109.866ZM41.0815 86.3763C40.9465 88.5813 40.0465 101.181 41.5765 101.181C47.9665 101.181 48.9565 85.4763 41.0815 86.3763ZM69.1228 109.956C66.1078 109.956 63.0478 110.136 60.0328 110.091C58.9528 110.091 57.5128 110.001 56.6578 109.236C56.4328 109.011 56.2528 108.696 56.1628 108.336C55.9828 107.886 55.9378 107.391 55.9378 106.896C55.8478 106.311 55.8478 105.681 55.8478 105.051C55.8478 101.856 55.8928 98.7063 55.9378 95.5563C56.0728 92.0013 56.2978 88.4463 56.2528 84.9363C56.2078 83.0913 56.1628 81.2463 56.3878 79.4913C56.4328 79.1763 56.4778 78.8613 56.6128 78.6363C56.7028 78.3663 56.9278 78.1863 57.1078 78.1413C57.5128 77.9613 57.9628 78.0063 58.3678 78.0513C59.1778 78.0963 60.0328 78.1863 60.8428 78.2313C62.1028 78.3213 63.3628 78.3663 64.6228 78.3663C66.4228 78.3663 68.2228 78.2763 70.0228 78.0513C70.6078 77.9613 71.1928 77.8713 71.8228 77.8713C72.0928 77.8713 72.4528 78.0513 72.4528 78.3663C72.5428 78.7263 72.5428 79.1763 72.5878 79.5813C72.6328 81.1113 72.7678 82.6863 72.7228 84.2613C72.6778 84.5763 72.6328 84.8913 72.5428 85.2063C72.4528 85.5213 72.2728 85.7913 72.0928 85.9713C71.7778 86.1963 71.3728 86.2863 71.0128 86.3313C69.6628 86.4213 68.3128 86.5113 66.9628 86.5113C66.2878 86.4663 65.6128 86.3763 64.8928 86.2863C63.8128 86.2863 63.8128 86.8263 63.8128 87.8163C63.8128 88.3563 63.7678 89.8863 64.0378 90.2913C64.1278 90.4263 64.5328 90.4263 64.6678 90.4713C65.7928 90.4713 66.8728 90.3813 67.9978 90.2463C68.5828 90.1563 69.1678 90.0663 69.7978 90.0213C71.1028 90.0213 71.6878 90.5163 71.7778 91.8213C71.8228 92.6313 71.7778 93.4413 71.7328 94.2513C71.7328 96.5463 71.6428 97.9863 68.9428 98.2563C67.6828 98.3013 66.4228 98.2113 65.1628 98.0313C64.8478 97.9863 64.4878 97.9413 64.1728 98.0763C63.8128 98.2563 63.7228 99.2463 63.7228 99.8313C63.7228 100.326 63.7228 101.676 63.9928 101.991C64.1278 102.216 64.7128 102.261 64.8928 102.261C66.6928 102.216 68.4478 101.676 70.2028 101.676C70.6528 101.676 71.0578 101.676 71.4628 101.766C72.0928 101.991 72.4078 102.171 72.5428 102.846C72.6778 103.521 72.6778 104.241 72.7228 104.961C72.7228 105.951 72.6778 106.986 72.5428 107.976C72.5428 108.246 72.4978 108.561 72.4078 108.831C72.2278 109.281 71.8228 109.596 71.5078 109.731C70.7428 110.046 69.9328 109.956 69.1228 109.956ZM94.8255 101.226C94.7805 108.516 89.0205 110.271 84.8355 110.271C80.4705 110.271 75.0705 109.191 75.5655 101.856C75.7005 99.9213 77.5905 99.2913 79.3005 99.2913C80.7855 99.2913 82.1355 99.7863 82.1355 100.371C82.3155 102.936 83.4405 103.206 84.8355 103.206C87.4005 103.206 88.5705 99.4263 85.2855 98.3913C82.5405 97.5813 79.3455 97.0863 77.4105 94.2063C73.2705 87.9513 78.3105 78.0963 84.3405 78.0963C88.3905 78.0963 93.4305 78.8163 93.4305 86.9163C93.4305 87.9063 91.9455 88.3563 90.3705 88.3563C88.6605 88.3563 86.8155 87.8163 86.8605 86.8263C86.9055 85.0263 86.0055 84.1713 85.0155 84.1713C83.9805 84.1713 82.8555 85.1613 82.8555 86.8263C82.8555 92.0463 94.8705 90.0213 94.8255 101.226ZM103.804 110.091C103.489 110.271 102.814 110.361 102.094 110.361C100.654 110.361 98.8087 110.091 98.1787 110.046C95.1637 109.776 96.4687 108.246 98.4487 100.866C100.429 93.5763 101.914 87.6813 103.804 80.3463C104.524 77.6913 105.739 77.9613 108.709 77.9613C112.039 77.9613 112.579 77.9163 113.164 80.4813C115.594 91.1013 117.304 98.7963 119.689 107.841C119.959 108.831 119.824 109.641 119.104 109.821C118.429 109.956 116.674 110.181 115.189 110.181C114.289 110.181 113.479 110.091 113.074 109.866C112.084 109.281 112.084 104.061 110.779 104.061C109.024 104.016 107.854 103.926 106.099 104.061C104.524 104.196 105.289 109.236 103.804 110.091ZM106.639 96.5913C107.224 96.6813 107.899 96.7263 108.574 96.7263C109.204 96.7263 109.789 96.6813 110.284 96.5913C109.924 94.5213 108.619 89.3013 108.394 87.7713C107.854 90.7413 107.224 93.6663 106.639 96.5913ZM135.885 109.956C133.005 110.181 130.035 109.731 126.93 109.731C125.985 109.731 122.61 110.406 122.61 107.661C122.61 105.816 122.52 101.271 122.52 99.4263C122.385 93.1263 122.025 86.7813 122.295 80.4813C122.385 78.4563 122.61 78.0963 123.96 78.0963C124.635 78.0963 125.625 78.1863 127.065 78.1863C127.785 78.1863 128.955 77.9613 129.225 78.9063C129.99 81.7863 129.63 93.6213 129.675 96.7263C129.675 98.5713 129.405 100.821 130.71 100.911C132.015 100.956 135.66 100.911 137.64 100.911C138.675 100.911 138.72 104.736 138.72 106.176C138.72 110.046 137.505 109.821 135.885 109.956ZM148.027 102.756C148.072 104.916 148.432 109.866 147.037 109.866H142.582C140.962 109.866 141.457 106.986 141.457 102.171V85.4313C141.457 79.7613 141.367 78.1863 143.167 78.1863C143.662 78.1863 144.877 78.0063 145.912 78.0063C146.722 78.0063 147.442 78.0963 147.712 78.4563C148.657 79.6713 148.162 84.1263 148.117 85.9263C147.982 91.5063 147.982 97.1313 148.027 102.756ZM158.796 106.671C158.796 108.381 158.796 110.181 156.591 110.181C155.421 110.181 154.206 109.911 153.081 109.641C152.361 109.461 152.226 109.146 152.136 108.426C152.046 107.571 152.046 106.716 152.046 105.861C152.136 103.296 152.271 100.731 152.271 98.1663C152.316 95.8263 152.316 93.4863 152.271 91.1913C152.226 88.6263 152.046 86.1063 152.001 83.5413C152.001 82.4613 151.911 79.4463 152.451 78.6813C152.586 78.4563 152.766 78.3213 152.991 78.2763C153.216 78.2313 153.441 78.2763 153.711 78.3213C154.701 78.3663 155.691 78.2763 156.681 78.0513C156.996 78.0063 157.401 77.8713 157.716 78.0063C157.806 78.0513 157.941 78.3213 157.986 78.3663C158.661 79.4463 159.201 80.7513 159.831 81.9663C160.866 84.1263 162.261 86.0163 163.341 88.1313C164.151 89.5713 164.781 91.1013 165.501 92.5863C165.501 91.5513 165.411 90.5163 165.411 89.4363C165.366 87.9963 165.366 86.6013 165.321 85.1613C165.276 83.6763 165.186 82.1913 165.276 80.7063C165.321 79.8963 165.501 78.9513 166.176 78.4113C166.536 78.2313 166.941 78.1863 167.301 78.1863C168.336 78.1863 169.371 78.2313 170.406 78.2313C170.811 78.2313 171.261 78.2313 171.621 78.3663C171.801 78.4563 171.981 78.6363 172.116 78.8613C172.251 79.1763 172.296 79.6263 172.296 80.0313C172.296 81.0213 172.251 82.0113 172.251 82.9563C172.206 84.1263 172.251 85.2513 172.251 86.3763C172.251 89.7063 172.206 93.0363 172.296 96.3663C172.296 98.4813 172.386 100.551 172.341 102.621C172.296 104.331 172.161 105.996 171.981 107.661C171.981 108.156 171.891 108.696 171.801 109.146C171.711 109.416 171.576 109.731 171.351 109.866C171.216 110.001 170.991 110.001 170.766 110.001C169.866 110.046 168.921 110.046 168.021 109.956C167.616 109.911 167.166 109.866 166.806 109.596C166.446 109.371 166.221 108.876 166.041 108.471C165.771 107.931 165.591 107.436 165.366 106.896C164.016 103.791 162.261 101.136 160.731 98.2113C160.056 96.8613 159.471 95.3763 158.706 94.1163C158.661 96.1413 158.796 98.1663 158.796 100.191V103.116C158.796 104.286 158.841 105.456 158.796 106.671ZM189.401 109.956C186.386 109.956 183.326 110.136 180.311 110.091C179.231 110.091 177.791 110.001 176.936 109.236C176.711 109.011 176.531 108.696 176.441 108.336C176.261 107.886 176.216 107.391 176.216 106.896C176.126 106.311 176.126 105.681 176.126 105.051C176.126 101.856 176.171 98.7063 176.216 95.5563C176.351 92.0013 176.576 88.4463 176.531 84.9363C176.486 83.0913 176.441 81.2463 176.666 79.4913C176.711 79.1763 176.756 78.8613 176.891 78.6363C176.981 78.3663 177.206 78.1863 177.386 78.1413C177.791 77.9613 178.241 78.0063 178.646 78.0513C179.456 78.0963 180.311 78.1863 181.121 78.2313C182.381 78.3213 183.641 78.3663 184.901 78.3663C186.701 78.3663 188.501 78.2763 190.301 78.0513C190.886 77.9613 191.471 77.8713 192.101 77.8713C192.371 77.8713 192.731 78.0513 192.731 78.3663C192.821 78.7263 192.821 79.1763 192.866 79.5813C192.911 81.1113 193.046 82.6863 193.001 84.2613C192.956 84.5763 192.911 84.8913 192.821 85.2063C192.731 85.5213 192.551 85.7913 192.371 85.9713C192.056 86.1963 191.651 86.2863 191.291 86.3313C189.941 86.4213 188.591 86.5113 187.241 86.5113C186.566 86.4663 185.891 86.3763 185.171 86.2863C184.091 86.2863 184.091 86.8263 184.091 87.8163C184.091 88.3563 184.046 89.8863 184.316 90.2913C184.406 90.4263 184.811 90.4263 184.946 90.4713C186.071 90.4713 187.151 90.3813 188.276 90.2463C188.861 90.1563 189.446 90.0663 190.076 90.0213C191.381 90.0213 191.966 90.5163 192.056 91.8213C192.101 92.6313 192.056 93.4413 192.011 94.2513C192.011 96.5463 191.921 97.9863 189.221 98.2563C187.961 98.3013 186.701 98.2113 185.441 98.0313C185.126 97.9863 184.766 97.9413 184.451 98.0763C184.091 98.2563 184.001 99.2463 184.001 99.8313C184.001 100.326 184.001 101.676 184.271 101.991C184.406 102.216 184.991 102.261 185.171 102.261C186.971 102.216 188.726 101.676 190.481 101.676C190.931 101.676 191.336 101.676 191.741 101.766C192.371 101.991 192.686 102.171 192.821 102.846C192.956 103.521 192.956 104.241 193.001 104.961C193.001 105.951 192.956 106.986 192.821 107.976C192.821 108.246 192.776 108.561 192.686 108.831C192.506 109.281 192.101 109.596 191.786 109.731C191.021 110.046 190.211 109.956 189.401 109.956ZM202.549 110.091C202.234 110.271 201.559 110.361 200.839 110.361C199.399 110.361 197.554 110.091 196.924 110.046C193.909 109.776 195.214 108.246 197.194 100.866C199.174 93.5763 200.659 87.6813 202.549 80.3463C203.269 77.6913 204.484 77.9613 207.454 77.9613C210.784 77.9613 211.324 77.9163 211.909 80.4813C214.339 91.1013 216.049 98.7963 218.434 107.841C218.704 108.831 218.569 109.641 217.849 109.821C217.174 109.956 215.419 110.181 213.934 110.181C213.034 110.181 212.224 110.091 211.819 109.866C210.829 109.281 210.829 104.061 209.524 104.061C207.769 104.016 206.599 103.926 204.844 104.061C203.269 104.196 204.034 109.236 202.549 110.091ZM205.384 96.5913C205.969 96.6813 206.644 96.7263 207.319 96.7263C207.949 96.7263 208.534 96.6813 209.029 96.5913C208.669 94.5213 207.364 89.3013 207.139 87.7713C206.599 90.7413 205.969 93.6663 205.384 96.5913ZM230.31 109.866C228.825 109.776 226.935 110.046 225.27 110.046C222.975 110.046 221.085 109.596 221.085 107.166V81.0213C221.085 78.4113 223.065 77.8263 225.495 77.8263C227.565 77.8263 229.995 78.2763 231.84 78.2313C242.91 77.9613 243.405 110.451 230.31 109.866ZM228.42 86.3763C228.285 88.5813 227.385 101.181 228.915 101.181C235.305 101.181 236.295 85.4763 228.42 86.3763ZM261.862 104.106C260.017 108.426 256.687 110.586 253.312 110.586C249.442 110.586 245.572 107.796 243.727 102.351C242.872 99.9663 242.512 97.3113 242.512 94.7013C242.512 84.6663 246.472 77.6013 253.132 77.6013C261.727 77.6013 263.392 86.4663 263.662 93.3063C263.842 96.9513 263.302 100.731 261.862 104.106ZM250.387 94.7013C250.387 99.1563 251.152 102.981 253.672 102.621C256.507 102.126 256.552 96.7263 256.327 93.4413C256.102 89.6163 255.652 85.6563 253.312 85.6563C251.017 85.6563 250.387 88.6263 250.387 94.7013ZM285.46 101.226C285.415 108.516 279.655 110.271 275.47 110.271C271.105 110.271 265.705 109.191 266.2 101.856C266.335 99.9213 268.225 99.2913 269.935 99.2913C271.42 99.2913 272.77 99.7863 272.77 100.371C272.95 102.936 274.075 103.206 275.47 103.206C278.035 103.206 279.205 99.4263 275.92 98.3913C273.175 97.5813 269.98 97.0863 268.045 94.2063C263.905 87.9513 268.945 78.0963 274.975 78.0963C279.025 78.0963 284.065 78.8163 284.065 86.9163C284.065 87.9063 282.58 88.3563 281.005 88.3563C279.295 88.3563 277.45 87.8163 277.495 86.8263C277.54 85.0263 276.64 84.1713 275.65 84.1713C274.615 84.1713 273.49 85.1613 273.49 86.8263C273.49 92.0463 285.505 90.0213 285.46 101.226Z" fill="#FEF8E8"/>
</g>
<defs>
<filter id="filter0_d_439_291" x="0" y="0" width="316" height="139" filterUnits="userSpaceOnUse" color-interpolation-filters="sRGB">
<feFlood flood-opacity="0" result="BackgroundImageFix"/>
<feColorMatrix in="SourceAlpha" type="matrix" values="0 0 0 0 0 0 0 0 0 0 0 0 0 0 0 0 0 0 127 0" result="hardAlpha"/>
<feOffset dy="4"/>
<feGaussianBlur stdDeviation="2"/>
<feComposite in2="hardAlpha" operator="out"/>
<feColorMatrix type="matrix" values="0 0 0 0 0 0 0 0 0 0 0 0 0 0 0 0 0 0 0.25 0"/>
<feBlend mode="normal" in2="BackgroundImageFix" result="effect1_dropShadow_439_291"/>
<feBlend mode="normal" in="SourceGraphic" in2="effect1_dropShadow_439_291" result="shape"/>
</filter>
</defs>
</svg>
