<svg width="218" height="91" viewBox="0 0 218 91" fill="none" xmlns="http://www.w3.org/2000/svg">
<g filter="url(#filter0_d_439_293)">
<path d="M4 10C4 4.47715 8.47715 0 14 0H203.259C208.782 0 213.259 4.47715 213.259 10V73C213.259 78.5229 208.782 83 203.259 83H14C8.47715 83 4 78.5228 4 73V10Z" fill="black"/>
<path d="M65.4307 55.838C65.5247 57.248 63.3627 58.094 61.5297 58.094C60.1667 58.094 58.9917 57.624 58.9917 56.59C59.1327 51.232 58.8507 45.827 58.7567 40.422C57.1587 46.297 55.9367 50.715 54.5267 56.496C54.2917 57.389 52.9757 57.953 51.7067 57.953C50.5317 57.953 49.4037 57.53 49.1687 56.496C48.7927 54.992 47.8057 51.326 47.4767 49.775C46.6307 46.203 45.8317 43.242 44.7507 39.764C44.6567 43.947 44.7507 47.096 44.7507 51.749C44.7507 54.757 45.1737 58.047 43.1057 57.859C42.3067 57.812 39.5807 58.141 38.9227 57.53C37.8887 56.543 38.1707 52.36 38.1707 50.621C38.1237 44.088 38.1707 39.341 37.9357 32.808C37.8417 30.364 37.7947 24.959 39.4867 25.006C40.5677 25.053 42.4007 24.583 43.9987 24.583C45.3617 24.583 46.5367 24.912 46.8657 26.087C48.8397 32.62 50.3437 37.696 52.0357 42.772C52.9287 38.824 54.3387 35.158 55.3727 31.257C55.7487 29.8 56.2657 25.382 57.2527 24.677C57.9577 24.16 60.8717 24.301 61.6707 24.301C62.5167 24.301 64.8197 24.16 65.3837 25.053C65.7127 25.617 65.6187 27.544 65.5717 28.296C65.2897 33.701 65.2897 39.2 65.4307 44.652C65.6187 50.433 65.2897 52.83 65.4307 55.838ZM76.6971 50.621C76.7441 52.877 77.1201 58.047 75.6631 58.047H71.0101C69.3181 58.047 69.8351 55.039 69.8351 50.01V32.526C69.8351 26.604 69.7411 24.959 71.6211 24.959C72.1381 24.959 73.4071 24.771 74.4881 24.771C75.3341 24.771 76.0861 24.865 76.3681 25.241C77.3551 26.51 76.8381 31.163 76.7911 33.043C76.6501 38.871 76.6501 44.746 76.6971 50.621ZM94.6654 58.141C91.5164 58.141 88.3204 58.329 85.1714 58.282C84.0434 58.282 82.5394 58.188 81.6464 57.389C81.4114 57.154 81.2234 56.825 81.1294 56.449C80.9414 55.979 80.8944 55.462 80.8944 54.945C80.8004 54.334 80.8004 53.676 80.8004 53.018C80.8004 49.681 80.8474 46.391 80.8944 43.101C81.0354 39.388 81.2704 35.675 81.2234 32.009C81.1764 30.082 81.1294 28.155 81.3644 26.322C81.4114 25.993 81.4584 25.664 81.5994 25.429C81.6934 25.147 81.9284 24.959 82.1164 24.912C82.5394 24.724 83.0094 24.771 83.4324 24.818C84.2784 24.865 85.1714 24.959 86.0174 25.006C87.3334 25.1 88.6494 25.147 89.9654 25.147C91.8454 25.147 93.7254 25.053 95.6054 24.818C96.2164 24.724 96.8274 24.63 97.4854 24.63C97.7674 24.63 98.1434 24.818 98.1434 25.147C98.2374 25.523 98.2374 25.993 98.2844 26.416C98.3314 28.014 98.4724 29.659 98.4254 31.304C98.3784 31.633 98.3314 31.962 98.2374 32.291C98.1434 32.62 97.9554 32.902 97.7674 33.09C97.4384 33.325 97.0154 33.419 96.6394 33.466C95.2294 33.56 93.8194 33.654 92.4094 33.654C91.7044 33.607 90.9994 33.513 90.2474 33.419C89.1194 33.419 89.1194 33.983 89.1194 35.017C89.1194 35.581 89.0724 37.179 89.3544 37.602C89.4484 37.743 89.8714 37.743 90.0124 37.79C91.1874 37.79 92.3154 37.696 93.4904 37.555C94.1014 37.461 94.7124 37.367 95.3704 37.32C96.7334 37.32 97.3444 37.837 97.4384 39.2C97.4854 40.046 97.4384 40.892 97.3914 41.738C97.3914 44.135 97.2974 45.639 94.4774 45.921C93.1614 45.968 91.8454 45.874 90.5294 45.686C90.2004 45.639 89.8244 45.592 89.4954 45.733C89.1194 45.921 89.0254 46.955 89.0254 47.566C89.0254 48.083 89.0254 49.493 89.3074 49.822C89.4484 50.057 90.0594 50.104 90.2474 50.104C92.1274 50.057 93.9604 49.493 95.7934 49.493C96.2634 49.493 96.6864 49.493 97.1094 49.587C97.7674 49.822 98.0964 50.01 98.2374 50.715C98.3784 51.42 98.3784 52.172 98.4254 52.924C98.4254 53.958 98.3784 55.039 98.2374 56.073C98.2374 56.355 98.1904 56.684 98.0964 56.966C97.9084 57.436 97.4854 57.765 97.1564 57.906C96.3574 58.235 95.5114 58.141 94.6654 58.141ZM116.293 58.141C113.285 58.376 110.183 57.906 106.94 57.906C105.953 57.906 102.428 58.611 102.428 55.744C102.428 53.817 102.334 49.07 102.334 47.143C102.193 40.563 101.817 33.936 102.099 27.356C102.193 25.241 102.428 24.865 103.838 24.865C104.543 24.865 105.577 24.959 107.081 24.959C107.833 24.959 109.055 24.724 109.337 25.711C110.136 28.719 109.76 41.08 109.807 44.323C109.807 46.25 109.525 48.6 110.888 48.694C112.251 48.741 116.058 48.694 118.126 48.694C119.207 48.694 119.254 52.689 119.254 54.193C119.254 58.235 117.985 58 116.293 58.141ZM128.975 50.621C129.022 52.877 129.398 58.047 127.941 58.047H123.288C121.596 58.047 122.113 55.039 122.113 50.01V32.526C122.113 26.604 122.019 24.959 123.899 24.959C124.416 24.959 125.685 24.771 126.766 24.771C127.612 24.771 128.364 24.865 128.646 25.241C129.633 26.51 129.116 31.163 129.069 33.043C128.928 38.871 128.928 44.746 128.975 50.621ZM140.223 54.71C140.223 56.496 140.223 58.376 137.92 58.376C136.698 58.376 135.429 58.094 134.254 57.812C133.502 57.624 133.361 57.295 133.267 56.543C133.173 55.65 133.173 54.757 133.173 53.864C133.267 51.185 133.408 48.506 133.408 45.827C133.455 43.383 133.455 40.939 133.408 38.542C133.361 35.863 133.173 33.231 133.126 30.552C133.126 29.424 133.032 26.275 133.596 25.476C133.737 25.241 133.925 25.1 134.16 25.053C134.395 25.006 134.63 25.053 134.912 25.1C135.946 25.147 136.98 25.053 138.014 24.818C138.343 24.771 138.766 24.63 139.095 24.771C139.189 24.818 139.33 25.1 139.377 25.147C140.082 26.275 140.646 27.638 141.304 28.907C142.385 31.163 143.842 33.137 144.97 35.346C145.816 36.85 146.474 38.448 147.226 39.999C147.226 38.918 147.132 37.837 147.132 36.709C147.085 35.205 147.085 33.748 147.038 32.244C146.991 30.693 146.897 29.142 146.991 27.591C147.038 26.745 147.226 25.758 147.931 25.194C148.307 25.006 148.73 24.959 149.106 24.959C150.187 24.959 151.268 25.006 152.349 25.006C152.772 25.006 153.242 25.006 153.618 25.147C153.806 25.241 153.994 25.429 154.135 25.664C154.276 25.993 154.323 26.463 154.323 26.886C154.323 27.92 154.276 28.954 154.276 29.941C154.229 31.163 154.276 32.338 154.276 33.513C154.276 36.991 154.229 40.469 154.323 43.947C154.323 46.156 154.417 48.318 154.37 50.48C154.323 52.266 154.182 54.005 153.994 55.744C153.994 56.261 153.9 56.825 153.806 57.295C153.712 57.577 153.571 57.906 153.336 58.047C153.195 58.188 152.96 58.188 152.725 58.188C151.785 58.235 150.798 58.235 149.858 58.141C149.435 58.094 148.965 58.047 148.589 57.765C148.213 57.53 147.978 57.013 147.79 56.59C147.508 56.026 147.32 55.509 147.085 54.945C145.675 51.702 143.842 48.929 142.244 45.874C141.539 44.464 140.928 42.913 140.129 41.597C140.082 43.712 140.223 45.827 140.223 47.942V50.997C140.223 52.219 140.27 53.441 140.223 54.71ZM164.715 58.282C164.386 58.47 163.681 58.564 162.929 58.564C161.425 58.564 159.498 58.282 158.84 58.235C155.691 57.953 157.054 56.355 159.122 48.647C161.19 41.033 162.741 34.876 164.715 27.215C165.467 24.442 166.736 24.724 169.838 24.724C173.316 24.724 173.88 24.677 174.491 27.356C177.029 38.448 178.815 46.485 181.306 55.932C181.588 56.966 181.447 57.812 180.695 58C179.99 58.141 178.157 58.376 176.606 58.376C175.666 58.376 174.82 58.282 174.397 58.047C173.363 57.436 173.363 51.984 172 51.984C170.167 51.937 168.945 51.843 167.112 51.984C165.467 52.125 166.266 57.389 164.715 58.282ZM167.676 44.182C168.287 44.276 168.992 44.323 169.697 44.323C170.355 44.323 170.966 44.276 171.483 44.182C171.107 42.02 169.744 36.568 169.509 34.97C168.945 38.072 168.287 41.127 167.676 44.182Z" fill="#FEF8E8"/>
</g>
<defs>
<filter id="filter0_d_439_293" x="0" y="0" width="217.259" height="91" filterUnits="userSpaceOnUse" color-interpolation-filters="sRGB">
<feFlood flood-opacity="0" result="BackgroundImageFix"/>
<feColorMatrix in="SourceAlpha" type="matrix" values="0 0 0 0 0 0 0 0 0 0 0 0 0 0 0 0 0 0 127 0" result="hardAlpha"/>
<feOffset dy="4"/>
<feGaussianBlur stdDeviation="2"/>
<feComposite in2="hardAlpha" operator="out"/>
<feColorMatrix type="matrix" values="0 0 0 0 0 0 0 0 0 0 0 0 0 0 0 0 0 0 0.25 0"/>
<feBlend mode="normal" in2="BackgroundImageFix" result="effect1_dropShadow_439_293"/>
<feBlend mode="normal" in="SourceGraphic" in2="effect1_dropShadow_439_293" result="shape"/>
</filter>
</defs>
</svg>
