<svg width="505" height="159" viewBox="0 0 505 159" fill="none" xmlns="http://www.w3.org/2000/svg">
<g filter="url(#filter0_d_486_2)">
<path d="M4 10C4 4.47715 8.47715 0 14 0H490.156C495.679 0 500.156 4.47715 500.156 10V141C500.156 146.523 495.679 151 490.156 151H14C8.47715 151 4 146.523 4 141V10Z" fill="black"/>
<path d="M42.9376 58.405C42.8926 65.695 37.1326 67.45 32.9476 67.45C28.5826 67.45 23.1826 66.37 23.6776 59.035C23.8126 57.1 25.7026 56.47 27.4126 56.47C28.8976 56.47 30.2476 56.965 30.2476 57.55C30.4276 60.115 31.5526 60.385 32.9926 60.385C35.5126 60.385 36.6826 56.605 33.3976 55.57C30.6526 54.76 27.4576 54.265 25.5226 51.385C21.3826 45.13 26.4226 35.275 32.4526 35.275C36.5026 35.275 41.5426 35.995 41.5426 44.095C41.5426 45.085 40.0576 45.535 38.4826 45.535C36.7726 45.535 34.9276 44.995 34.9726 44.005C35.0176 42.205 34.1176 41.35 33.1276 41.35C32.0926 41.35 30.9676 42.34 30.9676 44.005C30.9676 49.225 42.9826 47.2 42.9376 58.405ZM52.7195 59.935C52.7645 62.095 53.1245 67.045 51.7295 67.045H47.2745C45.6545 67.045 46.1495 64.165 46.1495 59.35V42.61C46.1495 36.94 46.0595 35.365 47.8595 35.365C48.3545 35.365 49.5695 35.185 50.6045 35.185C51.4145 35.185 52.1345 35.275 52.4045 35.635C53.3495 36.85 52.8545 41.305 52.8095 43.105C52.6745 48.685 52.6745 54.31 52.7195 59.935ZM76.1764 66.82C75.4564 66.91 74.7814 66.91 74.0614 66.91C73.5664 66.91 73.1164 66.91 72.6214 66.865C72.3064 66.865 71.9464 66.82 71.6314 66.64C71.4514 66.505 71.2264 66.28 71.1364 66.01C70.9114 65.47 70.8214 64.795 70.8214 64.165C70.6414 61.105 70.9564 58.09 71.0914 55.03C71.1814 51.655 71.1814 49.135 71.0014 45.805C70.9564 45.22 70.9564 44.095 70.5514 43.915C70.4164 43.825 70.1914 43.825 70.0564 43.825C69.1114 43.915 68.2114 44.23 67.3114 44.23C66.6814 44.23 66.0064 44.095 65.6014 43.645C65.3314 43.285 65.1964 42.79 65.1514 42.295C64.9714 41.125 64.9264 39.055 65.0164 37.84C65.0614 37.21 65.1064 36.49 65.3314 35.905C65.4214 35.59 65.6464 35.32 65.8714 35.23C66.0514 35.14 66.2314 35.095 66.4114 35.095C67.5814 34.96 68.7064 35.005 69.8764 35.005C71.5864 35.05 73.2964 35.005 75.0064 35.05H75.2314C76.0414 34.96 76.8514 34.96 77.6614 34.915C78.5164 34.87 79.3714 34.78 80.2264 34.78C80.9914 34.735 81.8014 34.735 82.5664 34.96C82.8814 35.05 83.1964 35.23 83.4664 35.59C83.6914 35.95 83.7814 36.535 83.7814 37.03C83.8264 38.02 83.7814 38.965 83.7364 39.955C83.7364 40.585 83.6014 42.295 83.1964 42.79C83.0164 43.06 82.7014 43.24 82.4764 43.285C81.6214 43.6 80.7214 43.6 79.8664 43.555C79.3264 43.555 78.8314 43.465 78.2914 43.465C78.2014 43.465 77.9764 43.465 77.8864 43.555C77.7964 43.69 77.7514 44.185 77.7514 44.365C77.6614 45.49 77.7064 46.615 77.6614 47.695C77.6614 49.495 77.7064 51.295 77.7064 53.095C77.7064 54.895 77.6614 56.695 77.7514 58.495C77.7514 60.475 77.9764 62.5 77.7514 64.48C77.6164 65.515 77.3914 66.685 76.1764 66.82ZM93.0612 59.935C93.1062 62.095 93.4662 67.045 92.0712 67.045H87.6162C85.9962 67.045 86.4912 64.165 86.4912 59.35V42.61C86.4912 36.94 86.4012 35.365 88.2012 35.365C88.6962 35.365 89.9112 35.185 90.9462 35.185C91.7562 35.185 92.4762 35.275 92.7462 35.635C93.6912 36.85 93.1962 41.305 93.1512 43.105C93.0162 48.685 93.0162 54.31 93.0612 59.935ZM110.265 67.135C107.25 67.135 104.19 67.315 101.175 67.27C100.095 67.27 98.655 67.18 97.8 66.415C97.575 66.19 97.395 65.875 97.305 65.515C97.125 65.065 97.08 64.57 97.08 64.075C96.99 63.49 96.99 62.86 96.99 62.23C96.99 59.035 97.035 55.885 97.08 52.735C97.215 49.18 97.44 45.625 97.395 42.115C97.35 40.27 97.305 38.425 97.53 36.67C97.575 36.355 97.62 36.04 97.755 35.815C97.845 35.545 98.07 35.365 98.25 35.32C98.655 35.14 99.105 35.185 99.51 35.23C100.32 35.275 101.175 35.365 101.985 35.41C103.245 35.5 104.505 35.545 105.765 35.545C107.565 35.545 109.365 35.455 111.165 35.23C111.75 35.14 112.335 35.05 112.965 35.05C113.235 35.05 113.595 35.23 113.595 35.545C113.685 35.905 113.685 36.355 113.73 36.76C113.775 38.29 113.91 39.865 113.865 41.44C113.82 41.755 113.775 42.07 113.685 42.385C113.595 42.7 113.415 42.97 113.235 43.15C112.92 43.375 112.515 43.465 112.155 43.51C110.805 43.6 109.455 43.69 108.105 43.69C107.43 43.645 106.755 43.555 106.035 43.465C104.955 43.465 104.955 44.005 104.955 44.995C104.955 45.535 104.91 47.065 105.18 47.47C105.27 47.605 105.675 47.605 105.81 47.65C106.935 47.65 108.015 47.56 109.14 47.425C109.725 47.335 110.31 47.245 110.94 47.2C112.245 47.2 112.83 47.695 112.92 49C112.965 49.81 112.92 50.62 112.875 51.43C112.875 53.725 112.785 55.165 110.085 55.435C108.825 55.48 107.565 55.39 106.305 55.21C105.99 55.165 105.63 55.12 105.315 55.255C104.955 55.435 104.865 56.425 104.865 57.01C104.865 57.505 104.865 58.855 105.135 59.17C105.27 59.395 105.855 59.44 106.035 59.44C107.835 59.395 109.59 58.855 111.345 58.855C111.795 58.855 112.2 58.855 112.605 58.945C113.235 59.17 113.55 59.35 113.685 60.025C113.82 60.7 113.82 61.42 113.865 62.14C113.865 63.13 113.82 64.165 113.685 65.155C113.685 65.425 113.64 65.74 113.55 66.01C113.37 66.46 112.965 66.775 112.65 66.91C111.885 67.225 111.075 67.135 110.265 67.135ZM124.133 63.85C124.133 65.56 124.133 67.36 121.928 67.36C120.758 67.36 119.543 67.09 118.418 66.82C117.698 66.64 117.563 66.325 117.473 65.605C117.383 64.75 117.383 63.895 117.383 63.04C117.473 60.475 117.608 57.91 117.608 55.345C117.653 53.005 117.653 50.665 117.608 48.37C117.563 45.805 117.383 43.285 117.338 40.72C117.338 39.64 117.248 36.625 117.788 35.86C117.923 35.635 118.103 35.5 118.328 35.455C118.553 35.41 118.778 35.455 119.048 35.5C120.038 35.545 121.028 35.455 122.018 35.23C122.333 35.185 122.738 35.05 123.053 35.185C123.143 35.23 123.278 35.5 123.323 35.545C123.998 36.625 124.538 37.93 125.168 39.145C126.203 41.305 127.598 43.195 128.678 45.31C129.488 46.75 130.118 48.28 130.838 49.765C130.838 48.73 130.748 47.695 130.748 46.615C130.703 45.175 130.703 43.78 130.658 42.34C130.613 40.855 130.523 39.37 130.613 37.885C130.658 37.075 130.838 36.13 131.513 35.59C131.873 35.41 132.278 35.365 132.638 35.365C133.673 35.365 134.708 35.41 135.743 35.41C136.148 35.41 136.598 35.41 136.958 35.545C137.138 35.635 137.318 35.815 137.453 36.04C137.588 36.355 137.633 36.805 137.633 37.21C137.633 38.2 137.588 39.19 137.588 40.135C137.543 41.305 137.588 42.43 137.588 43.555C137.588 46.885 137.543 50.215 137.633 53.545C137.633 55.66 137.723 57.73 137.678 59.8C137.633 61.51 137.498 63.175 137.318 64.84C137.318 65.335 137.228 65.875 137.138 66.325C137.048 66.595 136.913 66.91 136.688 67.045C136.553 67.18 136.328 67.18 136.103 67.18C135.203 67.225 134.258 67.225 133.358 67.135C132.953 67.09 132.503 67.045 132.143 66.775C131.783 66.55 131.558 66.055 131.378 65.65C131.108 65.11 130.928 64.615 130.703 64.075C129.353 60.97 127.598 58.315 126.068 55.39C125.393 54.04 124.808 52.555 124.043 51.295C123.998 53.32 124.133 55.345 124.133 57.37V60.295C124.133 61.465 124.178 62.635 124.133 63.85ZM154.738 67.135C151.723 67.135 148.663 67.315 145.648 67.27C144.568 67.27 143.128 67.18 142.273 66.415C142.048 66.19 141.868 65.875 141.778 65.515C141.598 65.065 141.553 64.57 141.553 64.075C141.463 63.49 141.463 62.86 141.463 62.23C141.463 59.035 141.508 55.885 141.553 52.735C141.688 49.18 141.913 45.625 141.868 42.115C141.823 40.27 141.778 38.425 142.003 36.67C142.048 36.355 142.093 36.04 142.228 35.815C142.318 35.545 142.543 35.365 142.723 35.32C143.128 35.14 143.578 35.185 143.983 35.23C144.793 35.275 145.648 35.365 146.458 35.41C147.718 35.5 148.978 35.545 150.238 35.545C152.038 35.545 153.838 35.455 155.638 35.23C156.223 35.14 156.808 35.05 157.438 35.05C157.708 35.05 158.068 35.23 158.068 35.545C158.158 35.905 158.158 36.355 158.203 36.76C158.248 38.29 158.383 39.865 158.338 41.44C158.293 41.755 158.248 42.07 158.158 42.385C158.068 42.7 157.888 42.97 157.708 43.15C157.393 43.375 156.988 43.465 156.628 43.51C155.278 43.6 153.928 43.69 152.578 43.69C151.903 43.645 151.228 43.555 150.508 43.465C149.428 43.465 149.428 44.005 149.428 44.995C149.428 45.535 149.383 47.065 149.653 47.47C149.743 47.605 150.148 47.605 150.283 47.65C151.408 47.65 152.488 47.56 153.613 47.425C154.198 47.335 154.783 47.245 155.413 47.2C156.718 47.2 157.303 47.695 157.393 49C157.438 49.81 157.393 50.62 157.348 51.43C157.348 53.725 157.258 55.165 154.558 55.435C153.298 55.48 152.038 55.39 150.778 55.21C150.463 55.165 150.103 55.12 149.788 55.255C149.428 55.435 149.338 56.425 149.338 57.01C149.338 57.505 149.338 58.855 149.608 59.17C149.743 59.395 150.328 59.44 150.508 59.44C152.308 59.395 154.063 58.855 155.818 58.855C156.268 58.855 156.673 58.855 157.078 58.945C157.708 59.17 158.023 59.35 158.158 60.025C158.293 60.7 158.293 61.42 158.338 62.14C158.338 63.13 158.293 64.165 158.158 65.155C158.158 65.425 158.113 65.74 158.023 66.01C157.843 66.46 157.438 66.775 157.123 66.91C156.358 67.225 155.548 67.135 154.738 67.135ZM180.44 58.405C180.395 65.695 174.635 67.45 170.45 67.45C166.085 67.45 160.685 66.37 161.18 59.035C161.315 57.1 163.205 56.47 164.915 56.47C166.4 56.47 167.75 56.965 167.75 57.55C167.93 60.115 169.055 60.385 170.45 60.385C173.015 60.385 174.185 56.605 170.9 55.57C168.155 54.76 164.96 54.265 163.025 51.385C158.885 45.13 163.925 35.275 169.955 35.275C174.005 35.275 179.045 35.995 179.045 44.095C179.045 45.085 177.56 45.535 175.985 45.535C174.275 45.535 172.43 44.995 172.475 44.005C172.52 42.205 171.62 41.35 170.63 41.35C169.595 41.35 168.47 42.34 168.47 44.005C168.47 49.225 180.485 47.2 180.44 58.405ZM202.107 67.045C200.622 66.955 198.732 67.225 197.067 67.225C194.772 67.225 192.882 66.775 192.882 64.345V38.2C192.882 35.59 194.862 35.005 197.292 35.005C199.362 35.005 201.792 35.455 203.637 35.41C214.707 35.14 215.202 67.63 202.107 67.045ZM200.217 43.555C200.082 45.76 199.182 58.36 200.712 58.36C207.102 58.36 208.092 42.655 200.217 43.555ZM235.233 59.035C234.153 64.345 231.318 67.36 225.918 67.36C222.228 67.36 218.223 66.37 216.423 62.545C214.353 58.135 214.758 42.34 214.938 37.03C214.983 35.185 216.648 35.635 217.953 35.59C218.403 35.545 219.348 35.365 220.113 35.365C220.698 35.365 221.193 35.455 221.418 35.815C222.003 36.67 221.823 39.775 221.733 40.99C221.553 45.445 221.823 51.34 222.003 55.75C222.093 58.225 223.353 59.305 224.703 59.305C226.323 59.305 227.988 57.865 227.988 55.525C227.988 51.88 227.673 40.405 227.988 36.76C228.168 34.96 229.878 35.41 231.138 35.41C231.903 35.455 234.063 35.14 234.648 35.95C235.278 36.85 235.008 40.54 235.053 41.845C235.143 44.725 235.818 56.29 235.233 59.035ZM248.337 67.045C246.852 66.955 244.962 67.225 243.297 67.225C241.002 67.225 239.112 66.775 239.112 64.345V38.2C239.112 35.59 241.092 35.005 243.522 35.005C245.592 35.005 248.022 35.455 249.867 35.41C260.937 35.14 261.432 67.63 248.337 67.045ZM246.447 43.555C246.312 45.76 245.412 58.36 246.942 58.36C253.332 58.36 254.322 42.655 246.447 43.555ZM265.927 67.27C265.612 67.45 264.937 67.54 264.217 67.54C262.777 67.54 260.932 67.27 260.302 67.225C257.287 66.955 258.592 65.425 260.572 58.045C262.552 50.755 264.037 44.86 265.927 37.525C266.647 34.87 267.862 35.14 270.832 35.14C274.162 35.14 274.702 35.095 275.287 37.66C277.717 48.28 279.427 55.975 281.812 65.02C282.082 66.01 281.947 66.82 281.227 67C280.552 67.135 278.797 67.36 277.312 67.36C276.412 67.36 275.602 67.27 275.197 67.045C274.207 66.46 274.207 61.24 272.902 61.24C271.147 61.195 269.977 61.105 268.222 61.24C266.647 61.375 267.412 66.415 265.927 67.27ZM268.762 53.77C269.347 53.86 270.022 53.905 270.697 53.905C271.327 53.905 271.912 53.86 272.407 53.77C272.047 51.7 270.742 46.48 270.517 44.95C269.977 47.92 269.347 50.845 268.762 53.77ZM303.004 58.405C302.959 65.695 297.199 67.45 293.014 67.45C288.649 67.45 283.249 66.37 283.744 59.035C283.879 57.1 285.769 56.47 287.479 56.47C288.964 56.47 290.314 56.965 290.314 57.55C290.494 60.115 291.619 60.385 293.014 60.385C295.579 60.385 296.749 56.605 293.464 55.57C290.719 54.76 287.524 54.265 285.589 51.385C281.449 45.13 286.489 35.275 292.519 35.275C296.569 35.275 301.609 35.995 301.609 44.095C301.609 45.085 300.124 45.535 298.549 45.535C296.839 45.535 294.994 44.995 295.039 44.005C295.084 42.205 294.184 41.35 293.194 41.35C292.159 41.35 291.034 42.34 291.034 44.005C291.034 49.225 303.049 47.2 303.004 58.405ZM334.615 54.94C334.615 62.95 331.285 67 325.345 67C321.07 67 316.705 64.57 315.31 57.91C313.015 46.75 316.705 34.915 324.85 34.915C331.51 34.915 334.84 39.46 334.84 46.615C334.84 47.92 333.4 48.46 331.915 48.46C330.385 48.46 328.765 47.83 328.765 46.84C328.765 44.185 327.325 43.015 325.66 43.015C320.35 43.015 319.495 59.665 325.705 59.215C327.55 59.08 328.765 57.685 328.54 54.49C328.495 53.275 329.98 52.6 331.465 52.6C333.04 52.6 334.615 53.32 334.615 54.94ZM356.661 61.285C354.816 65.605 351.486 67.765 348.111 67.765C344.241 67.765 340.371 64.975 338.526 59.53C337.671 57.145 337.311 54.49 337.311 51.88C337.311 41.845 341.271 34.78 347.931 34.78C356.526 34.78 358.191 43.645 358.461 50.485C358.641 54.13 358.101 57.91 356.661 61.285ZM345.186 51.88C345.186 56.335 345.951 60.16 348.471 59.8C351.306 59.305 351.351 53.905 351.126 50.62C350.901 46.795 350.451 42.835 348.111 42.835C345.816 42.835 345.186 45.805 345.186 51.88ZM368.425 63.85C368.425 65.56 368.425 67.36 366.22 67.36C365.05 67.36 363.835 67.09 362.71 66.82C361.99 66.64 361.855 66.325 361.765 65.605C361.675 64.75 361.675 63.895 361.675 63.04C361.765 60.475 361.9 57.91 361.9 55.345C361.945 53.005 361.945 50.665 361.9 48.37C361.855 45.805 361.675 43.285 361.63 40.72C361.63 39.64 361.54 36.625 362.08 35.86C362.215 35.635 362.395 35.5 362.62 35.455C362.845 35.41 363.07 35.455 363.34 35.5C364.33 35.545 365.32 35.455 366.31 35.23C366.625 35.185 367.03 35.05 367.345 35.185C367.435 35.23 367.57 35.5 367.615 35.545C368.29 36.625 368.83 37.93 369.46 39.145C370.495 41.305 371.89 43.195 372.97 45.31C373.78 46.75 374.41 48.28 375.13 49.765C375.13 48.73 375.04 47.695 375.04 46.615C374.995 45.175 374.995 43.78 374.95 42.34C374.905 40.855 374.815 39.37 374.905 37.885C374.95 37.075 375.13 36.13 375.805 35.59C376.165 35.41 376.57 35.365 376.93 35.365C377.965 35.365 379 35.41 380.035 35.41C380.44 35.41 380.89 35.41 381.25 35.545C381.43 35.635 381.61 35.815 381.745 36.04C381.88 36.355 381.925 36.805 381.925 37.21C381.925 38.2 381.88 39.19 381.88 40.135C381.835 41.305 381.88 42.43 381.88 43.555C381.88 46.885 381.835 50.215 381.925 53.545C381.925 55.66 382.015 57.73 381.97 59.8C381.925 61.51 381.79 63.175 381.61 64.84C381.61 65.335 381.52 65.875 381.43 66.325C381.34 66.595 381.205 66.91 380.98 67.045C380.845 67.18 380.62 67.18 380.395 67.18C379.495 67.225 378.55 67.225 377.65 67.135C377.245 67.09 376.795 67.045 376.435 66.775C376.075 66.55 375.85 66.055 375.67 65.65C375.4 65.11 375.22 64.615 374.995 64.075C373.645 60.97 371.89 58.315 370.36 55.39C369.685 54.04 369.1 52.555 368.335 51.295C368.29 53.32 368.425 55.345 368.425 57.37V60.295C368.425 61.465 368.47 62.635 368.425 63.85ZM404.43 58.405C404.385 65.695 398.625 67.45 394.44 67.45C390.075 67.45 384.675 66.37 385.17 59.035C385.305 57.1 387.195 56.47 388.905 56.47C390.39 56.47 391.74 56.965 391.74 57.55C391.92 60.115 393.045 60.385 394.44 60.385C397.005 60.385 398.175 56.605 394.89 55.57C392.145 54.76 388.95 54.265 387.015 51.385C382.875 45.13 387.915 35.275 393.945 35.275C397.995 35.275 403.035 35.995 403.035 44.095C403.035 45.085 401.55 45.535 399.975 45.535C398.265 45.535 396.42 44.995 396.465 44.005C396.51 42.205 395.61 41.35 394.62 41.35C393.585 41.35 392.46 42.34 392.46 44.005C392.46 49.225 404.475 47.2 404.43 58.405ZM427.538 59.035C426.458 64.345 423.623 67.36 418.223 67.36C414.533 67.36 410.528 66.37 408.728 62.545C406.658 58.135 407.063 42.34 407.243 37.03C407.288 35.185 408.953 35.635 410.258 35.59C410.708 35.545 411.653 35.365 412.418 35.365C413.003 35.365 413.498 35.455 413.723 35.815C414.308 36.67 414.128 39.775 414.038 40.99C413.858 45.445 414.128 51.34 414.308 55.75C414.398 58.225 415.658 59.305 417.008 59.305C418.628 59.305 420.293 57.865 420.293 55.525C420.293 51.88 419.978 40.405 420.293 36.76C420.473 34.96 422.183 35.41 423.443 35.41C424.208 35.455 426.368 35.14 426.953 35.95C427.583 36.85 427.313 40.54 427.358 41.845C427.448 44.725 428.123 56.29 427.538 59.035ZM444.962 67.135C442.082 67.36 439.112 66.91 436.007 66.91C435.062 66.91 431.687 67.585 431.687 64.84C431.687 62.995 431.597 58.45 431.597 56.605C431.462 50.305 431.102 43.96 431.372 37.66C431.462 35.635 431.687 35.275 433.037 35.275C433.712 35.275 434.702 35.365 436.142 35.365C436.862 35.365 438.032 35.14 438.302 36.085C439.067 38.965 438.707 50.8 438.752 53.905C438.752 55.75 438.482 58 439.787 58.09C441.092 58.135 444.737 58.09 446.717 58.09C447.752 58.09 447.797 61.915 447.797 63.355C447.797 67.225 446.582 67 444.962 67.135ZM455.556 66.82C454.836 66.91 454.161 66.91 453.441 66.91C452.946 66.91 452.496 66.91 452.001 66.865C451.686 66.865 451.326 66.82 451.011 66.64C450.831 66.505 450.606 66.28 450.516 66.01C450.291 65.47 450.201 64.795 450.201 64.165C450.021 61.105 450.336 58.09 450.471 55.03C450.561 51.655 450.561 49.135 450.381 45.805C450.336 45.22 450.336 44.095 449.931 43.915C449.796 43.825 449.571 43.825 449.436 43.825C448.491 43.915 447.591 44.23 446.691 44.23C446.061 44.23 445.386 44.095 444.981 43.645C444.711 43.285 444.576 42.79 444.531 42.295C444.351 41.125 444.306 39.055 444.396 37.84C444.441 37.21 444.486 36.49 444.711 35.905C444.801 35.59 445.026 35.32 445.251 35.23C445.431 35.14 445.611 35.095 445.791 35.095C446.961 34.96 448.086 35.005 449.256 35.005C450.966 35.05 452.676 35.005 454.386 35.05H454.611C455.421 34.96 456.231 34.96 457.041 34.915C457.896 34.87 458.751 34.78 459.606 34.78C460.371 34.735 461.181 34.735 461.946 34.96C462.261 35.05 462.576 35.23 462.846 35.59C463.071 35.95 463.161 36.535 463.161 37.03C463.206 38.02 463.161 38.965 463.116 39.955C463.116 40.585 462.981 42.295 462.576 42.79C462.396 43.06 462.081 43.24 461.856 43.285C461.001 43.6 460.101 43.6 459.246 43.555C458.706 43.555 458.211 43.465 457.671 43.465C457.581 43.465 457.356 43.465 457.266 43.555C457.176 43.69 457.131 44.185 457.131 44.365C457.041 45.49 457.086 46.615 457.041 47.695C457.041 49.495 457.086 51.295 457.086 53.095C457.086 54.895 457.041 56.695 457.131 58.495C457.131 60.475 457.356 62.5 457.131 64.48C456.996 65.515 456.771 66.685 455.556 66.82ZM467.68 67.27C467.365 67.45 466.69 67.54 465.97 67.54C464.53 67.54 462.685 67.27 462.055 67.225C459.04 66.955 460.345 65.425 462.325 58.045C464.305 50.755 465.79 44.86 467.68 37.525C468.4 34.87 469.615 35.14 472.585 35.14C475.915 35.14 476.455 35.095 477.04 37.66C479.47 48.28 481.18 55.975 483.565 65.02C483.835 66.01 483.7 66.82 482.98 67C482.305 67.135 480.55 67.36 479.065 67.36C478.165 67.36 477.355 67.27 476.95 67.045C475.96 66.46 475.96 61.24 474.655 61.24C472.9 61.195 471.73 61.105 469.975 61.24C468.4 61.375 469.165 66.415 467.68 67.27ZM470.515 53.77C471.1 53.86 471.775 53.905 472.45 53.905C473.08 53.905 473.665 53.86 474.16 53.77C473.8 51.7 472.495 46.48 472.27 44.95C471.73 47.92 471.1 50.845 470.515 53.77ZM140.882 108.94C140.882 116.95 137.552 121 131.612 121C127.337 121 122.972 118.57 121.577 111.91C119.282 100.75 122.972 88.915 131.117 88.915C137.777 88.915 141.107 93.46 141.107 100.615C141.107 101.92 139.667 102.46 138.182 102.46C136.652 102.46 135.032 101.83 135.032 100.84C135.032 98.185 133.592 97.015 131.927 97.015C126.617 97.015 125.762 113.665 131.972 113.215C133.817 113.08 135.032 111.685 134.807 108.49C134.762 107.275 136.247 106.6 137.732 106.6C139.307 106.6 140.882 107.32 140.882 108.94ZM162.928 115.285C161.083 119.605 157.753 121.765 154.378 121.765C150.508 121.765 146.638 118.975 144.793 113.53C143.938 111.145 143.578 108.49 143.578 105.88C143.578 95.845 147.538 88.78 154.198 88.78C162.793 88.78 164.458 97.645 164.728 104.485C164.908 108.13 164.368 111.91 162.928 115.285ZM151.453 105.88C151.453 110.335 152.218 114.16 154.738 113.8C157.573 113.305 157.618 107.905 157.393 104.62C157.168 100.795 156.718 96.835 154.378 96.835C152.083 96.835 151.453 99.805 151.453 105.88ZM174.692 117.85C174.692 119.56 174.692 121.36 172.487 121.36C171.317 121.36 170.102 121.09 168.977 120.82C168.257 120.64 168.122 120.325 168.032 119.605C167.942 118.75 167.942 117.895 167.942 117.04C168.032 114.475 168.167 111.91 168.167 109.345C168.212 107.005 168.212 104.665 168.167 102.37C168.122 99.805 167.942 97.285 167.897 94.72C167.897 93.64 167.807 90.625 168.347 89.86C168.482 89.635 168.662 89.5 168.887 89.455C169.112 89.41 169.337 89.455 169.607 89.5C170.597 89.545 171.587 89.455 172.577 89.23C172.892 89.185 173.297 89.05 173.612 89.185C173.702 89.23 173.837 89.5 173.882 89.545C174.557 90.625 175.097 91.93 175.727 93.145C176.762 95.305 178.157 97.195 179.237 99.31C180.047 100.75 180.677 102.28 181.397 103.765C181.397 102.73 181.307 101.695 181.307 100.615C181.262 99.175 181.262 97.78 181.217 96.34C181.172 94.855 181.082 93.37 181.172 91.885C181.217 91.075 181.397 90.13 182.072 89.59C182.432 89.41 182.837 89.365 183.197 89.365C184.232 89.365 185.267 89.41 186.302 89.41C186.707 89.41 187.157 89.41 187.517 89.545C187.697 89.635 187.877 89.815 188.012 90.04C188.147 90.355 188.192 90.805 188.192 91.21C188.192 92.2 188.147 93.19 188.147 94.135C188.102 95.305 188.147 96.43 188.147 97.555C188.147 100.885 188.102 104.215 188.192 107.545C188.192 109.66 188.282 111.73 188.237 113.8C188.192 115.51 188.057 117.175 187.877 118.84C187.877 119.335 187.787 119.875 187.697 120.325C187.607 120.595 187.472 120.91 187.247 121.045C187.112 121.18 186.887 121.18 186.662 121.18C185.762 121.225 184.817 121.225 183.917 121.135C183.512 121.09 183.062 121.045 182.702 120.775C182.342 120.55 182.117 120.055 181.937 119.65C181.667 119.11 181.487 118.615 181.262 118.075C179.912 114.97 178.157 112.315 176.627 109.39C175.952 108.04 175.367 106.555 174.602 105.295C174.557 107.32 174.692 109.345 174.692 111.37V114.295C174.692 115.465 174.737 116.635 174.692 117.85ZM211.55 120.82C210.83 120.91 210.155 120.91 209.435 120.91C208.94 120.91 208.49 120.91 207.995 120.865C207.68 120.865 207.32 120.82 207.005 120.64C206.825 120.505 206.6 120.28 206.51 120.01C206.285 119.47 206.195 118.795 206.195 118.165C206.015 115.105 206.33 112.09 206.465 109.03C206.555 105.655 206.555 103.135 206.375 99.805C206.33 99.22 206.33 98.095 205.925 97.915C205.79 97.825 205.565 97.825 205.43 97.825C204.485 97.915 203.585 98.23 202.685 98.23C202.055 98.23 201.38 98.095 200.975 97.645C200.705 97.285 200.57 96.79 200.525 96.295C200.345 95.125 200.3 93.055 200.39 91.84C200.435 91.21 200.48 90.49 200.705 89.905C200.795 89.59 201.02 89.32 201.245 89.23C201.425 89.14 201.605 89.095 201.785 89.095C202.955 88.96 204.08 89.005 205.25 89.005C206.96 89.05 208.67 89.005 210.38 89.05H210.605C211.415 88.96 212.225 88.96 213.035 88.915C213.89 88.87 214.745 88.78 215.6 88.78C216.365 88.735 217.175 88.735 217.94 88.96C218.255 89.05 218.57 89.23 218.84 89.59C219.065 89.95 219.155 90.535 219.155 91.03C219.2 92.02 219.155 92.965 219.11 93.955C219.11 94.585 218.975 96.295 218.57 96.79C218.39 97.06 218.075 97.24 217.85 97.285C216.995 97.6 216.095 97.6 215.24 97.555C214.7 97.555 214.205 97.465 213.665 97.465C213.575 97.465 213.35 97.465 213.26 97.555C213.17 97.69 213.125 98.185 213.125 98.365C213.035 99.49 213.08 100.615 213.035 101.695C213.035 103.495 213.08 105.295 213.08 107.095C213.08 108.895 213.035 110.695 213.125 112.495C213.125 114.475 213.35 116.5 213.125 118.48C212.99 119.515 212.765 120.685 211.55 120.82ZM241.935 113.035C240.855 118.345 238.02 121.36 232.62 121.36C228.93 121.36 224.925 120.37 223.125 116.545C221.055 112.135 221.46 96.34 221.64 91.03C221.685 89.185 223.35 89.635 224.655 89.59C225.105 89.545 226.05 89.365 226.815 89.365C227.4 89.365 227.895 89.455 228.12 89.815C228.705 90.67 228.525 93.775 228.435 94.99C228.255 99.445 228.525 105.34 228.705 109.75C228.795 112.225 230.055 113.305 231.405 113.305C233.025 113.305 234.69 111.865 234.69 109.525C234.69 105.88 234.375 94.405 234.69 90.76C234.87 88.96 236.58 89.41 237.84 89.41C238.605 89.455 240.765 89.14 241.35 89.95C241.98 90.85 241.71 94.54 241.755 95.845C241.845 98.725 242.52 110.29 241.935 113.035ZM264.487 121.045C263.002 120.955 261.112 121.225 259.447 121.225C257.152 121.225 255.262 120.775 255.262 118.345V92.2C255.262 89.59 257.242 89.005 259.672 89.005C261.742 89.005 264.172 89.455 266.017 89.41C277.087 89.14 277.582 121.63 264.487 121.045ZM262.597 97.555C262.462 99.76 261.562 112.36 263.092 112.36C269.482 112.36 270.472 96.655 262.597 97.555ZM296.038 115.285C294.193 119.605 290.863 121.765 287.488 121.765C283.618 121.765 279.748 118.975 277.903 113.53C277.048 111.145 276.688 108.49 276.688 105.88C276.688 95.845 280.648 88.78 287.308 88.78C295.903 88.78 297.568 97.645 297.838 104.485C298.018 108.13 297.478 111.91 296.038 115.285ZM284.563 105.88C284.563 110.335 285.328 114.16 287.848 113.8C290.683 113.305 290.728 107.905 290.503 104.62C290.278 100.795 289.828 96.835 287.488 96.835C285.193 96.835 284.563 99.805 284.563 105.88ZM320.267 108.94C320.267 116.95 316.937 121 310.997 121C306.722 121 302.357 118.57 300.962 111.91C298.667 100.75 302.357 88.915 310.502 88.915C317.162 88.915 320.492 93.46 320.492 100.615C320.492 101.92 319.052 102.46 317.567 102.46C316.037 102.46 314.417 101.83 314.417 100.84C314.417 98.185 312.977 97.015 311.312 97.015C306.002 97.015 305.147 113.665 311.357 113.215C313.202 113.08 314.417 111.685 314.192 108.49C314.147 107.275 315.632 106.6 317.117 106.6C318.692 106.6 320.267 107.32 320.267 108.94ZM333.718 120.82C332.998 120.91 332.323 120.91 331.603 120.91C331.108 120.91 330.658 120.91 330.163 120.865C329.848 120.865 329.488 120.82 329.173 120.64C328.993 120.505 328.768 120.28 328.678 120.01C328.453 119.47 328.363 118.795 328.363 118.165C328.183 115.105 328.498 112.09 328.633 109.03C328.723 105.655 328.723 103.135 328.543 99.805C328.498 99.22 328.498 98.095 328.093 97.915C327.958 97.825 327.733 97.825 327.598 97.825C326.653 97.915 325.753 98.23 324.853 98.23C324.223 98.23 323.548 98.095 323.143 97.645C322.873 97.285 322.738 96.79 322.693 96.295C322.513 95.125 322.468 93.055 322.558 91.84C322.603 91.21 322.648 90.49 322.873 89.905C322.963 89.59 323.188 89.32 323.413 89.23C323.593 89.14 323.773 89.095 323.953 89.095C325.123 88.96 326.248 89.005 327.418 89.005C329.128 89.05 330.838 89.005 332.548 89.05H332.773C333.583 88.96 334.393 88.96 335.203 88.915C336.058 88.87 336.913 88.78 337.768 88.78C338.533 88.735 339.343 88.735 340.108 88.96C340.423 89.05 340.738 89.23 341.008 89.59C341.233 89.95 341.323 90.535 341.323 91.03C341.368 92.02 341.323 92.965 341.278 93.955C341.278 94.585 341.143 96.295 340.738 96.79C340.558 97.06 340.243 97.24 340.018 97.285C339.163 97.6 338.263 97.6 337.408 97.555C336.868 97.555 336.373 97.465 335.833 97.465C335.743 97.465 335.518 97.465 335.428 97.555C335.338 97.69 335.293 98.185 335.293 98.365C335.203 99.49 335.248 100.615 335.203 101.695C335.203 103.495 335.248 105.295 335.248 107.095C335.248 108.895 335.203 110.695 335.293 112.495C335.293 114.475 335.518 116.5 335.293 118.48C335.158 119.515 334.933 120.685 333.718 120.82ZM361.649 115.285C359.804 119.605 356.474 121.765 353.099 121.765C349.229 121.765 345.359 118.975 343.514 113.53C342.659 111.145 342.299 108.49 342.299 105.88C342.299 95.845 346.259 88.78 352.919 88.78C361.514 88.78 363.179 97.645 363.449 104.485C363.629 108.13 363.089 111.91 361.649 115.285ZM350.174 105.88C350.174 110.335 350.939 114.16 353.459 113.8C356.294 113.305 356.339 107.905 356.114 104.62C355.889 100.795 355.439 96.835 353.099 96.835C350.804 96.835 350.174 99.805 350.174 105.88ZM373.907 118.975C373.907 120.685 372.017 121.27 370.217 121.27C368.777 121.27 367.427 120.91 367.067 120.46C366.482 119.65 366.572 116.77 366.617 115.645C366.797 107.5 366.752 99.355 366.977 91.21C366.977 88.96 372.512 88.555 374.042 88.555C376.652 88.555 379.262 89.23 381.512 90.895C386.282 94.405 386.372 105.745 382.052 110.47C383.582 113.485 383.717 114.25 384.482 116.14C385.337 118.3 386.597 120.82 384.842 121C384.437 121.045 382.907 121.18 381.422 121.18C379.712 121.18 378.047 121 377.957 120.37C377.687 118.39 376.337 114.745 375.707 112.135C374.987 112.27 373.907 113.215 373.907 113.215V118.975ZM374.087 104.98C379.082 105.385 380.297 96.25 374.087 96.97C374.042 99.67 374.087 104.98 374.087 104.98Z" fill="#FEF8E8"/>
</g>
<defs>
<filter id="filter0_d_486_2" x="0" y="0" width="504.156" height="159" filterUnits="userSpaceOnUse" color-interpolation-filters="sRGB">
<feFlood flood-opacity="0" result="BackgroundImageFix"/>
<feColorMatrix in="SourceAlpha" type="matrix" values="0 0 0 0 0 0 0 0 0 0 0 0 0 0 0 0 0 0 127 0" result="hardAlpha"/>
<feOffset dy="4"/>
<feGaussianBlur stdDeviation="2"/>
<feComposite in2="hardAlpha" operator="out"/>
<feColorMatrix type="matrix" values="0 0 0 0 0 0 0 0 0 0 0 0 0 0 0 0 0 0 0.25 0"/>
<feBlend mode="normal" in2="BackgroundImageFix" result="effect1_dropShadow_486_2"/>
<feBlend mode="normal" in="SourceGraphic" in2="effect1_dropShadow_486_2" result="shape"/>
</filter>
</defs>
</svg>
