<svg width="420" height="159" viewBox="0 0 420 159" fill="none" xmlns="http://www.w3.org/2000/svg">
<g filter="url(#filter0_d_486_2)">
<path d="M4 10C4 4.47715 8.47715 0 14 0H406C411.523 0 416 4.47715 416 10V141C416 146.523 411.523 151 406 151H14C8.47715 151 4 146.523 4 141V10Z" fill="black"/>
<path d="M34.7596 49.675C33.9496 51.16 32.7796 51.88 31.6996 51.88C30.3496 51.88 29.0446 50.71 28.6846 48.37C28.0996 44.86 29.8546 41.98 32.2396 41.98C32.5546 41.98 32.8246 42.025 33.1396 42.115C35.4346 42.79 36.2446 46.975 34.7596 49.675ZM38.4946 71.14C36.7846 73.345 33.5446 74.695 30.7996 74.695C29.8096 74.695 28.8196 74.47 27.8746 73.93C24.9946 72.175 23.4196 69.97 23.4196 66.505C23.4196 62.905 24.4096 59.935 27.1546 57.55C27.4696 57.235 27.8746 56.965 28.1896 56.605C28.5046 56.335 28.8196 55.975 29.0446 55.525C29.2246 55.03 29.2696 54.4 29.4046 53.86C29.6296 53.185 30.0796 53.05 30.7096 52.96C31.4746 52.87 32.2846 52.87 33.0946 52.825C33.7246 52.825 34.4896 52.825 34.9396 53.365C35.1196 53.635 35.2546 54.085 35.2996 54.49C35.3896 55.12 35.3446 55.75 35.3446 56.335C35.2546 57.415 34.9396 58.54 34.4446 59.35C33.7696 60.43 32.9146 61.24 32.1946 62.23C31.6996 62.815 31.2946 63.58 31.1596 64.435C30.8446 65.92 31.5196 67.495 32.5546 67.36C33.0046 67.27 33.4546 67 33.7246 66.505C33.9496 66.145 33.9046 65.56 34.0846 65.155C34.1746 64.795 34.4896 64.48 34.7146 64.39C35.0746 64.3 35.4346 64.255 35.7496 64.21C37.0096 64.165 38.3146 64.165 39.6196 64.3C40.8796 64.435 40.1596 67.99 39.6646 69.295C39.3946 70.06 38.9896 70.645 38.4946 71.14ZM63.4306 68.665C62.8456 69.25 60.0106 69.565 59.2906 69.565C58.6156 69.565 57.9856 69.43 57.5356 68.89C57.0856 68.35 56.7706 67.675 56.4106 67C55.3306 67.495 54.1606 67.765 53.0356 67.765C49.1656 67.765 45.2956 64.975 43.4506 59.53C42.5956 57.145 42.2356 54.49 42.2356 51.88C42.2356 41.845 46.1956 34.78 52.8556 34.78C61.4956 34.78 63.1156 43.645 63.3856 50.485C63.5656 54.13 63.0256 57.91 61.5856 61.285C61.4056 61.69 61.2256 62.05 61.0456 62.41C61.4056 63.085 61.7656 63.76 62.1256 64.48C62.4406 65.065 62.7556 65.65 63.1156 66.235C63.3856 66.685 63.6106 67.18 63.7006 67.765C63.7456 68.08 63.6106 68.485 63.4306 68.665ZM50.1106 51.88C50.1106 56.2 50.8306 59.8 53.2606 59.8C56.0506 59.665 56.3656 55.525 56.0506 50.62C55.8256 46.795 55.3756 42.835 53.0356 42.835C50.7406 42.835 50.1106 45.805 50.1106 51.88ZM87.0208 59.035C85.9408 64.345 83.1058 67.36 77.7058 67.36C74.0158 67.36 70.0108 66.37 68.2108 62.545C66.1408 58.135 66.5458 42.34 66.7258 37.03C66.7708 35.185 68.4358 35.635 69.7408 35.59C70.1908 35.545 71.1358 35.365 71.9008 35.365C72.4858 35.365 72.9808 35.455 73.2058 35.815C73.7908 36.67 73.6108 39.775 73.5208 40.99C73.3408 45.445 73.6108 51.34 73.7908 55.75C73.8808 58.225 75.1408 59.305 76.4908 59.305C78.1108 59.305 79.7758 57.865 79.7758 55.525C79.7758 51.88 79.4608 40.405 79.7758 36.76C79.9558 34.96 81.6658 35.41 82.9258 35.41C83.6908 35.455 85.8508 35.14 86.4358 35.95C87.0658 36.85 86.7958 40.54 86.8408 41.845C86.9308 44.725 87.6058 56.29 87.0208 59.035ZM101.25 32.665C100.98 32.89 100.665 32.935 100.305 32.935C99.5399 32.935 98.1899 32.62 97.7399 32.035C97.6049 31.81 97.5599 31.54 97.6049 31.27C97.6049 30.775 97.7849 30.28 97.9649 29.83C98.3249 28.975 98.6849 28.075 99.0449 27.175C99.2699 26.59 99.4499 26.05 99.6749 25.465C99.7649 25.195 99.9449 24.925 100.125 24.79C100.305 24.7 100.44 24.655 100.62 24.61C101.205 24.61 101.79 24.7 102.375 24.745C103.14 24.79 103.905 24.79 104.625 24.7C104.94 24.7 105.12 25.15 104.94 25.465C104.895 25.51 104.85 25.555 104.85 25.6C104.805 25.735 104.535 26.185 104.49 26.32C103.77 27.85 103.185 29.515 102.51 31.045C102.195 31.675 101.79 32.35 101.25 32.665ZM104.04 67.135C101.025 67.135 97.9649 67.315 94.9499 67.27C93.8699 67.27 92.4299 67.18 91.5749 66.415C91.3499 66.19 91.1699 65.875 91.0799 65.515C90.8999 65.065 90.8549 64.57 90.8549 64.075C90.7649 63.49 90.7649 62.86 90.7649 62.23C90.7649 59.035 90.8099 55.885 90.8549 52.735C90.9899 49.18 91.2149 45.625 91.1699 42.115C91.1249 40.27 91.0799 38.425 91.3049 36.67C91.3499 36.355 91.3949 36.04 91.5299 35.815C91.6199 35.545 91.8449 35.365 92.0249 35.32C92.4299 35.14 92.8799 35.185 93.2849 35.23C94.0949 35.275 94.9499 35.365 95.7599 35.41C97.0199 35.5 98.2799 35.545 99.5399 35.545C101.34 35.545 103.14 35.455 104.94 35.23C105.525 35.14 106.11 35.05 106.74 35.05C107.01 35.05 107.37 35.23 107.37 35.545C107.46 35.905 107.46 36.355 107.505 36.76C107.55 38.29 107.685 39.865 107.64 41.44C107.595 41.755 107.55 42.07 107.46 42.385C107.37 42.7 107.19 42.97 107.01 43.15C106.695 43.375 106.29 43.465 105.93 43.51C104.58 43.6 103.23 43.69 101.88 43.69C101.205 43.645 100.53 43.555 99.8099 43.465C98.7299 43.465 98.7299 44.005 98.7299 44.995C98.7299 45.535 98.6849 47.065 98.9549 47.47C99.0449 47.605 99.4499 47.605 99.5849 47.65C100.71 47.65 101.79 47.56 102.915 47.425C103.5 47.335 104.085 47.245 104.715 47.2C106.02 47.2 106.605 47.695 106.695 49C106.74 49.81 106.695 50.62 106.65 51.43C106.65 53.725 106.56 55.165 103.86 55.435C102.6 55.48 101.34 55.39 100.08 55.21C99.7649 55.165 99.4049 55.12 99.0899 55.255C98.7299 55.435 98.6399 56.425 98.6399 57.01C98.6399 57.505 98.6399 58.855 98.9099 59.17C99.0449 59.395 99.6299 59.44 99.8099 59.44C101.61 59.395 103.365 58.855 105.12 58.855C105.57 58.855 105.975 58.855 106.38 58.945C107.01 59.17 107.325 59.35 107.46 60.025C107.595 60.7 107.595 61.42 107.64 62.14C107.64 63.13 107.595 64.165 107.46 65.155C107.46 65.425 107.415 65.74 107.325 66.01C107.145 66.46 106.74 66.775 106.425 66.91C105.66 67.225 104.85 67.135 104.04 67.135ZM139.191 58.405C139.146 65.695 133.386 67.45 129.201 67.45C124.836 67.45 119.436 66.37 119.931 59.035C120.066 57.1 121.956 56.47 123.666 56.47C125.151 56.47 126.501 56.965 126.501 57.55C126.681 60.115 127.806 60.385 129.201 60.385C131.766 60.385 132.936 56.605 129.651 55.57C126.906 54.76 123.711 54.265 121.776 51.385C117.636 45.13 122.676 35.275 128.706 35.275C132.756 35.275 137.796 35.995 137.796 44.095C137.796 45.085 136.311 45.535 134.736 45.535C133.026 45.535 131.181 44.995 131.226 44.005C131.271 42.205 130.371 41.35 129.381 41.35C128.346 41.35 127.221 42.34 127.221 44.005C127.221 49.225 139.236 47.2 139.191 58.405ZM148.799 59.935C148.844 62.095 149.204 67.045 147.809 67.045H143.354C141.734 67.045 142.229 64.165 142.229 59.35V42.61C142.229 36.94 142.139 35.365 143.939 35.365C144.434 35.365 145.649 35.185 146.684 35.185C147.494 35.185 148.214 35.275 148.484 35.635C149.429 36.85 148.934 41.305 148.889 43.105C148.754 48.685 148.754 54.31 148.799 59.935ZM147.404 32.665C147.089 32.89 146.774 32.935 146.414 32.935C145.829 32.935 144.974 32.71 144.434 32.485C143.894 32.215 143.714 31.855 143.714 31.27C143.759 30.775 143.939 30.28 144.119 29.83C144.479 28.975 144.839 28.075 145.154 27.175C145.379 26.59 145.604 26.05 145.829 25.465C146.009 24.88 146.234 24.745 146.774 24.61C147.359 24.61 147.944 24.7 148.484 24.745C149.249 24.79 150.014 24.79 150.779 24.7C151.049 24.7 151.274 25.15 151.049 25.465C151.004 25.51 150.959 25.555 150.959 25.6C150.914 25.735 150.644 26.185 150.599 26.32C149.879 27.85 149.339 29.515 148.619 31.045C148.349 31.675 147.944 32.35 147.404 32.665ZM159.656 63.85C159.656 65.56 159.656 67.36 157.451 67.36C156.281 67.36 155.066 67.09 153.941 66.82C153.221 66.64 153.086 66.325 152.996 65.605C152.906 64.75 152.906 63.895 152.906 63.04C152.996 60.475 153.131 57.91 153.131 55.345C153.176 53.005 153.176 50.665 153.131 48.37C153.086 45.805 152.906 43.285 152.861 40.72C152.861 39.64 152.771 36.625 153.311 35.86C153.446 35.635 153.626 35.5 153.851 35.455C154.076 35.41 154.301 35.455 154.571 35.5C155.561 35.545 156.551 35.455 157.541 35.23C157.856 35.185 158.261 35.05 158.576 35.185C158.666 35.23 158.801 35.5 158.846 35.545C159.521 36.625 160.061 37.93 160.691 39.145C161.726 41.305 163.121 43.195 164.201 45.31C165.011 46.75 165.641 48.28 166.361 49.765C166.361 48.73 166.271 47.695 166.271 46.615C166.226 45.175 166.226 43.78 166.181 42.34C166.136 40.855 166.046 39.37 166.136 37.885C166.181 37.075 166.361 36.13 167.036 35.59C167.396 35.41 167.801 35.365 168.161 35.365C169.196 35.365 170.231 35.41 171.266 35.41C171.671 35.41 172.121 35.41 172.481 35.545C172.661 35.635 172.841 35.815 172.976 36.04C173.111 36.355 173.156 36.805 173.156 37.21C173.156 38.2 173.111 39.19 173.111 40.135C173.066 41.305 173.111 42.43 173.111 43.555C173.111 46.885 173.066 50.215 173.156 53.545C173.156 55.66 173.246 57.73 173.201 59.8C173.156 61.51 173.021 63.175 172.841 64.84C172.841 65.335 172.751 65.875 172.661 66.325C172.571 66.595 172.436 66.91 172.211 67.045C172.076 67.18 171.851 67.18 171.626 67.18C170.726 67.225 169.781 67.225 168.881 67.135C168.476 67.09 168.026 67.045 167.666 66.775C167.306 66.55 167.081 66.055 166.901 65.65C166.631 65.11 166.451 64.615 166.226 64.075C164.876 60.97 163.121 58.315 161.591 55.39C160.916 54.04 160.331 52.555 159.566 51.295C159.521 53.32 159.656 55.345 159.656 57.37V60.295C159.656 61.465 159.701 62.635 159.656 63.85ZM187.066 66.82C186.346 66.91 185.671 66.91 184.951 66.91C184.456 66.91 184.006 66.91 183.511 66.865C183.196 66.865 182.836 66.82 182.521 66.64C182.341 66.505 182.116 66.28 182.026 66.01C181.801 65.47 181.711 64.795 181.711 64.165C181.531 61.105 181.846 58.09 181.981 55.03C182.071 51.655 182.071 49.135 181.891 45.805C181.846 45.22 181.846 44.095 181.441 43.915C181.306 43.825 181.081 43.825 180.946 43.825C180.001 43.915 179.101 44.23 178.201 44.23C177.571 44.23 176.896 44.095 176.491 43.645C176.221 43.285 176.086 42.79 176.041 42.295C175.861 41.125 175.816 39.055 175.906 37.84C175.951 37.21 175.996 36.49 176.221 35.905C176.311 35.59 176.536 35.32 176.761 35.23C176.941 35.14 177.121 35.095 177.301 35.095C178.471 34.96 179.596 35.005 180.766 35.005C182.476 35.05 184.186 35.005 185.896 35.05H186.121C186.931 34.96 187.741 34.96 188.551 34.915C189.406 34.87 190.261 34.78 191.116 34.78C191.881 34.735 192.691 34.735 193.456 34.96C193.771 35.05 194.086 35.23 194.356 35.59C194.581 35.95 194.671 36.535 194.671 37.03C194.716 38.02 194.671 38.965 194.626 39.955C194.626 40.585 194.491 42.295 194.086 42.79C193.906 43.06 193.591 43.24 193.366 43.285C192.511 43.6 191.611 43.6 190.756 43.555C190.216 43.555 189.721 43.465 189.181 43.465C189.091 43.465 188.866 43.465 188.776 43.555C188.686 43.69 188.641 44.185 188.641 44.365C188.551 45.49 188.596 46.615 188.551 47.695C188.551 49.495 188.596 51.295 188.596 53.095C188.596 54.895 188.551 56.695 188.641 58.495C188.641 60.475 188.866 62.5 188.641 64.48C188.506 65.515 188.281 66.685 187.066 66.82ZM214.997 61.285C213.152 65.605 209.822 67.765 206.447 67.765C202.577 67.765 198.707 64.975 196.862 59.53C196.007 57.145 195.647 54.49 195.647 51.88C195.647 41.845 199.607 34.78 206.267 34.78C214.862 34.78 216.527 43.645 216.797 50.485C216.977 54.13 216.437 57.91 214.997 61.285ZM203.522 51.88C203.522 56.335 204.287 60.16 206.807 59.8C209.642 59.305 209.687 53.905 209.462 50.62C209.237 46.795 208.787 42.835 206.447 42.835C204.152 42.835 203.522 45.805 203.522 51.88ZM246.29 64.93C246.38 66.28 244.31 67.09 242.555 67.09C241.25 67.09 240.125 66.64 240.17 65.65C240.26 60.52 239.99 55.345 239.9 50.17C238.37 55.795 237.245 60.025 235.85 65.56C235.625 66.415 234.365 66.955 233.15 66.955C232.025 66.955 230.945 66.55 230.72 65.56C230.36 64.12 229.46 60.61 229.1 59.125C228.29 55.705 227.525 52.87 226.49 49.54C226.445 53.545 226.49 56.56 226.49 61.015C226.49 63.895 226.895 67.045 224.915 66.865C224.15 66.82 221.54 67.135 220.91 66.55C219.92 65.605 220.19 61.6 220.19 59.935C220.145 53.68 220.19 49.135 219.965 42.88C219.875 40.54 219.83 35.365 221.495 35.41C222.575 35.41 224.285 35.005 225.77 35.005C227.075 35.005 228.2 35.32 228.515 36.445C230.405 42.7 231.89 47.56 233.465 52.42C234.32 48.64 235.67 45.13 236.66 41.395C237.02 40 237.56 35.77 238.505 35.095C239.135 34.6 241.97 34.735 242.69 34.735C243.545 34.735 245.705 34.6 246.29 35.455C246.605 35.995 246.47 37.84 246.425 38.56C246.155 43.735 246.155 49 246.29 54.22C246.47 59.755 246.155 62.05 246.29 64.93ZM256.319 67.27C256.004 67.45 255.329 67.54 254.609 67.54C253.169 67.54 251.324 67.27 250.694 67.225C247.679 66.955 248.984 65.425 250.964 58.045C252.944 50.755 254.429 44.86 256.319 37.525C257.039 34.87 258.254 35.14 261.224 35.14C264.554 35.14 265.094 35.095 265.679 37.66C268.109 48.28 269.819 55.975 272.204 65.02C272.474 66.01 272.339 66.82 271.619 67C270.944 67.135 269.189 67.36 267.704 67.36C266.804 67.36 265.994 67.27 265.589 67.045C264.599 66.46 264.599 61.24 263.294 61.24C261.539 61.195 260.369 61.105 258.614 61.24C257.039 61.375 257.804 66.415 256.319 67.27ZM259.154 53.77C259.739 53.86 260.414 53.905 261.089 53.905C261.719 53.905 262.304 53.86 262.799 53.77C262.439 51.7 261.134 46.48 260.909 44.95C260.369 47.92 259.739 50.845 259.154 53.77ZM293.395 58.405C293.35 65.695 287.59 67.45 283.405 67.45C279.04 67.45 273.64 66.37 274.135 59.035C274.27 57.1 276.16 56.47 277.87 56.47C279.355 56.47 280.705 56.965 280.705 57.55C280.885 60.115 282.01 60.385 283.405 60.385C285.97 60.385 287.14 56.605 283.855 55.57C281.11 54.76 277.915 54.265 275.98 51.385C271.84 45.13 276.88 35.275 282.91 35.275C286.96 35.275 292 35.995 292 44.095C292 45.085 290.515 45.535 288.94 45.535C287.23 45.535 285.385 44.995 285.43 44.005C285.475 42.205 284.575 41.35 283.585 41.35C282.55 41.35 281.425 42.34 281.425 44.005C281.425 49.225 293.44 47.2 293.395 58.405ZM315.781 66.82C315.061 66.91 314.386 66.91 313.666 66.91C313.171 66.91 312.721 66.91 312.226 66.865C311.911 66.865 311.551 66.82 311.236 66.64C311.056 66.505 310.831 66.28 310.741 66.01C310.516 65.47 310.426 64.795 310.426 64.165C310.246 61.105 310.561 58.09 310.696 55.03C310.786 51.655 310.786 49.135 310.606 45.805C310.561 45.22 310.561 44.095 310.156 43.915C310.021 43.825 309.796 43.825 309.661 43.825C308.716 43.915 307.816 44.23 306.916 44.23C306.286 44.23 305.611 44.095 305.206 43.645C304.936 43.285 304.801 42.79 304.756 42.295C304.576 41.125 304.531 39.055 304.621 37.84C304.666 37.21 304.711 36.49 304.936 35.905C305.026 35.59 305.251 35.32 305.476 35.23C305.656 35.14 305.836 35.095 306.016 35.095C307.186 34.96 308.311 35.005 309.481 35.005C311.191 35.05 312.901 35.005 314.611 35.05H314.836C315.646 34.96 316.456 34.96 317.266 34.915C318.121 34.87 318.976 34.78 319.831 34.78C320.596 34.735 321.406 34.735 322.171 34.96C322.486 35.05 322.801 35.23 323.071 35.59C323.296 35.95 323.386 36.535 323.386 37.03C323.431 38.02 323.386 38.965 323.341 39.955C323.341 40.585 323.206 42.295 322.801 42.79C322.621 43.06 322.306 43.24 322.081 43.285C321.226 43.6 320.326 43.6 319.471 43.555C318.931 43.555 318.436 43.465 317.896 43.465C317.806 43.465 317.581 43.465 317.491 43.555C317.401 43.69 317.356 44.185 317.356 44.365C317.266 45.49 317.311 46.615 317.266 47.695C317.266 49.495 317.311 51.295 317.311 53.095C317.311 54.895 317.266 56.695 317.356 58.495C317.356 60.475 317.581 62.5 317.356 64.48C317.221 65.515 316.996 66.685 315.781 66.82ZM332.666 59.935C332.711 62.095 333.071 67.045 331.676 67.045H327.221C325.601 67.045 326.096 64.165 326.096 59.35V42.61C326.096 36.94 326.006 35.365 327.806 35.365C328.301 35.365 329.516 35.185 330.551 35.185C331.361 35.185 332.081 35.275 332.351 35.635C333.296 36.85 332.801 41.305 332.756 43.105C332.621 48.685 332.621 54.31 332.666 59.935ZM349.87 67.135C346.855 67.135 343.795 67.315 340.78 67.27C339.7 67.27 338.26 67.18 337.405 66.415C337.18 66.19 337 65.875 336.91 65.515C336.73 65.065 336.685 64.57 336.685 64.075C336.595 63.49 336.595 62.86 336.595 62.23C336.595 59.035 336.64 55.885 336.685 52.735C336.82 49.18 337.045 45.625 337 42.115C336.955 40.27 336.91 38.425 337.135 36.67C337.18 36.355 337.225 36.04 337.36 35.815C337.45 35.545 337.675 35.365 337.855 35.32C338.26 35.14 338.71 35.185 339.115 35.23C339.925 35.275 340.78 35.365 341.59 35.41C342.85 35.5 344.11 35.545 345.37 35.545C347.17 35.545 348.97 35.455 350.77 35.23C351.355 35.14 351.94 35.05 352.57 35.05C352.84 35.05 353.2 35.23 353.2 35.545C353.29 35.905 353.29 36.355 353.335 36.76C353.38 38.29 353.515 39.865 353.47 41.44C353.425 41.755 353.38 42.07 353.29 42.385C353.2 42.7 353.02 42.97 352.84 43.15C352.525 43.375 352.12 43.465 351.76 43.51C350.41 43.6 349.06 43.69 347.71 43.69C347.035 43.645 346.36 43.555 345.64 43.465C344.56 43.465 344.56 44.005 344.56 44.995C344.56 45.535 344.515 47.065 344.785 47.47C344.875 47.605 345.28 47.605 345.415 47.65C346.54 47.65 347.62 47.56 348.745 47.425C349.33 47.335 349.915 47.245 350.545 47.2C351.85 47.2 352.435 47.695 352.525 49C352.57 49.81 352.525 50.62 352.48 51.43C352.48 53.725 352.39 55.165 349.69 55.435C348.43 55.48 347.17 55.39 345.91 55.21C345.595 55.165 345.235 55.12 344.92 55.255C344.56 55.435 344.47 56.425 344.47 57.01C344.47 57.505 344.47 58.855 344.74 59.17C344.875 59.395 345.46 59.44 345.64 59.44C347.44 59.395 349.195 58.855 350.95 58.855C351.4 58.855 351.805 58.855 352.21 58.945C352.84 59.17 353.155 59.35 353.29 60.025C353.425 60.7 353.425 61.42 353.47 62.14C353.47 63.13 353.425 64.165 353.29 65.155C353.29 65.425 353.245 65.74 353.155 66.01C352.975 66.46 352.57 66.775 352.255 66.91C351.49 67.225 350.68 67.135 349.87 67.135ZM363.738 63.85C363.738 65.56 363.738 67.36 361.533 67.36C360.363 67.36 359.148 67.09 358.023 66.82C357.303 66.64 357.168 66.325 357.078 65.605C356.988 64.75 356.988 63.895 356.988 63.04C357.078 60.475 357.213 57.91 357.213 55.345C357.258 53.005 357.258 50.665 357.213 48.37C357.168 45.805 356.988 43.285 356.943 40.72C356.943 39.64 356.853 36.625 357.393 35.86C357.528 35.635 357.708 35.5 357.933 35.455C358.158 35.41 358.383 35.455 358.653 35.5C359.643 35.545 360.633 35.455 361.623 35.23C361.938 35.185 362.343 35.05 362.658 35.185C362.748 35.23 362.883 35.5 362.928 35.545C363.603 36.625 364.143 37.93 364.773 39.145C365.808 41.305 367.203 43.195 368.283 45.31C369.093 46.75 369.723 48.28 370.443 49.765C370.443 48.73 370.353 47.695 370.353 46.615C370.308 45.175 370.308 43.78 370.263 42.34C370.218 40.855 370.128 39.37 370.218 37.885C370.263 37.075 370.443 36.13 371.118 35.59C371.478 35.41 371.883 35.365 372.243 35.365C373.278 35.365 374.313 35.41 375.348 35.41C375.753 35.41 376.203 35.41 376.563 35.545C376.743 35.635 376.923 35.815 377.058 36.04C377.193 36.355 377.238 36.805 377.238 37.21C377.238 38.2 377.193 39.19 377.193 40.135C377.148 41.305 377.193 42.43 377.193 43.555C377.193 46.885 377.148 50.215 377.238 53.545C377.238 55.66 377.328 57.73 377.283 59.8C377.238 61.51 377.103 63.175 376.923 64.84C376.923 65.335 376.833 65.875 376.743 66.325C376.653 66.595 376.518 66.91 376.293 67.045C376.158 67.18 375.933 67.18 375.708 67.18C374.808 67.225 373.863 67.225 372.963 67.135C372.558 67.09 372.108 67.045 371.748 66.775C371.388 66.55 371.163 66.055 370.983 65.65C370.713 65.11 370.533 64.615 370.308 64.075C368.958 60.97 367.203 58.315 365.673 55.39C364.998 54.04 364.413 52.555 363.648 51.295C363.603 53.32 363.738 55.345 363.738 57.37V60.295C363.738 61.465 363.783 62.635 363.738 63.85ZM394.343 67.135C391.328 67.135 388.268 67.315 385.253 67.27C384.173 67.27 382.733 67.18 381.878 66.415C381.653 66.19 381.473 65.875 381.383 65.515C381.203 65.065 381.158 64.57 381.158 64.075C381.068 63.49 381.068 62.86 381.068 62.23C381.068 59.035 381.113 55.885 381.158 52.735C381.293 49.18 381.518 45.625 381.473 42.115C381.428 40.27 381.383 38.425 381.608 36.67C381.653 36.355 381.698 36.04 381.833 35.815C381.923 35.545 382.148 35.365 382.328 35.32C382.733 35.14 383.183 35.185 383.588 35.23C384.398 35.275 385.253 35.365 386.063 35.41C387.323 35.5 388.583 35.545 389.843 35.545C391.643 35.545 393.443 35.455 395.243 35.23C395.828 35.14 396.413 35.05 397.043 35.05C397.313 35.05 397.673 35.23 397.673 35.545C397.763 35.905 397.763 36.355 397.808 36.76C397.853 38.29 397.988 39.865 397.943 41.44C397.898 41.755 397.853 42.07 397.763 42.385C397.673 42.7 397.493 42.97 397.313 43.15C396.998 43.375 396.593 43.465 396.233 43.51C394.883 43.6 393.533 43.69 392.183 43.69C391.508 43.645 390.833 43.555 390.113 43.465C389.033 43.465 389.033 44.005 389.033 44.995C389.033 45.535 388.988 47.065 389.258 47.47C389.348 47.605 389.753 47.605 389.888 47.65C391.013 47.65 392.093 47.56 393.218 47.425C393.803 47.335 394.388 47.245 395.018 47.2C396.323 47.2 396.908 47.695 396.998 49C397.043 49.81 396.998 50.62 396.953 51.43C396.953 53.725 396.863 55.165 394.163 55.435C392.903 55.48 391.643 55.39 390.383 55.21C390.068 55.165 389.708 55.12 389.393 55.255C389.033 55.435 388.943 56.425 388.943 57.01C388.943 57.505 388.943 58.855 389.213 59.17C389.348 59.395 389.933 59.44 390.113 59.44C391.913 59.395 393.668 58.855 395.423 58.855C395.873 58.855 396.278 58.855 396.683 58.945C397.313 59.17 397.628 59.35 397.763 60.025C397.898 60.7 397.898 61.42 397.943 62.14C397.943 63.13 397.898 64.165 397.763 65.155C397.763 65.425 397.718 65.74 397.628 66.01C397.448 66.46 397.043 66.775 396.728 66.91C395.963 67.225 395.153 67.135 394.343 67.135ZM93.2169 121.135C90.3369 121.36 87.3669 120.91 84.2619 120.91C83.3169 120.91 79.9419 121.585 79.9419 118.84C79.9419 116.995 79.8519 112.45 79.8519 110.605C79.7169 104.305 79.3569 97.96 79.6269 91.66C79.7169 89.635 79.9419 89.275 81.2919 89.275C81.9669 89.275 82.9569 89.365 84.3969 89.365C85.1169 89.365 86.2869 89.14 86.5569 90.085C87.3219 92.965 86.9619 104.8 87.0069 107.905C87.0069 109.75 86.7369 112 88.0419 112.09C89.3469 112.135 92.9919 112.09 94.9719 112.09C96.0069 112.09 96.0519 115.915 96.0519 117.355C96.0519 121.225 94.8369 121 93.2169 121.135ZM104.729 121.27C104.414 121.45 103.739 121.54 103.019 121.54C101.579 121.54 99.7342 121.27 99.1042 121.225C96.0892 120.955 97.3942 119.425 99.3742 112.045C101.354 104.755 102.839 98.86 104.729 91.525C105.449 88.87 106.664 89.14 109.634 89.14C112.964 89.14 113.504 89.095 114.089 91.66C116.519 102.28 118.229 109.975 120.614 119.02C120.884 120.01 120.749 120.82 120.029 121C119.354 121.135 117.599 121.36 116.114 121.36C115.214 121.36 114.404 121.27 113.999 121.045C113.009 120.46 113.009 115.24 111.704 115.24C109.949 115.195 108.779 115.105 107.024 115.24C105.449 115.375 106.214 120.415 104.729 121.27ZM107.564 107.77C108.149 107.86 108.824 107.905 109.499 107.905C110.129 107.905 110.714 107.86 111.209 107.77C110.849 105.7 109.544 100.48 109.319 98.95C108.779 101.92 108.149 104.845 107.564 107.77ZM145.854 121.135C142.839 121.135 139.779 121.315 136.764 121.27C135.684 121.27 134.244 121.18 133.389 120.415C133.164 120.19 132.984 119.875 132.894 119.515C132.714 119.065 132.669 118.57 132.669 118.075C132.579 117.49 132.579 116.86 132.579 116.23C132.579 113.035 132.624 109.885 132.669 106.735C132.804 103.18 133.029 99.625 132.984 96.115C132.939 94.27 132.894 92.425 133.119 90.67C133.164 90.355 133.209 90.04 133.344 89.815C133.434 89.545 133.659 89.365 133.839 89.32C134.244 89.14 134.694 89.185 135.099 89.23C135.909 89.275 136.764 89.365 137.574 89.41C138.834 89.5 140.094 89.545 141.354 89.545C143.154 89.545 144.954 89.455 146.754 89.23C147.339 89.14 147.924 89.05 148.554 89.05C148.824 89.05 149.184 89.23 149.184 89.545C149.274 89.905 149.274 90.355 149.319 90.76C149.364 92.29 149.499 93.865 149.454 95.44C149.409 95.755 149.364 96.07 149.274 96.385C149.184 96.7 149.004 96.97 148.824 97.15C148.509 97.375 148.104 97.465 147.744 97.51C146.394 97.6 145.044 97.69 143.694 97.69C143.019 97.645 142.344 97.555 141.624 97.465C140.544 97.465 140.544 98.005 140.544 98.995C140.544 99.535 140.499 101.065 140.769 101.47C140.859 101.605 141.264 101.605 141.399 101.65C142.524 101.65 143.604 101.56 144.729 101.425C145.314 101.335 145.899 101.245 146.529 101.2C147.834 101.2 148.419 101.695 148.509 103C148.554 103.81 148.509 104.62 148.464 105.43C148.464 107.725 148.374 109.165 145.674 109.435C144.414 109.48 143.154 109.39 141.894 109.21C141.579 109.165 141.219 109.12 140.904 109.255C140.544 109.435 140.454 110.425 140.454 111.01C140.454 111.505 140.454 112.855 140.724 113.17C140.859 113.395 141.444 113.44 141.624 113.44C143.424 113.395 145.179 112.855 146.934 112.855C147.384 112.855 147.789 112.855 148.194 112.945C148.824 113.17 149.139 113.35 149.274 114.025C149.409 114.7 149.409 115.42 149.454 116.14C149.454 117.13 149.409 118.165 149.274 119.155C149.274 119.425 149.229 119.74 149.139 120.01C148.959 120.46 148.554 120.775 148.239 120.91C147.474 121.225 146.664 121.135 145.854 121.135ZM171.557 112.405C171.512 119.695 165.752 121.45 161.567 121.45C157.202 121.45 151.802 120.37 152.297 113.035C152.432 111.1 154.322 110.47 156.032 110.47C157.517 110.47 158.867 110.965 158.867 111.55C159.047 114.115 160.172 114.385 161.567 114.385C164.132 114.385 165.302 110.605 162.017 109.57C159.272 108.76 156.077 108.265 154.142 105.385C150.002 99.13 155.042 89.275 161.072 89.275C165.122 89.275 170.162 89.995 170.162 98.095C170.162 99.085 168.677 99.535 167.102 99.535C165.392 99.535 163.547 98.995 163.592 98.005C163.637 96.205 162.737 95.35 161.747 95.35C160.712 95.35 159.587 96.34 159.587 98.005C159.587 103.225 171.602 101.2 171.557 112.405ZM193.72 108.94C193.72 116.95 190.39 121 184.45 121C180.175 121 175.81 118.57 174.415 111.91C172.12 100.75 175.81 88.915 183.955 88.915C190.615 88.915 193.945 93.46 193.945 100.615C193.945 101.92 192.505 102.46 191.02 102.46C189.49 102.46 187.87 101.83 187.87 100.84C187.87 98.185 186.43 97.015 184.765 97.015C179.455 97.015 178.6 113.665 184.81 113.215C186.655 113.08 187.87 111.685 187.645 108.49C187.6 107.275 189.085 106.6 190.57 106.6C192.145 106.6 193.72 107.32 193.72 108.94ZM215.766 115.285C213.921 119.605 210.591 121.765 207.216 121.765C203.346 121.765 199.476 118.975 197.631 113.53C196.776 111.145 196.416 108.49 196.416 105.88C196.416 95.845 200.376 88.78 207.036 88.78C215.631 88.78 217.296 97.645 217.566 104.485C217.746 108.13 217.206 111.91 215.766 115.285ZM204.291 105.88C204.291 110.335 205.056 114.16 207.576 113.8C210.411 113.305 210.456 107.905 210.231 104.62C210.006 100.795 209.556 96.835 207.216 96.835C204.921 96.835 204.291 99.805 204.291 105.88ZM234.369 121.135C231.489 121.36 228.519 120.91 225.414 120.91C224.469 120.91 221.094 121.585 221.094 118.84C221.094 116.995 221.004 112.45 221.004 110.605C220.869 104.305 220.509 97.96 220.779 91.66C220.869 89.635 221.094 89.275 222.444 89.275C223.119 89.275 224.109 89.365 225.549 89.365C226.269 89.365 227.439 89.14 227.709 90.085C228.474 92.965 228.114 104.8 228.159 107.905C228.159 109.75 227.889 112 229.194 112.09C230.499 112.135 234.144 112.09 236.124 112.09C237.159 112.09 237.204 115.915 237.204 117.355C237.204 121.225 235.989 121 234.369 121.135ZM246.512 113.935C246.557 116.095 246.917 121.045 245.522 121.045H241.067C239.447 121.045 239.942 118.165 239.942 113.35V96.61C239.942 90.94 239.852 89.365 241.652 89.365C242.147 89.365 243.362 89.185 244.397 89.185C245.207 89.185 245.927 89.275 246.197 89.635C247.142 90.85 246.647 95.305 246.602 97.105C246.467 102.685 246.467 108.31 246.512 113.935ZM269.115 115.285C267.27 119.605 263.94 121.765 260.565 121.765C256.695 121.765 252.825 118.975 250.98 113.53C250.125 111.145 249.765 108.49 249.765 105.88C249.765 95.845 253.725 88.78 260.385 88.78C268.98 88.78 270.645 97.645 270.915 104.485C271.095 108.13 270.555 111.91 269.115 115.285ZM257.64 105.88C257.64 110.335 258.405 114.16 260.925 113.8C263.76 113.305 263.805 107.905 263.58 104.62C263.355 100.795 262.905 96.835 260.565 96.835C258.27 96.835 257.64 99.805 257.64 105.88ZM292.714 112.405C292.669 119.695 286.909 121.45 282.724 121.45C278.359 121.45 272.959 120.37 273.454 113.035C273.589 111.1 275.479 110.47 277.189 110.47C278.674 110.47 280.024 110.965 280.024 111.55C280.204 114.115 281.329 114.385 282.724 114.385C285.289 114.385 286.459 110.605 283.174 109.57C280.429 108.76 277.234 108.265 275.299 105.385C271.159 99.13 276.199 89.275 282.229 89.275C286.279 89.275 291.319 89.995 291.319 98.095C291.319 99.085 289.834 99.535 288.259 99.535C286.549 99.535 284.704 98.995 284.749 98.005C284.794 96.205 283.894 95.35 282.904 95.35C281.869 95.35 280.744 96.34 280.744 98.005C280.744 103.225 292.759 101.2 292.714 112.405ZM302.322 113.935C302.367 116.095 302.727 121.045 301.332 121.045H296.877C295.257 121.045 295.752 118.165 295.752 113.35V96.61C295.752 90.94 295.662 89.365 297.462 89.365C297.957 89.365 299.172 89.185 300.207 89.185C301.017 89.185 301.737 89.275 302.007 89.635C302.952 90.85 302.457 95.305 302.412 97.105C302.277 102.685 302.277 108.31 302.322 113.935ZM324.926 112.405C324.881 119.695 319.121 121.45 314.936 121.45C310.571 121.45 305.171 120.37 305.666 113.035C305.801 111.1 307.691 110.47 309.401 110.47C310.886 110.47 312.236 110.965 312.236 111.55C312.416 114.115 313.541 114.385 314.936 114.385C317.501 114.385 318.671 110.605 315.386 109.57C312.641 108.76 309.446 108.265 307.511 105.385C303.371 99.13 308.411 89.275 314.441 89.275C318.491 89.275 323.531 89.995 323.531 98.095C323.531 99.085 322.046 99.535 320.471 99.535C318.761 99.535 316.916 98.995 316.961 98.005C317.006 96.205 316.106 95.35 315.116 95.35C314.081 95.35 312.956 96.34 312.956 98.005C312.956 103.225 324.971 101.2 324.926 112.405ZM333.34 110.74C333.07 110.74 332.8 110.695 332.485 110.695C331.585 110.56 331.225 109.93 331.135 109.075C331.09 108.445 331.09 107.815 331.135 107.185C331.225 106.105 331.54 105.025 332.035 104.215C332.665 103.135 333.52 102.325 334.285 101.335C334.735 100.75 335.185 99.985 335.32 99.13C335.59 97.69 335.005 96.205 334.015 96.205C333.475 96.205 332.98 96.61 332.71 97.06C332.53 97.42 332.53 97.96 332.395 98.41C332.26 98.77 331.99 99.04 331.72 99.175C331.405 99.265 331.045 99.31 330.685 99.31C329.425 99.4 328.12 99.4 326.86 99.265C325.555 99.13 326.275 95.575 326.815 94.225C327.985 91.12 332.35 88.825 335.5 88.825C336.535 88.825 337.615 89.095 338.56 89.635C341.395 91.165 343.06 93.73 343.06 97.015C342.97 100.615 342.115 103.63 339.325 106.015C338.965 106.33 338.56 106.6 338.245 106.96C337.93 107.23 337.615 107.59 337.435 108.04C337.255 108.535 337.21 109.165 337.075 109.66C336.985 109.93 336.805 110.2 336.625 110.335C336.355 110.515 336.04 110.56 335.77 110.605C334.96 110.695 334.15 110.695 333.34 110.74ZM337.795 115.15C338.38 118.705 336.58 121.585 334.195 121.585C333.88 121.585 333.61 121.54 333.295 121.45C331 120.775 330.235 116.545 331.72 113.89C332.53 112.405 333.655 111.685 334.735 111.685C336.13 111.685 337.39 112.855 337.795 115.15Z" fill="#FEF8E8"/>
</g>
<defs>
<filter id="filter0_d_486_2" x="0" y="0" width="420" height="159" filterUnits="userSpaceOnUse" color-interpolation-filters="sRGB">
<feFlood flood-opacity="0" result="BackgroundImageFix"/>
<feColorMatrix in="SourceAlpha" type="matrix" values="0 0 0 0 0 0 0 0 0 0 0 0 0 0 0 0 0 0 127 0" result="hardAlpha"/>
<feOffset dy="4"/>
<feGaussianBlur stdDeviation="2"/>
<feComposite in2="hardAlpha" operator="out"/>
<feColorMatrix type="matrix" values="0 0 0 0 0 0 0 0 0 0 0 0 0 0 0 0 0 0 0.25 0"/>
<feBlend mode="normal" in2="BackgroundImageFix" result="effect1_dropShadow_486_2"/>
<feBlend mode="normal" in="SourceGraphic" in2="effect1_dropShadow_486_2" result="shape"/>
</filter>
</defs>
</svg>
