<svg width="353" height="91" viewBox="0 0 353 91" fill="none" xmlns="http://www.w3.org/2000/svg">
<g filter="url(#filter0_d_470_45)">
<path d="M4 10C4 4.47715 8.47715 0 14 0H339C344.523 0 349 4.47715 349 10V73C349 78.5228 344.523 83 339 83H14C8.47715 83 4 78.5228 4 73V10Z" fill="#FEBEAD"/>
<path d="M43.5743 49.023C43.5273 56.637 37.5113 58.47 33.1403 58.47C28.5813 58.47 22.9413 57.342 23.4583 49.681C23.5993 47.66 25.5733 47.002 27.3593 47.002C28.9103 47.002 30.3203 47.519 30.3203 48.13C30.5083 50.809 31.6833 51.091 33.1873 51.091C35.8193 51.091 37.0413 47.143 33.6103 46.062C30.7433 45.216 27.4063 44.699 25.3853 41.691C21.0613 35.158 26.3253 24.865 32.6233 24.865C36.8533 24.865 42.1173 25.617 42.1173 34.077C42.1173 35.111 40.5663 35.581 38.9213 35.581C37.1353 35.581 35.2083 35.017 35.2553 33.983C35.3023 32.103 34.3623 31.21 33.3283 31.21C32.2473 31.21 31.0723 32.244 31.0723 33.983C31.0723 39.435 43.6213 37.32 43.5743 49.023ZM53.791 50.621C53.838 52.877 54.214 58.047 52.757 58.047H48.104C46.412 58.047 46.929 55.039 46.929 50.01V32.526C46.929 26.604 46.835 24.959 48.715 24.959C49.232 24.959 50.501 24.771 51.582 24.771C52.428 24.771 53.18 24.865 53.462 25.241C54.449 26.51 53.932 31.163 53.885 33.043C53.744 38.871 53.744 44.746 53.791 50.621ZM77.3993 49.023C77.3523 56.637 71.3363 58.47 66.9653 58.47C62.4063 58.47 56.7663 57.342 57.2833 49.681C57.4243 47.66 59.3983 47.002 61.1843 47.002C62.7353 47.002 64.1453 47.519 64.1453 48.13C64.3333 50.809 65.5083 51.091 66.9653 51.091C69.6443 51.091 70.8663 47.143 67.4353 46.062C64.5683 45.216 61.2313 44.699 59.2103 41.691C54.8863 35.158 60.1503 24.865 66.4483 24.865C70.6783 24.865 75.9423 25.617 75.9423 34.077C75.9423 35.111 74.3913 35.581 72.7463 35.581C70.9603 35.581 69.0333 35.017 69.0803 33.983C69.1273 32.103 68.1873 31.21 67.1533 31.21C66.0723 31.21 64.8973 32.244 64.8973 33.983C64.8973 39.435 77.4463 37.32 77.3993 49.023ZM90.1322 57.812C89.3802 57.906 88.6752 57.906 87.9232 57.906C87.4062 57.906 86.9362 57.906 86.4192 57.859C86.0902 57.859 85.7142 57.812 85.3852 57.624C85.1972 57.483 84.9622 57.248 84.8682 56.966C84.6332 56.402 84.5392 55.697 84.5392 55.039C84.3512 51.843 84.6802 48.694 84.8212 45.498C84.9152 41.973 84.9152 39.341 84.7272 35.863C84.6802 35.252 84.6802 34.077 84.2572 33.889C84.1162 33.795 83.8812 33.795 83.7402 33.795C82.7532 33.889 81.8132 34.218 80.8732 34.218C80.2152 34.218 79.5102 34.077 79.0872 33.607C78.8052 33.231 78.6642 32.714 78.6172 32.197C78.4292 30.975 78.3822 28.813 78.4762 27.544C78.5232 26.886 78.5702 26.134 78.8052 25.523C78.8992 25.194 79.1342 24.912 79.3692 24.818C79.5572 24.724 79.7452 24.677 79.9332 24.677C81.1552 24.536 82.3302 24.583 83.5522 24.583C85.3382 24.63 87.1242 24.583 88.9102 24.63H89.1452C89.9912 24.536 90.8372 24.536 91.6832 24.489C92.5762 24.442 93.4692 24.348 94.3622 24.348C95.1612 24.301 96.0072 24.301 96.8062 24.536C97.1352 24.63 97.4642 24.818 97.7462 25.194C97.9812 25.57 98.0752 26.181 98.0752 26.698C98.1222 27.732 98.0752 28.719 98.0282 29.753C98.0282 30.411 97.8872 32.197 97.4642 32.714C97.2762 32.996 96.9472 33.184 96.7122 33.231C95.8192 33.56 94.8792 33.56 93.9862 33.513C93.4222 33.513 92.9052 33.419 92.3412 33.419C92.2472 33.419 92.0122 33.419 91.9182 33.513C91.8242 33.654 91.7772 34.171 91.7772 34.359C91.6832 35.534 91.7302 36.709 91.6832 37.837C91.6832 39.717 91.7302 41.597 91.7302 43.477C91.7302 45.357 91.6832 47.237 91.7772 49.117C91.7772 51.185 92.0122 53.3 91.7772 55.368C91.6362 56.449 91.4012 57.671 90.1322 57.812ZM114.583 58.141C111.434 58.141 108.238 58.329 105.089 58.282C103.961 58.282 102.457 58.188 101.564 57.389C101.329 57.154 101.141 56.825 101.047 56.449C100.859 55.979 100.812 55.462 100.812 54.945C100.718 54.334 100.718 53.676 100.718 53.018C100.718 49.681 100.765 46.391 100.812 43.101C100.953 39.388 101.188 35.675 101.141 32.009C101.094 30.082 101.047 28.155 101.282 26.322C101.329 25.993 101.376 25.664 101.517 25.429C101.611 25.147 101.846 24.959 102.034 24.912C102.457 24.724 102.927 24.771 103.35 24.818C104.196 24.865 105.089 24.959 105.935 25.006C107.251 25.1 108.567 25.147 109.883 25.147C111.763 25.147 113.643 25.053 115.523 24.818C116.134 24.724 116.745 24.63 117.403 24.63C117.685 24.63 118.061 24.818 118.061 25.147C118.155 25.523 118.155 25.993 118.202 26.416C118.249 28.014 118.39 29.659 118.343 31.304C118.296 31.633 118.249 31.962 118.155 32.291C118.061 32.62 117.873 32.902 117.685 33.09C117.356 33.325 116.933 33.419 116.557 33.466C115.147 33.56 113.737 33.654 112.327 33.654C111.622 33.607 110.917 33.513 110.165 33.419C109.037 33.419 109.037 33.983 109.037 35.017C109.037 35.581 108.99 37.179 109.272 37.602C109.366 37.743 109.789 37.743 109.93 37.79C111.105 37.79 112.233 37.696 113.408 37.555C114.019 37.461 114.63 37.367 115.288 37.32C116.651 37.32 117.262 37.837 117.356 39.2C117.403 40.046 117.356 40.892 117.309 41.738C117.309 44.135 117.215 45.639 114.395 45.921C113.079 45.968 111.763 45.874 110.447 45.686C110.118 45.639 109.742 45.592 109.413 45.733C109.037 45.921 108.943 46.955 108.943 47.566C108.943 48.083 108.943 49.493 109.225 49.822C109.366 50.057 109.977 50.104 110.165 50.104C112.045 50.057 113.878 49.493 115.711 49.493C116.181 49.493 116.604 49.493 117.027 49.587C117.685 49.822 118.014 50.01 118.155 50.715C118.296 51.42 118.296 52.172 118.343 52.924C118.343 53.958 118.296 55.039 118.155 56.073C118.155 56.355 118.108 56.684 118.014 56.966C117.826 57.436 117.403 57.765 117.074 57.906C116.275 58.235 115.429 58.141 114.583 58.141ZM149.465 55.838C149.559 57.248 147.397 58.094 145.564 58.094C144.201 58.094 143.026 57.624 143.073 56.59C143.167 51.232 142.885 45.827 142.791 40.422C141.193 46.297 140.018 50.715 138.561 56.496C138.326 57.389 137.01 57.953 135.741 57.953C134.566 57.953 133.438 57.53 133.203 56.496C132.827 54.992 131.887 51.326 131.511 49.775C130.665 46.203 129.866 43.242 128.785 39.764C128.738 43.947 128.785 47.096 128.785 51.749C128.785 54.757 129.208 58.047 127.14 57.859C126.341 57.812 123.615 58.141 122.957 57.53C121.923 56.543 122.205 52.36 122.205 50.621C122.158 44.088 122.205 39.341 121.97 32.808C121.876 30.364 121.829 24.959 123.568 25.006C124.696 25.006 126.482 24.583 128.033 24.583C129.396 24.583 130.571 24.912 130.9 26.087C132.874 32.62 134.425 37.696 136.07 42.772C136.963 38.824 138.373 35.158 139.407 31.257C139.783 29.8 140.347 25.382 141.334 24.677C141.992 24.16 144.953 24.301 145.705 24.301C146.598 24.301 148.854 24.16 149.465 25.053C149.794 25.617 149.653 27.544 149.606 28.296C149.324 33.701 149.324 39.2 149.465 44.652C149.653 50.433 149.324 52.83 149.465 55.838ZM159.939 58.282C159.61 58.47 158.905 58.564 158.153 58.564C156.649 58.564 154.722 58.282 154.064 58.235C150.915 57.953 152.278 56.355 154.346 48.647C156.414 41.033 157.965 34.876 159.939 27.215C160.691 24.442 161.96 24.724 165.062 24.724C168.54 24.724 169.104 24.677 169.715 27.356C172.253 38.448 174.039 46.485 176.53 55.932C176.812 56.966 176.671 57.812 175.919 58C175.214 58.141 173.381 58.376 171.83 58.376C170.89 58.376 170.044 58.282 169.621 58.047C168.587 57.436 168.587 51.984 167.224 51.984C165.391 51.937 164.169 51.843 162.336 51.984C160.691 52.125 161.49 57.389 159.939 58.282ZM162.9 44.182C163.511 44.276 164.216 44.323 164.921 44.323C165.579 44.323 166.19 44.276 166.707 44.182C166.331 42.02 164.968 36.568 164.733 34.97C164.169 38.072 163.511 41.127 162.9 44.182ZM196.264 50.621C196.264 52.877 196.64 58.047 195.23 58.047H190.577C188.885 58.047 189.355 55.039 189.355 50.01V32.526C189.355 26.604 189.261 24.959 191.141 24.959C191.658 24.959 192.974 24.771 194.055 24.771C194.901 24.771 195.653 24.865 195.935 25.241C196.922 26.51 196.358 31.163 196.358 33.043C196.217 38.871 196.17 44.746 196.264 50.621ZM207.645 54.71C207.645 56.496 207.645 58.376 205.342 58.376C204.12 58.376 202.851 58.094 201.676 57.812C200.924 57.624 200.783 57.295 200.689 56.543C200.595 55.65 200.595 54.757 200.595 53.864C200.689 51.185 200.83 48.506 200.83 45.827C200.877 43.383 200.877 40.939 200.83 38.542C200.783 35.863 200.595 33.231 200.548 30.552C200.548 29.424 200.454 26.275 201.018 25.476C201.159 25.241 201.347 25.1 201.582 25.053C201.817 25.006 202.052 25.053 202.334 25.1C203.368 25.147 204.402 25.053 205.436 24.818C205.765 24.771 206.188 24.63 206.517 24.771C206.611 24.818 206.752 25.1 206.799 25.147C207.504 26.275 208.068 27.638 208.726 28.907C209.807 31.163 211.264 33.137 212.392 35.346C213.238 36.85 213.896 38.448 214.648 39.999C214.648 38.918 214.554 37.837 214.554 36.709C214.507 35.205 214.507 33.748 214.46 32.244C214.413 30.693 214.319 29.142 214.413 27.591C214.46 26.745 214.648 25.758 215.353 25.194C215.729 25.006 216.152 24.959 216.528 24.959C217.609 24.959 218.69 25.006 219.771 25.006C220.194 25.006 220.664 25.006 221.04 25.147C221.228 25.241 221.416 25.429 221.557 25.664C221.698 25.993 221.745 26.463 221.745 26.886C221.745 27.92 221.698 28.954 221.698 29.941C221.651 31.163 221.698 32.338 221.698 33.513C221.698 36.991 221.651 40.469 221.745 43.947C221.745 46.156 221.839 48.318 221.792 50.48C221.745 52.266 221.604 54.005 221.416 55.744C221.416 56.261 221.322 56.825 221.228 57.295C221.134 57.577 220.993 57.906 220.758 58.047C220.617 58.188 220.382 58.188 220.147 58.188C219.207 58.235 218.22 58.235 217.28 58.141C216.857 58.094 216.387 58.047 216.011 57.765C215.635 57.53 215.4 57.013 215.212 56.59C214.93 56.026 214.742 55.509 214.507 54.945C213.097 51.702 211.264 48.929 209.666 45.874C208.961 44.464 208.35 42.913 207.551 41.597C207.504 43.712 207.645 45.827 207.645 47.942V50.997C207.645 52.219 207.692 53.441 207.645 54.71ZM253.287 55.838C253.381 57.248 251.219 58.094 249.386 58.094C248.023 58.094 246.848 57.624 246.895 56.59C246.989 51.232 246.707 45.827 246.613 40.422C245.015 46.297 243.84 50.715 242.383 56.496C242.148 57.389 240.832 57.953 239.563 57.953C238.388 57.953 237.26 57.53 237.025 56.496C236.649 54.992 235.709 51.326 235.333 49.775C234.487 46.203 233.688 43.242 232.607 39.764C232.56 43.947 232.607 47.096 232.607 51.749C232.607 54.757 233.03 58.047 230.962 57.859C230.163 57.812 227.437 58.141 226.779 57.53C225.745 56.543 226.027 52.36 226.027 50.621C225.98 44.088 226.027 39.341 225.792 32.808C225.698 30.364 225.651 24.959 227.39 25.006C228.518 25.006 230.304 24.583 231.855 24.583C233.218 24.583 234.393 24.912 234.722 26.087C236.696 32.62 238.247 37.696 239.892 42.772C240.785 38.824 242.195 35.158 243.229 31.257C243.605 29.8 244.169 25.382 245.156 24.677C245.814 24.16 248.775 24.301 249.527 24.301C250.42 24.301 252.676 24.16 253.287 25.053C253.616 25.617 253.475 27.544 253.428 28.296C253.146 33.701 253.146 39.2 253.287 44.652C253.475 50.433 253.146 52.83 253.287 55.838ZM278.519 49.681C277.391 55.227 274.43 58.376 268.79 58.376C264.936 58.376 260.753 57.342 258.873 53.347C256.711 48.741 257.134 32.244 257.322 26.698C257.369 24.771 259.108 25.241 260.471 25.194C260.941 25.147 261.928 24.959 262.727 24.959C263.338 24.959 263.855 25.053 264.09 25.429C264.701 26.322 264.513 29.565 264.419 30.834C264.231 35.487 264.513 41.644 264.701 46.25C264.795 48.835 266.111 49.963 267.521 49.963C269.213 49.963 270.952 48.459 270.952 46.015C270.952 42.208 270.623 30.223 270.952 26.416C271.14 24.536 272.926 25.006 274.242 25.006C275.041 25.053 277.297 24.724 277.908 25.57C278.566 26.51 278.284 30.364 278.331 31.727C278.425 34.735 279.13 46.814 278.519 49.681ZM289.573 54.71C289.573 56.496 289.573 58.376 287.27 58.376C286.048 58.376 284.779 58.094 283.604 57.812C282.852 57.624 282.711 57.295 282.617 56.543C282.523 55.65 282.523 54.757 282.523 53.864C282.617 51.185 282.758 48.506 282.758 45.827C282.805 43.383 282.805 40.939 282.758 38.542C282.711 35.863 282.523 33.231 282.476 30.552C282.476 29.424 282.382 26.275 282.946 25.476C283.087 25.241 283.275 25.1 283.51 25.053C283.745 25.006 283.98 25.053 284.262 25.1C285.296 25.147 286.33 25.053 287.364 24.818C287.693 24.771 288.116 24.63 288.445 24.771C288.539 24.818 288.68 25.1 288.727 25.147C289.432 26.275 289.996 27.638 290.654 28.907C291.735 31.163 293.192 33.137 294.32 35.346C295.166 36.85 295.824 38.448 296.576 39.999C296.576 38.918 296.482 37.837 296.482 36.709C296.435 35.205 296.435 33.748 296.388 32.244C296.341 30.693 296.247 29.142 296.341 27.591C296.388 26.745 296.576 25.758 297.281 25.194C297.657 25.006 298.08 24.959 298.456 24.959C299.537 24.959 300.618 25.006 301.699 25.006C302.122 25.006 302.592 25.006 302.968 25.147C303.156 25.241 303.344 25.429 303.485 25.664C303.626 25.993 303.673 26.463 303.673 26.886C303.673 27.92 303.626 28.954 303.626 29.941C303.579 31.163 303.626 32.338 303.626 33.513C303.626 36.991 303.579 40.469 303.673 43.947C303.673 46.156 303.767 48.318 303.72 50.48C303.673 52.266 303.532 54.005 303.344 55.744C303.344 56.261 303.25 56.825 303.156 57.295C303.062 57.577 302.921 57.906 302.686 58.047C302.545 58.188 302.31 58.188 302.075 58.188C301.135 58.235 300.148 58.235 299.208 58.141C298.785 58.094 298.315 58.047 297.939 57.765C297.563 57.53 297.328 57.013 297.14 56.59C296.858 56.026 296.67 55.509 296.435 54.945C295.025 51.702 293.192 48.929 291.594 45.874C290.889 44.464 290.278 42.913 289.479 41.597C289.432 43.712 289.573 45.827 289.573 47.942V50.997C289.573 52.219 289.62 53.441 289.573 54.71ZM321.539 58.141C318.39 58.141 315.194 58.329 312.045 58.282C310.917 58.282 309.413 58.188 308.52 57.389C308.285 57.154 308.097 56.825 308.003 56.449C307.815 55.979 307.768 55.462 307.768 54.945C307.674 54.334 307.674 53.676 307.674 53.018C307.674 49.681 307.721 46.391 307.768 43.101C307.909 39.388 308.144 35.675 308.097 32.009C308.05 30.082 308.003 28.155 308.238 26.322C308.285 25.993 308.332 25.664 308.473 25.429C308.567 25.147 308.802 24.959 308.99 24.912C309.413 24.724 309.883 24.771 310.306 24.818C311.152 24.865 312.045 24.959 312.891 25.006C314.207 25.1 315.523 25.147 316.839 25.147C318.719 25.147 320.599 25.053 322.479 24.818C323.09 24.724 323.701 24.63 324.359 24.63C324.641 24.63 325.017 24.818 325.017 25.147C325.111 25.523 325.111 25.993 325.158 26.416C325.205 28.014 325.346 29.659 325.299 31.304C325.252 31.633 325.205 31.962 325.111 32.291C325.017 32.62 324.829 32.902 324.641 33.09C324.312 33.325 323.889 33.419 323.513 33.466C322.103 33.56 320.693 33.654 319.283 33.654C318.578 33.607 317.873 33.513 317.121 33.419C315.993 33.419 315.993 33.983 315.993 35.017C315.993 35.581 315.946 37.179 316.228 37.602C316.322 37.743 316.745 37.743 316.886 37.79C318.061 37.79 319.189 37.696 320.364 37.555C320.975 37.461 321.586 37.367 322.244 37.32C323.607 37.32 324.218 37.837 324.312 39.2C324.359 40.046 324.312 40.892 324.265 41.738C324.265 44.135 324.171 45.639 321.351 45.921C320.035 45.968 318.719 45.874 317.403 45.686C317.074 45.639 316.698 45.592 316.369 45.733C315.993 45.921 315.899 46.955 315.899 47.566C315.899 48.083 315.899 49.493 316.181 49.822C316.322 50.057 316.933 50.104 317.121 50.104C319.001 50.057 320.834 49.493 322.667 49.493C323.137 49.493 323.56 49.493 323.983 49.587C324.641 49.822 324.97 50.01 325.111 50.715C325.252 51.42 325.252 52.172 325.299 52.924C325.299 53.958 325.252 55.039 325.111 56.073C325.111 56.355 325.064 56.684 324.97 56.966C324.782 57.436 324.359 57.765 324.03 57.906C323.231 58.235 322.385 58.141 321.539 58.141Z" fill="black"/>
</g>
<defs>
<filter id="filter0_d_470_45" x="0" y="0" width="353" height="91" filterUnits="userSpaceOnUse" color-interpolation-filters="sRGB">
<feFlood flood-opacity="0" result="BackgroundImageFix"/>
<feColorMatrix in="SourceAlpha" type="matrix" values="0 0 0 0 0 0 0 0 0 0 0 0 0 0 0 0 0 0 127 0" result="hardAlpha"/>
<feOffset dy="4"/>
<feGaussianBlur stdDeviation="2"/>
<feComposite in2="hardAlpha" operator="out"/>
<feColorMatrix type="matrix" values="0 0 0 0 0 0 0 0 0 0 0 0 0 0 0 0 0 0 0.25 0"/>
<feBlend mode="normal" in2="BackgroundImageFix" result="effect1_dropShadow_470_45"/>
<feBlend mode="normal" in="SourceGraphic" in2="effect1_dropShadow_470_45" result="shape"/>
</filter>
</defs>
</svg>
