<svg width="458" height="91" viewBox="0 0 458 91" fill="none" xmlns="http://www.w3.org/2000/svg">
<g filter="url(#filter0_d_439_293)">
<path d="M4 10C4 4.47715 8.47715 0 14 0H444C449.523 0 454 4.47715 454 10V73C454 78.5229 449.523 83 444 83H14C8.47715 83 4 78.5228 4 73V10Z" fill="black"/>
<path d="M39.6561 59.141C36.5541 59.141 35.3321 59.423 34.5801 56.65C32.6061 48.989 31.7131 43.396 29.6921 35.782C27.6241 28.074 26.2611 26.476 29.4101 26.194C30.0211 26.147 31.8541 25.63 33.4051 25.63C34.5801 25.63 35.5671 25.912 35.7551 26.899C38.6221 41.093 38.1051 41.422 39.5151 49.271C40.9251 40.858 40.8311 39.683 43.0401 27.416C43.1811 26.382 45.7191 26.1 47.8811 26.1C49.1501 26.1 50.2781 26.194 50.7011 26.288C51.4531 26.429 51.5941 27.275 51.3591 28.309C48.8211 37.756 46.8471 45.417 44.3561 56.509C43.7451 59.188 43.1341 59.141 39.6561 59.141ZM67.7749 59.141C64.6259 59.141 61.4299 59.329 58.2809 59.282C57.1529 59.282 55.6489 59.188 54.7559 58.389C54.5209 58.154 54.3329 57.825 54.2389 57.449C54.0509 56.979 54.0039 56.462 54.0039 55.945C53.9099 55.334 53.9099 54.676 53.9099 54.018C53.9099 50.681 53.9569 47.391 54.0039 44.101C54.1449 40.388 54.3799 36.675 54.3329 33.009C54.2859 31.082 54.2389 29.155 54.4739 27.322C54.5209 26.993 54.5679 26.664 54.7089 26.429C54.8029 26.147 55.0379 25.959 55.2259 25.912C55.6489 25.724 56.1189 25.771 56.5419 25.818C57.3879 25.865 58.2809 25.959 59.1269 26.006C60.4429 26.1 61.7589 26.147 63.0749 26.147C64.9549 26.147 66.8349 26.053 68.7149 25.818C69.3259 25.724 69.9369 25.63 70.5949 25.63C70.8769 25.63 71.2529 25.818 71.2529 26.147C71.3469 26.523 71.3469 26.993 71.3939 27.416C71.4409 29.014 71.5819 30.659 71.5349 32.304C71.4879 32.633 71.4409 32.962 71.3469 33.291C71.2529 33.62 71.0649 33.902 70.8769 34.09C70.5479 34.325 70.1249 34.419 69.7489 34.466C68.3389 34.56 66.9289 34.654 65.5189 34.654C64.8139 34.607 64.1089 34.513 63.3569 34.419C62.2289 34.419 62.2289 34.983 62.2289 36.017C62.2289 36.581 62.1819 38.179 62.4639 38.602C62.5579 38.743 62.9809 38.743 63.1219 38.79C64.2969 38.79 65.4249 38.696 66.5999 38.555C67.2109 38.461 67.8219 38.367 68.4799 38.32C69.8429 38.32 70.4539 38.837 70.5479 40.2C70.5949 41.046 70.5479 41.892 70.5009 42.738C70.5009 45.135 70.4069 46.639 67.5869 46.921C66.2709 46.968 64.9549 46.874 63.6389 46.686C63.3099 46.639 62.9339 46.592 62.6049 46.733C62.2289 46.921 62.1349 47.955 62.1349 48.566C62.1349 49.083 62.1349 50.493 62.4169 50.822C62.5579 51.057 63.1689 51.104 63.3569 51.104C65.2369 51.057 67.0699 50.493 68.9029 50.493C69.3729 50.493 69.7959 50.493 70.2189 50.587C70.8769 50.822 71.2059 51.01 71.3469 51.715C71.4879 52.42 71.4879 53.172 71.5349 53.924C71.5349 54.958 71.4879 56.039 71.3469 57.073C71.3469 57.355 71.2999 57.684 71.2059 57.966C71.0179 58.436 70.5949 58.765 70.2659 58.906C69.4669 59.235 68.6209 59.141 67.7749 59.141ZM82.776 56.885C82.776 58.671 80.802 59.282 78.922 59.282C77.418 59.282 76.008 58.906 75.632 58.436C75.021 57.59 75.115 54.582 75.162 53.407C75.35 44.9 75.303 36.393 75.538 27.886C75.538 25.536 81.319 25.113 82.917 25.113C85.643 25.113 88.369 25.818 90.719 27.557C95.701 31.223 95.795 43.067 91.283 48.002C92.881 51.151 93.022 51.95 93.821 53.924C94.714 56.18 96.03 58.812 94.197 59C93.774 59.047 92.176 59.188 90.625 59.188C88.839 59.188 87.1 59 87.006 58.342C86.724 56.274 85.314 52.467 84.656 49.741C83.904 49.882 82.776 50.869 82.776 50.869V56.885ZM82.964 42.268C88.181 42.691 89.45 33.15 82.964 33.902C82.917 36.722 82.964 42.268 82.964 42.268ZM108.73 58.812C107.978 58.906 107.273 58.906 106.521 58.906C106.004 58.906 105.534 58.906 105.017 58.859C104.688 58.859 104.312 58.812 103.983 58.624C103.795 58.483 103.56 58.248 103.466 57.966C103.231 57.402 103.137 56.697 103.137 56.039C102.949 52.843 103.278 49.694 103.419 46.498C103.513 42.973 103.513 40.341 103.325 36.863C103.278 36.252 103.278 35.077 102.855 34.889C102.714 34.795 102.479 34.795 102.338 34.795C101.351 34.889 100.411 35.218 99.4709 35.218C98.8129 35.218 98.1079 35.077 97.6849 34.607C97.4029 34.231 97.2619 33.714 97.2149 33.197C97.0269 31.975 96.9799 29.813 97.0739 28.544C97.1209 27.886 97.1679 27.134 97.4029 26.523C97.4969 26.194 97.7319 25.912 97.9669 25.818C98.1549 25.724 98.3429 25.677 98.5309 25.677C99.7529 25.536 100.928 25.583 102.15 25.583C103.936 25.63 105.722 25.583 107.508 25.63H107.743C108.589 25.536 109.435 25.536 110.281 25.489C111.174 25.442 112.067 25.348 112.96 25.348C113.759 25.301 114.605 25.301 115.404 25.536C115.733 25.63 116.062 25.818 116.344 26.194C116.579 26.57 116.673 27.181 116.673 27.698C116.72 28.732 116.673 29.719 116.626 30.753C116.626 31.411 116.485 33.197 116.062 33.714C115.874 33.996 115.545 34.184 115.31 34.231C114.417 34.56 113.477 34.56 112.584 34.513C112.02 34.513 111.503 34.419 110.939 34.419C110.845 34.419 110.61 34.419 110.516 34.513C110.422 34.654 110.375 35.171 110.375 35.359C110.281 36.534 110.328 37.709 110.281 38.837C110.281 40.717 110.328 42.597 110.328 44.477C110.328 46.357 110.281 48.237 110.375 50.117C110.375 52.185 110.61 54.3 110.375 56.368C110.234 57.449 109.999 58.671 108.73 58.812ZM133.18 59.141C130.031 59.141 126.835 59.329 123.686 59.282C122.558 59.282 121.054 59.188 120.161 58.389C119.926 58.154 119.738 57.825 119.644 57.449C119.456 56.979 119.409 56.462 119.409 55.945C119.315 55.334 119.315 54.676 119.315 54.018C119.315 50.681 119.362 47.391 119.409 44.101C119.55 40.388 119.785 36.675 119.738 33.009C119.691 31.082 119.644 29.155 119.879 27.322C119.926 26.993 119.973 26.664 120.114 26.429C120.208 26.147 120.443 25.959 120.631 25.912C121.054 25.724 121.524 25.771 121.947 25.818C122.793 25.865 123.686 25.959 124.532 26.006C125.848 26.1 127.164 26.147 128.48 26.147C130.36 26.147 132.24 26.053 134.12 25.818C134.731 25.724 135.342 25.63 136 25.63C136.282 25.63 136.658 25.818 136.658 26.147C136.752 26.523 136.752 26.993 136.799 27.416C136.846 29.014 136.987 30.659 136.94 32.304C136.893 32.633 136.846 32.962 136.752 33.291C136.658 33.62 136.47 33.902 136.282 34.09C135.953 34.325 135.53 34.419 135.154 34.466C133.744 34.56 132.334 34.654 130.924 34.654C130.219 34.607 129.514 34.513 128.762 34.419C127.634 34.419 127.634 34.983 127.634 36.017C127.634 36.581 127.587 38.179 127.869 38.602C127.963 38.743 128.386 38.743 128.527 38.79C129.702 38.79 130.83 38.696 132.005 38.555C132.616 38.461 133.227 38.367 133.885 38.32C135.248 38.32 135.859 38.837 135.953 40.2C136 41.046 135.953 41.892 135.906 42.738C135.906 45.135 135.812 46.639 132.992 46.921C131.676 46.968 130.36 46.874 129.044 46.686C128.715 46.639 128.339 46.592 128.01 46.733C127.634 46.921 127.54 47.955 127.54 48.566C127.54 49.083 127.54 50.493 127.822 50.822C127.963 51.057 128.574 51.104 128.762 51.104C130.642 51.057 132.475 50.493 134.308 50.493C134.778 50.493 135.201 50.493 135.624 50.587C136.282 50.822 136.611 51.01 136.752 51.715C136.893 52.42 136.893 53.172 136.94 53.924C136.94 54.958 136.893 56.039 136.752 57.073C136.752 57.355 136.705 57.684 136.611 57.966C136.423 58.436 136 58.765 135.671 58.906C134.872 59.235 134.026 59.141 133.18 59.141ZM150.296 59.047C148.792 59.047 146.865 59.329 145.173 59.329C142.729 59.329 140.661 58.765 140.661 56.227V28.92C140.661 26.147 143.246 25.583 146.301 25.583C148.792 25.583 151.612 25.959 153.492 25.865C160.401 25.536 161.341 38.884 156.265 42.362C160.683 42.362 162.422 53.031 158.427 57.261C156.218 59.611 153.022 59.047 150.296 59.047ZM148.369 51.057C148.698 51.527 149.215 51.715 149.732 51.715C150.86 51.715 152.176 50.775 152.646 49.506C153.586 46.78 150.39 45.981 148.322 46.216C148.181 47.391 147.758 50.258 148.369 51.057ZM148.322 33.291C148.181 35.594 147.664 38.508 149.262 38.602C150.39 38.649 152.317 37.944 152.693 36.393C153.21 34.137 151.236 33.15 149.403 33.15C149.027 33.15 148.651 33.197 148.322 33.291ZM171.498 56.885C171.498 58.671 169.524 59.282 167.644 59.282C166.14 59.282 164.73 58.906 164.354 58.436C163.743 57.59 163.837 54.582 163.884 53.407C164.072 44.9 164.025 36.393 164.26 27.886C164.26 25.536 170.041 25.113 171.639 25.113C174.365 25.113 177.091 25.818 179.441 27.557C184.423 31.223 184.517 43.067 180.005 48.002C181.603 51.151 181.744 51.95 182.543 53.924C183.436 56.18 184.752 58.812 182.919 59C182.496 59.047 180.898 59.188 179.347 59.188C177.561 59.188 175.822 59 175.728 58.342C175.446 56.274 174.036 52.467 173.378 49.741C172.626 49.882 171.498 50.869 171.498 50.869V56.885ZM171.686 42.268C176.903 42.691 178.172 33.15 171.686 33.902C171.639 36.722 171.686 42.268 171.686 42.268ZM193.316 59.282C192.987 59.47 192.282 59.564 191.53 59.564C190.026 59.564 188.099 59.282 187.441 59.235C184.292 58.953 185.655 57.355 187.723 49.647C189.791 42.033 191.342 35.876 193.316 28.215C194.068 25.442 195.337 25.724 198.439 25.724C201.917 25.724 202.481 25.677 203.092 28.356C205.63 39.448 207.416 47.485 209.907 56.932C210.189 57.966 210.048 58.812 209.296 59C208.591 59.141 206.758 59.376 205.207 59.376C204.267 59.376 203.421 59.282 202.998 59.047C201.964 58.436 201.964 52.984 200.601 52.984C198.768 52.937 197.546 52.843 195.713 52.984C194.068 53.125 194.867 58.389 193.316 59.282ZM196.277 45.182C196.888 45.276 197.593 45.323 198.298 45.323C198.956 45.323 199.567 45.276 200.084 45.182C199.708 43.02 198.345 37.568 198.11 35.97C197.546 39.072 196.888 42.127 196.277 45.182ZM232.04 50.023C231.993 57.637 225.977 59.47 221.606 59.47C217.047 59.47 211.407 58.342 211.924 50.681C212.065 48.66 214.039 48.002 215.825 48.002C217.376 48.002 218.786 48.519 218.786 49.13C218.974 51.809 220.149 52.091 221.606 52.091C224.285 52.091 225.507 48.143 222.076 47.062C219.209 46.216 215.872 45.699 213.851 42.691C209.527 36.158 214.791 25.865 221.089 25.865C225.319 25.865 230.583 26.617 230.583 35.077C230.583 36.111 229.032 36.581 227.387 36.581C225.601 36.581 223.674 36.017 223.721 34.983C223.768 33.103 222.828 32.21 221.794 32.21C220.713 32.21 219.538 33.244 219.538 34.983C219.538 40.435 232.087 38.32 232.04 50.023ZM265.056 46.404C265.056 54.77 261.578 59 255.374 59C250.909 59 246.35 56.462 244.893 49.506C242.496 37.85 246.35 25.489 254.857 25.489C261.813 25.489 265.291 30.236 265.291 37.709C265.291 39.072 263.787 39.636 262.236 39.636C260.638 39.636 258.946 38.978 258.946 37.944C258.946 35.171 257.442 33.949 255.703 33.949C250.157 33.949 249.264 51.339 255.75 50.869C257.677 50.728 258.946 49.271 258.711 45.934C258.664 44.665 260.215 43.96 261.766 43.96C263.411 43.96 265.056 44.712 265.056 46.404ZM288.082 53.031C286.155 57.543 282.677 59.799 279.152 59.799C275.11 59.799 271.068 56.885 269.141 51.198C268.248 48.707 267.872 45.934 267.872 43.208C267.872 32.727 272.008 25.348 278.964 25.348C287.941 25.348 289.68 34.607 289.962 41.751C290.15 45.558 289.586 49.506 288.082 53.031ZM276.097 43.208C276.097 47.861 276.896 51.856 279.528 51.48C282.489 50.963 282.536 45.323 282.301 41.892C282.066 37.897 281.596 33.761 279.152 33.761C276.755 33.761 276.097 36.863 276.097 43.208ZM307.512 59.141C304.504 59.376 301.402 58.906 298.159 58.906C297.172 58.906 293.647 59.611 293.647 56.744C293.647 54.817 293.553 50.07 293.553 48.143C293.412 41.563 293.036 34.936 293.318 28.356C293.412 26.241 293.647 25.865 295.057 25.865C295.762 25.865 296.796 25.959 298.3 25.959C299.052 25.959 300.274 25.724 300.556 26.711C301.355 29.719 300.979 42.08 301.026 45.323C301.026 47.25 300.744 49.6 302.107 49.694C303.47 49.741 307.277 49.694 309.345 49.694C310.426 49.694 310.473 53.689 310.473 55.193C310.473 59.235 309.204 59 307.512 59.141ZM319.536 59.282C319.207 59.47 318.502 59.564 317.75 59.564C316.246 59.564 314.319 59.282 313.661 59.235C310.512 58.953 311.875 57.355 313.943 49.647C316.011 42.033 317.562 35.876 319.536 28.215C320.288 25.442 321.557 25.724 324.659 25.724C328.137 25.724 328.701 25.677 329.312 28.356C331.85 39.448 333.636 47.485 336.127 56.932C336.409 57.966 336.268 58.812 335.516 59C334.811 59.141 332.978 59.376 331.427 59.376C330.487 59.376 329.641 59.282 329.218 59.047C328.184 58.436 328.184 52.984 326.821 52.984C324.988 52.937 323.766 52.843 321.933 52.984C320.288 53.125 321.087 58.389 319.536 59.282ZM322.497 45.182C323.108 45.276 323.813 45.323 324.518 45.323C325.176 45.323 325.787 45.276 326.304 45.182C325.928 43.02 324.565 37.568 324.33 35.97C323.766 39.072 323.108 42.127 322.497 45.182ZM344.114 59.517C343.08 59.517 340.072 59.47 339.32 58.436C338.662 57.637 338.756 54.676 338.803 53.501C338.991 44.383 338.944 36.957 339.179 27.839C339.179 26.241 342.234 25.348 345.759 25.348C348.767 25.348 352.198 26.006 354.313 27.51C359.483 31.176 359.859 42.268 355.77 47.391C353.138 50.634 346.558 49.929 346.558 49.929C346.558 49.929 346.793 55.569 346.323 57.778C346.088 58.906 345.007 59.47 344.114 59.517ZM346.605 42.597H348.391C351.916 42.597 354.219 32.962 346.605 33.902C346.558 36.111 346.605 42.597 346.605 42.597ZM381.026 50.023C380.979 57.637 374.963 59.47 370.592 59.47C366.033 59.47 360.393 58.342 360.91 50.681C361.051 48.66 363.025 48.002 364.811 48.002C366.362 48.002 367.772 48.519 367.772 49.13C367.96 51.809 369.135 52.091 370.592 52.091C373.271 52.091 374.493 48.143 371.062 47.062C368.195 46.216 364.858 45.699 362.837 42.691C358.513 36.158 363.777 25.865 370.075 25.865C374.305 25.865 379.569 26.617 379.569 35.077C379.569 36.111 378.018 36.581 376.373 36.581C374.587 36.581 372.66 36.017 372.707 34.983C372.754 33.103 371.814 32.21 370.78 32.21C369.699 32.21 368.524 33.244 368.524 34.983C368.524 40.435 381.073 38.32 381.026 50.023ZM390.403 59.282C390.074 59.47 389.369 59.564 388.617 59.564C387.113 59.564 385.186 59.282 384.528 59.235C381.379 58.953 382.742 57.355 384.81 49.647C386.878 42.033 388.429 35.876 390.403 28.215C391.155 25.442 392.424 25.724 395.526 25.724C399.004 25.724 399.568 25.677 400.179 28.356C402.717 39.448 404.503 47.485 406.994 56.932C407.276 57.966 407.135 58.812 406.383 59C405.678 59.141 403.845 59.376 402.294 59.376C401.354 59.376 400.508 59.282 400.085 59.047C399.051 58.436 399.051 52.984 397.688 52.984C395.855 52.937 394.633 52.843 392.8 52.984C391.155 53.125 391.954 58.389 390.403 59.282ZM393.364 45.182C393.975 45.276 394.68 45.323 395.385 45.323C396.043 45.323 396.654 45.276 397.171 45.182C396.795 43.02 395.432 37.568 395.197 35.97C394.633 39.072 393.975 42.127 393.364 45.182ZM416.767 55.71C416.767 57.496 416.767 59.376 414.464 59.376C413.242 59.376 411.973 59.094 410.798 58.812C410.046 58.624 409.905 58.295 409.811 57.543C409.717 56.65 409.717 55.757 409.717 54.864C409.811 52.185 409.952 49.506 409.952 46.827C409.999 44.383 409.999 41.939 409.952 39.542C409.905 36.863 409.717 34.231 409.67 31.552C409.67 30.424 409.576 27.275 410.14 26.476C410.281 26.241 410.469 26.1 410.704 26.053C410.939 26.006 411.174 26.053 411.456 26.1C412.49 26.147 413.524 26.053 414.558 25.818C414.887 25.771 415.31 25.63 415.639 25.771C415.733 25.818 415.874 26.1 415.921 26.147C416.626 27.275 417.19 28.638 417.848 29.907C418.929 32.163 420.386 34.137 421.514 36.346C422.36 37.85 423.018 39.448 423.77 40.999C423.77 39.918 423.676 38.837 423.676 37.709C423.629 36.205 423.629 34.748 423.582 33.244C423.535 31.693 423.441 30.142 423.535 28.591C423.582 27.745 423.77 26.758 424.475 26.194C424.851 26.006 425.274 25.959 425.65 25.959C426.731 25.959 427.812 26.006 428.893 26.006C429.316 26.006 429.786 26.006 430.162 26.147C430.35 26.241 430.538 26.429 430.679 26.664C430.82 26.993 430.867 27.463 430.867 27.886C430.867 28.92 430.82 29.954 430.82 30.941C430.773 32.163 430.82 33.338 430.82 34.513C430.82 37.991 430.773 41.469 430.867 44.947C430.867 47.156 430.961 49.318 430.914 51.48C430.867 53.266 430.726 55.005 430.538 56.744C430.538 57.261 430.444 57.825 430.35 58.295C430.256 58.577 430.115 58.906 429.88 59.047C429.739 59.188 429.504 59.188 429.269 59.188C428.329 59.235 427.342 59.235 426.402 59.141C425.979 59.094 425.509 59.047 425.133 58.765C424.757 58.53 424.522 58.013 424.334 57.59C424.052 57.026 423.864 56.509 423.629 55.945C422.219 52.702 420.386 49.929 418.788 46.874C418.083 45.464 417.472 43.913 416.673 42.597C416.626 44.712 416.767 46.827 416.767 48.942V51.997C416.767 53.219 416.814 54.441 416.767 55.71Z" fill="#FEF8E8"/>
</g>
<defs>
<filter id="filter0_d_439_293" x="0" y="0" width="458" height="91" filterUnits="userSpaceOnUse" color-interpolation-filters="sRGB">
<feFlood flood-opacity="0" result="BackgroundImageFix"/>
<feColorMatrix in="SourceAlpha" type="matrix" values="0 0 0 0 0 0 0 0 0 0 0 0 0 0 0 0 0 0 127 0" result="hardAlpha"/>
<feOffset dy="4"/>
<feGaussianBlur stdDeviation="2"/>
<feComposite in2="hardAlpha" operator="out"/>
<feColorMatrix type="matrix" values="0 0 0 0 0 0 0 0 0 0 0 0 0 0 0 0 0 0 0.25 0"/>
<feBlend mode="normal" in2="BackgroundImageFix" result="effect1_dropShadow_439_293"/>
<feBlend mode="normal" in="SourceGraphic" in2="effect1_dropShadow_439_293" result="shape"/>
</filter>
</defs>
</svg>
