<svg width="573" height="53" viewBox="0 0 573 53" fill="none" xmlns="http://www.w3.org/2000/svg">
<path d="M11.844 26.1789C10.998 27.7299 9.776 28.4819 8.648 28.4819C7.238 28.4819 5.875 27.2599 5.499 24.8159C4.888 21.1499 6.721 18.1419 9.212 18.1419C9.541 18.1419 9.823 18.1889 10.152 18.2829C12.549 18.9879 13.395 23.3589 11.844 26.1789ZM15.745 48.5979C13.959 50.9009 10.575 52.3109 7.708 52.3109C6.674 52.3109 5.64 52.0759 4.653 51.5119C1.645 49.6789 5.62519e-07 47.3759 5.62519e-07 43.7569C5.62519e-07 39.9969 1.034 36.8949 3.901 34.4039C4.23 34.0749 4.653 33.7929 4.982 33.4169C5.311 33.1349 5.64 32.7589 5.875 32.2889C6.063 31.7719 6.11 31.1139 6.251 30.5499C6.486 29.8449 6.956 29.7039 7.614 29.6099C8.413 29.5159 9.259 29.5159 10.105 29.4689C10.763 29.4689 11.562 29.4689 12.032 30.0329C12.22 30.3149 12.361 30.7849 12.408 31.2079C12.502 31.8659 12.455 32.5239 12.455 33.1349C12.361 34.2629 12.032 35.4379 11.515 36.2839C10.81 37.4119 9.917 38.2579 9.165 39.2919C8.648 39.9029 8.225 40.7019 8.084 41.5949C7.755 43.1459 8.46 44.7909 9.541 44.6499C10.011 44.5559 10.481 44.2739 10.763 43.7569C10.998 43.3809 10.951 42.7699 11.139 42.3469C11.233 41.9709 11.562 41.6419 11.797 41.5479C12.173 41.4539 12.549 41.4069 12.878 41.3599C14.194 41.3129 15.557 41.3129 16.92 41.4539C18.236 41.5949 17.484 45.3079 16.967 46.6709C16.685 47.4699 16.262 48.0809 15.745 48.5979ZM41.7892 46.0129C41.1782 46.6239 38.2172 46.9529 37.4652 46.9529C36.7602 46.9529 36.1022 46.8119 35.6322 46.2479C35.1622 45.6839 34.8332 44.9789 34.4572 44.2739C33.3292 44.7909 32.1072 45.0729 30.9322 45.0729C26.8902 45.0729 22.8482 42.1589 20.9212 36.4719C20.0282 33.9809 19.6522 31.2079 19.6522 28.4819C19.6522 18.0009 23.7882 10.6219 30.7442 10.6219C39.7682 10.6219 41.4602 19.8809 41.7422 27.0249C41.9302 30.8319 41.3662 34.7799 39.8622 38.3049C39.6742 38.7279 39.4862 39.1039 39.2982 39.4799C39.6742 40.1849 40.0502 40.8899 40.4262 41.6419C40.7552 42.2529 41.0842 42.8639 41.4602 43.4749C41.7422 43.9449 41.9772 44.4619 42.0712 45.0729C42.1182 45.4019 41.9772 45.8249 41.7892 46.0129ZM27.8772 28.4819C27.8772 32.9939 28.6292 36.7539 31.1672 36.7539C34.0812 36.6129 34.4102 32.2889 34.0812 27.1659C33.8462 23.1709 33.3762 19.0349 30.9322 19.0349C28.5352 19.0349 27.8772 22.1369 27.8772 28.4819ZM66.4279 35.9549C65.2999 41.5009 62.3389 44.6499 56.6989 44.6499C52.8449 44.6499 48.6619 43.6159 46.7819 39.6209C44.6199 35.0149 45.0429 18.5179 45.2309 12.9719C45.2779 11.0449 47.0169 11.5149 48.3799 11.4679C48.8499 11.4209 49.8369 11.2329 50.6359 11.2329C51.2469 11.2329 51.7639 11.3269 51.9989 11.7029C52.6099 12.5959 52.4219 15.8389 52.3279 17.1079C52.1399 21.7609 52.4219 27.9179 52.6099 32.5239C52.7039 35.1089 54.0199 36.2369 55.4299 36.2369C57.1219 36.2369 58.8609 34.7329 58.8609 32.2889C58.8609 28.4819 58.5319 16.4969 58.8609 12.6899C59.0489 10.8099 60.8349 11.2799 62.1509 11.2799C62.9499 11.3269 65.2059 10.9979 65.8169 11.8439C66.4749 12.7839 66.1929 16.6379 66.2399 18.0009C66.3339 21.0089 67.0389 33.0879 66.4279 35.9549ZM81.2894 8.41293C81.0074 8.64793 80.6784 8.69492 80.3024 8.69492C79.5034 8.69492 78.0934 8.36592 77.6234 7.75493C77.4824 7.51992 77.4354 7.23792 77.4824 6.95592C77.4824 6.43892 77.6704 5.92192 77.8584 5.45192C78.2344 4.55892 78.6104 3.61892 78.9864 2.67892C79.2214 2.06792 79.4094 1.50392 79.6444 0.892924C79.7384 0.610925 79.9264 0.328923 80.1144 0.187925C80.3024 0.0939231 80.4434 0.0469237 80.6314 -7.56979e-05C81.2424 -7.56979e-05 81.8534 0.0939231 82.4644 0.140922C83.2634 0.187925 84.0624 0.187925 84.8144 0.0939231C85.1434 0.0939231 85.3314 0.563923 85.1434 0.892924C85.0964 0.939923 85.0494 0.986923 85.0494 1.03392C85.0024 1.17492 84.7204 1.64492 84.6734 1.78592C83.9214 3.38392 83.3104 5.12292 82.6054 6.72092C82.2764 7.37892 81.8534 8.08392 81.2894 8.41293ZM84.2034 44.4149C81.0544 44.4149 77.8584 44.6029 74.7094 44.5559C73.5814 44.5559 72.0774 44.4619 71.1844 43.6629C70.9494 43.4279 70.7614 43.0989 70.6674 42.7229C70.4794 42.2529 70.4324 41.7359 70.4324 41.2189C70.3384 40.6079 70.3384 39.9499 70.3384 39.2919C70.3384 35.9549 70.3854 32.6649 70.4324 29.3749C70.5734 25.6619 70.8084 21.9489 70.7614 18.2829C70.7144 16.3559 70.6674 14.4289 70.9024 12.5959C70.9494 12.2669 70.9964 11.9379 71.1374 11.7029C71.2314 11.4209 71.4664 11.2329 71.6544 11.1859C72.0774 10.9979 72.5474 11.0449 72.9704 11.0919C73.8164 11.1389 74.7094 11.2329 75.5554 11.2799C76.8714 11.3739 78.1874 11.4209 79.5034 11.4209C81.3834 11.4209 83.2634 11.3269 85.1434 11.0919C85.7544 10.9979 86.3654 10.9039 87.0234 10.9039C87.3054 10.9039 87.6814 11.0919 87.6814 11.4209C87.7754 11.7969 87.7754 12.2669 87.8224 12.6899C87.8694 14.2879 88.0104 15.9329 87.9634 17.5779C87.9164 17.9069 87.8694 18.2359 87.7754 18.5649C87.6814 18.8939 87.4934 19.1759 87.3054 19.3639C86.9764 19.5989 86.5534 19.6929 86.1774 19.7399C84.7674 19.8339 83.3574 19.9279 81.9474 19.9279C81.2424 19.8809 80.5374 19.7869 79.7854 19.6929C78.6574 19.6929 78.6574 20.2569 78.6574 21.2909C78.6574 21.8549 78.6104 23.4529 78.8924 23.8759C78.9864 24.0169 79.4094 24.0169 79.5504 24.0639C80.7254 24.0639 81.8534 23.9699 83.0284 23.8289C83.6394 23.7349 84.2504 23.6409 84.9084 23.5939C86.2714 23.5939 86.8824 24.1109 86.9764 25.4739C87.0234 26.3199 86.9764 27.1659 86.9294 28.0119C86.9294 30.4089 86.8354 31.9129 84.0154 32.1949C82.6994 32.2419 81.3834 32.1479 80.0674 31.9599C79.7384 31.9129 79.3624 31.8659 79.0334 32.0069C78.6574 32.1949 78.5634 33.2289 78.5634 33.8399C78.5634 34.3569 78.5634 35.7669 78.8454 36.0959C78.9864 36.3309 79.5974 36.3779 79.7854 36.3779C81.6654 36.3309 83.4984 35.7669 85.3314 35.7669C85.8014 35.7669 86.2244 35.7669 86.6474 35.8609C87.3054 36.0959 87.6344 36.2839 87.7754 36.9889C87.9164 37.6939 87.9164 38.4459 87.9634 39.1979C87.9634 40.2319 87.9164 41.3129 87.7754 42.3469C87.7754 42.6289 87.7284 42.9579 87.6344 43.2399C87.4464 43.7099 87.0234 44.0389 86.6944 44.1799C85.8954 44.5089 85.0494 44.4149 84.2034 44.4149ZM115.277 44.4149C112.128 44.4149 108.932 44.6029 105.783 44.5559C104.655 44.5559 103.151 44.4619 102.258 43.6629C102.023 43.4279 101.835 43.0989 101.741 42.7229C101.553 42.2529 101.506 41.7359 101.506 41.2189C101.412 40.6079 101.412 39.9499 101.412 39.2919C101.412 35.9549 101.459 32.6649 101.506 29.3749C101.647 25.6619 101.882 21.9489 101.835 18.2829C101.788 16.3559 101.741 14.4289 101.976 12.5959C102.023 12.2669 102.07 11.9379 102.211 11.7029C102.305 11.4209 102.54 11.2329 102.728 11.1859C103.151 10.9979 103.621 11.0449 104.044 11.0919C104.89 11.1389 105.783 11.2329 106.629 11.2799C107.945 11.3739 109.261 11.4209 110.577 11.4209C112.457 11.4209 114.337 11.3269 116.217 11.0919C116.828 10.9979 117.439 10.9039 118.097 10.9039C118.379 10.9039 118.755 11.0919 118.755 11.4209C118.849 11.7969 118.849 12.2669 118.896 12.6899C118.943 14.2879 119.084 15.9329 119.037 17.5779C118.99 17.9069 118.943 18.2359 118.849 18.5649C118.755 18.8939 118.567 19.1759 118.379 19.3639C118.05 19.5989 117.627 19.6929 117.251 19.7399C115.841 19.8339 114.431 19.9279 113.021 19.9279C112.316 19.8809 111.611 19.7869 110.859 19.6929C109.731 19.6929 109.731 20.2569 109.731 21.2909C109.731 21.8549 109.684 23.4529 109.966 23.8759C110.06 24.0169 110.483 24.0169 110.624 24.0639C111.799 24.0639 112.927 23.9699 114.102 23.8289C114.713 23.7349 115.324 23.6409 115.982 23.5939C117.345 23.5939 117.956 24.1109 118.05 25.4739C118.097 26.3199 118.05 27.1659 118.003 28.0119C118.003 30.4089 117.909 31.9129 115.089 32.1949C113.773 32.2419 112.457 32.1479 111.141 31.9599C110.812 31.9129 110.436 31.8659 110.107 32.0069C109.731 32.1949 109.637 33.2289 109.637 33.8399C109.637 34.3569 109.637 35.7669 109.919 36.0959C110.06 36.3309 110.671 36.3779 110.859 36.3779C112.739 36.3309 114.572 35.7669 116.405 35.7669C116.875 35.7669 117.298 35.7669 117.721 35.8609C118.379 36.0959 118.708 36.2839 118.849 36.9889C118.99 37.6939 118.99 38.4459 119.037 39.1979C119.037 40.2319 118.99 41.3129 118.849 42.3469C118.849 42.6289 118.802 42.9579 118.708 43.2399C118.52 43.7099 118.097 44.0389 117.768 44.1799C116.969 44.5089 116.123 44.4149 115.277 44.4149ZM142.122 35.2969C142.075 42.9109 136.059 44.7439 131.688 44.7439C127.129 44.7439 121.489 43.6159 122.006 35.9549C122.147 33.9339 124.121 33.2759 125.907 33.2759C127.458 33.2759 128.868 33.7929 128.868 34.4039C129.056 37.0829 130.231 37.3649 131.688 37.3649C134.367 37.3649 135.589 33.4169 132.158 32.3359C129.291 31.4899 125.954 30.9729 123.933 27.9649C119.609 21.4319 124.873 11.1389 131.171 11.1389C135.401 11.1389 140.665 11.8909 140.665 20.3509C140.665 21.3849 139.114 21.8549 137.469 21.8549C135.683 21.8549 133.756 21.2909 133.803 20.2569C133.85 18.3769 132.91 17.4839 131.876 17.4839C130.795 17.4839 129.62 18.5179 129.62 20.2569C129.62 25.7089 142.169 23.5939 142.122 35.2969ZM168.088 42.5349C168.088 43.8039 165.926 44.6029 163.952 44.6029C162.26 44.6029 160.662 44.0389 160.662 42.7229C160.662 39.0569 160.474 33.2759 160.474 33.2759C160.474 33.2759 155.304 16.4029 153.659 13.2539C152.907 11.8439 155.445 10.8099 157.748 10.8099C159.205 10.8099 160.568 11.2329 160.897 12.2199C162.119 15.9329 163.294 21.1499 164.469 23.3119C165.456 20.3979 166.396 17.3899 167.43 14.5229C167.9 13.3009 168.229 11.7499 169.122 11.2329C169.357 11.0919 169.733 11.0449 170.25 11.0449C171.519 11.0449 173.399 11.4209 174.057 11.5149C176.83 11.9849 173.963 16.0739 172.694 19.6459C171.284 23.6409 167.947 33.1819 167.947 33.1819C167.947 33.1819 168.088 40.9839 168.088 42.5349ZM207.726 31.6779C207.726 40.0439 204.248 44.2739 198.044 44.2739C193.579 44.2739 189.02 41.7359 187.563 34.7799C185.166 23.1239 189.02 10.7629 197.527 10.7629C204.483 10.7629 207.961 15.5099 207.961 22.9829C207.961 24.3459 206.457 24.9099 204.906 24.9099C203.308 24.9099 201.616 24.2519 201.616 23.2179C201.616 20.4449 200.112 19.2229 198.373 19.2229C192.827 19.2229 191.934 36.6129 198.42 36.1429C200.347 36.0019 201.616 34.5449 201.381 31.2079C201.334 29.9389 202.885 29.2339 204.436 29.2339C206.081 29.2339 207.726 29.9859 207.726 31.6779ZM225.394 6.72092C224.924 7.70792 224.313 8.69492 223.091 8.69492C222.433 8.69492 221.634 8.45992 220.976 8.22492C220.788 8.13092 220.553 7.98993 220.459 7.75493C220.318 7.51992 220.224 7.23792 220.271 6.95592C220.318 6.43892 220.459 5.92192 220.647 5.45192C221.023 4.55892 221.446 3.61892 221.775 2.67892C222.01 2.06792 222.198 1.50392 222.433 0.892924C222.574 0.610925 222.762 0.328923 222.95 0.187925C223.091 0.0939231 223.279 0.0469237 223.42 -7.56979e-05C224.078 -7.56979e-05 224.642 0.0939231 225.253 0.140922C226.052 0.187925 226.851 0.187925 227.65 0.0939231C227.932 0.0939231 228.12 0.563923 227.932 0.892924C227.932 0.939923 227.838 0.986923 227.838 1.03392C227.791 1.17492 227.509 1.64492 227.462 1.78592C226.71 3.38392 226.146 5.12292 225.394 6.72092ZM230.752 38.3049C228.825 42.8169 225.347 45.0729 221.822 45.0729C217.78 45.0729 213.738 42.1589 211.811 36.4719C210.918 33.9809 210.542 31.2079 210.542 28.4819C210.542 18.0009 214.678 10.6219 221.634 10.6219C230.611 10.6219 232.35 19.8809 232.632 27.0249C232.82 30.8319 232.256 34.7799 230.752 38.3049ZM218.767 28.4819C218.767 33.1349 219.566 37.1299 222.198 36.7539C225.159 36.2369 225.206 30.5969 224.971 27.1659C224.736 23.1709 224.266 19.0349 221.822 19.0349C219.425 19.0349 218.767 22.1369 218.767 28.4819ZM263.436 42.1119C263.53 43.5219 261.368 44.3679 259.535 44.3679C258.172 44.3679 256.997 43.8979 257.044 42.8639C257.138 37.5059 256.856 32.1009 256.762 26.6959C255.164 32.5709 253.989 36.9889 252.532 42.7699C252.297 43.6629 250.981 44.2269 249.712 44.2269C248.537 44.2269 247.409 43.8039 247.174 42.7699C246.798 41.2659 245.858 37.5999 245.482 36.0489C244.636 32.4769 243.837 29.5159 242.756 26.0379C242.709 30.2209 242.756 33.3699 242.756 38.0229C242.756 41.0309 243.179 44.3209 241.111 44.1329C240.312 44.0859 237.586 44.4149 236.928 43.8039C235.894 42.8169 236.176 38.6339 236.176 36.8949C236.129 30.3619 236.176 25.6149 235.941 19.0819C235.847 16.6379 235.8 11.2329 237.539 11.2799C238.667 11.2799 240.453 10.8569 242.004 10.8569C243.367 10.8569 244.542 11.1859 244.871 12.3609C246.845 18.8939 248.396 23.9699 250.041 29.0459C250.934 25.0979 252.344 21.4319 253.378 17.5309C253.754 16.0739 254.318 11.6559 255.305 10.9509C255.963 10.4339 258.924 10.5749 259.676 10.5749C260.569 10.5749 262.825 10.4339 263.436 11.3269C263.765 11.8909 263.624 13.8179 263.577 14.5699C263.295 19.9749 263.295 25.4739 263.436 30.9259C263.624 36.7069 263.295 39.1039 263.436 42.1119ZM287.023 38.3049C285.096 42.8169 281.618 45.0729 278.093 45.0729C274.051 45.0729 270.009 42.1589 268.082 36.4719C267.189 33.9809 266.813 31.2079 266.813 28.4819C266.813 18.0009 270.949 10.6219 277.905 10.6219C286.882 10.6219 288.621 19.8809 288.903 27.0249C289.091 30.8319 288.527 34.7799 287.023 38.3049ZM275.038 28.4819C275.038 33.1349 275.837 37.1299 278.469 36.7539C281.43 36.2369 281.477 30.5969 281.242 27.1659C281.007 23.1709 280.537 19.0349 278.093 19.0349C275.696 19.0349 275.038 22.1369 275.038 28.4819ZM309.695 42.1589C309.695 43.9449 307.721 44.5559 305.841 44.5559C304.337 44.5559 302.927 44.1799 302.551 43.7099C301.94 42.8639 302.034 39.8559 302.081 38.6809C302.269 30.1739 302.222 21.6669 302.457 13.1599C302.457 10.8099 308.238 10.3869 309.836 10.3869C312.562 10.3869 315.288 11.0919 317.638 12.8309C322.62 16.4969 322.714 28.3409 318.202 33.2759C319.8 36.4249 319.941 37.2239 320.74 39.1979C321.633 41.4539 322.949 44.0859 321.116 44.2739C320.693 44.3209 319.095 44.4619 317.544 44.4619C315.758 44.4619 314.019 44.2739 313.925 43.6159C313.643 41.5479 312.233 37.7409 311.575 35.0149C310.823 35.1559 309.695 36.1429 309.695 36.1429V42.1589ZM309.883 27.5419C315.1 27.9649 316.369 18.4239 309.883 19.1759C309.836 21.9959 309.883 27.5419 309.883 27.5419ZM338.986 44.4149C335.837 44.4149 332.641 44.6029 329.492 44.5559C328.364 44.5559 326.86 44.4619 325.967 43.6629C325.732 43.4279 325.544 43.0989 325.45 42.7229C325.262 42.2529 325.215 41.7359 325.215 41.2189C325.121 40.6079 325.121 39.9499 325.121 39.2919C325.121 35.9549 325.168 32.6649 325.215 29.3749C325.356 25.6619 325.591 21.9489 325.544 18.2829C325.497 16.3559 325.45 14.4289 325.685 12.5959C325.732 12.2669 325.779 11.9379 325.92 11.7029C326.014 11.4209 326.249 11.2329 326.437 11.1859C326.86 10.9979 327.33 11.0449 327.753 11.0919C328.599 11.1389 329.492 11.2329 330.338 11.2799C331.654 11.3739 332.97 11.4209 334.286 11.4209C336.166 11.4209 338.046 11.3269 339.926 11.0919C340.537 10.9979 341.148 10.9039 341.806 10.9039C342.088 10.9039 342.464 11.0919 342.464 11.4209C342.558 11.7969 342.558 12.2669 342.605 12.6899C342.652 14.2879 342.793 15.9329 342.746 17.5779C342.699 17.9069 342.652 18.2359 342.558 18.5649C342.464 18.8939 342.276 19.1759 342.088 19.3639C341.759 19.5989 341.336 19.6929 340.96 19.7399C339.55 19.8339 338.14 19.9279 336.73 19.9279C336.025 19.8809 335.32 19.7869 334.568 19.6929C333.44 19.6929 333.44 20.2569 333.44 21.2909C333.44 21.8549 333.393 23.4529 333.675 23.8759C333.769 24.0169 334.192 24.0169 334.333 24.0639C335.508 24.0639 336.636 23.9699 337.811 23.8289C338.422 23.7349 339.033 23.6409 339.691 23.5939C341.054 23.5939 341.665 24.1109 341.759 25.4739C341.806 26.3199 341.759 27.1659 341.712 28.0119C341.712 30.4089 341.618 31.9129 338.798 32.1949C337.482 32.2419 336.166 32.1479 334.85 31.9599C334.521 31.9129 334.145 31.8659 333.816 32.0069C333.44 32.1949 333.346 33.2289 333.346 33.8399C333.346 34.3569 333.346 35.7669 333.628 36.0959C333.769 36.3309 334.38 36.3779 334.568 36.3779C336.448 36.3309 338.281 35.7669 340.114 35.7669C340.584 35.7669 341.007 35.7669 341.43 35.8609C342.088 36.0959 342.417 36.2839 342.558 36.9889C342.699 37.6939 342.699 38.4459 342.746 39.1979C342.746 40.2319 342.699 41.3129 342.558 42.3469C342.558 42.6289 342.511 42.9579 342.417 43.2399C342.229 43.7099 341.806 44.0389 341.477 44.1799C340.678 44.5089 339.832 44.4149 338.986 44.4149ZM366.489 31.6779C366.489 40.0439 363.011 44.2739 356.807 44.2739C352.342 44.2739 347.783 41.7359 346.326 34.7799C343.929 23.1239 347.783 10.7629 356.29 10.7629C363.246 10.7629 366.724 15.5099 366.724 22.9829C366.724 24.3459 365.22 24.9099 363.669 24.9099C362.071 24.9099 360.379 24.2519 360.379 23.2179C360.379 20.4449 358.875 19.2229 357.136 19.2229C351.59 19.2229 350.697 36.6129 357.183 36.1429C359.11 36.0019 360.379 34.5449 360.144 31.2079C360.097 29.9389 361.648 29.2339 363.199 29.2339C364.844 29.2339 366.489 29.9859 366.489 31.6779ZM389.514 38.3049C387.587 42.8169 384.109 45.0729 380.584 45.0729C376.542 45.0729 372.5 42.1589 370.573 36.4719C369.68 33.9809 369.304 31.2079 369.304 28.4819C369.304 18.0009 373.44 10.6219 380.396 10.6219C389.373 10.6219 391.112 19.8809 391.394 27.0249C391.582 30.8319 391.018 34.7799 389.514 38.3049ZM377.529 28.4819C377.529 33.1349 378.328 37.1299 380.96 36.7539C383.921 36.2369 383.968 30.5969 383.733 27.1659C383.498 23.1709 383.028 19.0349 380.584 19.0349C378.187 19.0349 377.529 22.1369 377.529 28.4819ZM401.801 40.9839C401.801 42.7699 401.801 44.6499 399.498 44.6499C398.276 44.6499 397.007 44.3679 395.832 44.0859C395.08 43.8979 394.939 43.5689 394.845 42.8169C394.751 41.9239 394.751 41.0309 394.751 40.1379C394.845 37.4589 394.986 34.7799 394.986 32.1009C395.033 29.6569 395.033 27.2129 394.986 24.8159C394.939 22.1369 394.751 19.5049 394.704 16.8259C394.704 15.6979 394.61 12.5489 395.174 11.7499C395.315 11.5149 395.503 11.3739 395.738 11.3269C395.973 11.2799 396.208 11.3269 396.49 11.3739C397.524 11.4209 398.558 11.3269 399.592 11.0919C399.921 11.0449 400.344 10.9039 400.673 11.0449C400.767 11.0919 400.908 11.3739 400.955 11.4209C401.66 12.5489 402.224 13.9119 402.882 15.1809C403.963 17.4369 405.42 19.4109 406.548 21.6199C407.394 23.1239 408.052 24.7219 408.804 26.2729C408.804 25.1919 408.71 24.1109 408.71 22.9829C408.663 21.4789 408.663 20.0219 408.616 18.5179C408.569 16.9669 408.475 15.4159 408.569 13.8649C408.616 13.0189 408.804 12.0319 409.509 11.4679C409.885 11.2799 410.308 11.2329 410.684 11.2329C411.765 11.2329 412.846 11.2799 413.927 11.2799C414.35 11.2799 414.82 11.2799 415.196 11.4209C415.384 11.5149 415.572 11.7029 415.713 11.9379C415.854 12.2669 415.901 12.7369 415.901 13.1599C415.901 14.1939 415.854 15.2279 415.854 16.2149C415.807 17.4369 415.854 18.6119 415.854 19.7869C415.854 23.2649 415.807 26.7429 415.901 30.2209C415.901 32.4299 415.995 34.5919 415.948 36.7539C415.901 38.5399 415.76 40.2789 415.572 42.0179C415.572 42.5349 415.478 43.0989 415.384 43.5689C415.29 43.8509 415.149 44.1799 414.914 44.3209C414.773 44.4619 414.538 44.4619 414.303 44.4619C413.363 44.5089 412.376 44.5089 411.436 44.4149C411.013 44.3679 410.543 44.3209 410.167 44.0389C409.791 43.8039 409.556 43.2869 409.368 42.8639C409.086 42.2999 408.898 41.7829 408.663 41.2189C407.253 37.9759 405.42 35.2029 403.822 32.1479C403.117 30.7379 402.506 29.1869 401.707 27.8709C401.66 29.9859 401.801 32.1009 401.801 34.2159V37.2709C401.801 38.4929 401.848 39.7149 401.801 40.9839ZM439.406 38.3049C437.479 42.8169 434.001 45.0729 430.476 45.0729C426.434 45.0729 422.392 42.1589 420.465 36.4719C419.572 33.9809 419.196 31.2079 419.196 28.4819C419.196 18.0009 423.332 10.6219 430.288 10.6219C439.265 10.6219 441.004 19.8809 441.286 27.0249C441.474 30.8319 440.91 34.7799 439.406 38.3049ZM427.421 28.4819C427.421 33.1349 428.22 37.1299 430.852 36.7539C433.813 36.2369 433.86 30.5969 433.625 27.1659C433.39 23.1709 432.92 19.0349 430.476 19.0349C428.079 19.0349 427.421 22.1369 427.421 28.4819ZM464.711 31.6779C464.711 40.0439 461.233 44.2739 455.029 44.2739C450.564 44.2739 446.005 41.7359 444.548 34.7799C442.151 23.1239 446.005 10.7629 454.512 10.7629C461.468 10.7629 464.946 15.5099 464.946 22.9829C464.946 24.3459 463.442 24.9099 461.891 24.9099C460.293 24.9099 458.601 24.2519 458.601 23.2179C458.601 20.4449 457.097 19.2229 455.358 19.2229C449.812 19.2229 448.919 36.6129 455.405 36.1429C457.332 36.0019 458.601 34.5449 458.366 31.2079C458.319 29.9389 459.87 29.2339 461.421 29.2339C463.066 29.2339 464.711 29.9859 464.711 31.6779ZM482.097 44.4149C478.948 44.4149 475.752 44.6029 472.603 44.5559C471.475 44.5559 469.971 44.4619 469.078 43.6629C468.843 43.4279 468.655 43.0989 468.561 42.7229C468.373 42.2529 468.326 41.7359 468.326 41.2189C468.232 40.6079 468.232 39.9499 468.232 39.2919C468.232 35.9549 468.279 32.6649 468.326 29.3749C468.467 25.6619 468.702 21.9489 468.655 18.2829C468.608 16.3559 468.561 14.4289 468.796 12.5959C468.843 12.2669 468.89 11.9379 469.031 11.7029C469.125 11.4209 469.36 11.2329 469.548 11.1859C469.971 10.9979 470.441 11.0449 470.864 11.0919C471.71 11.1389 472.603 11.2329 473.449 11.2799C474.765 11.3739 476.081 11.4209 477.397 11.4209C479.277 11.4209 481.157 11.3269 483.037 11.0919C483.648 10.9979 484.259 10.9039 484.917 10.9039C485.199 10.9039 485.575 11.0919 485.575 11.4209C485.669 11.7969 485.669 12.2669 485.716 12.6899C485.763 14.2879 485.904 15.9329 485.857 17.5779C485.81 17.9069 485.763 18.2359 485.669 18.5649C485.575 18.8939 485.387 19.1759 485.199 19.3639C484.87 19.5989 484.447 19.6929 484.071 19.7399C482.661 19.8339 481.251 19.9279 479.841 19.9279C479.136 19.8809 478.431 19.7869 477.679 19.6929C476.551 19.6929 476.551 20.2569 476.551 21.2909C476.551 21.8549 476.504 23.4529 476.786 23.8759C476.88 24.0169 477.303 24.0169 477.444 24.0639C478.619 24.0639 479.747 23.9699 480.922 23.8289C481.533 23.7349 482.144 23.6409 482.802 23.5939C484.165 23.5939 484.776 24.1109 484.87 25.4739C484.917 26.3199 484.87 27.1659 484.823 28.0119C484.823 30.4089 484.729 31.9129 481.909 32.1949C480.593 32.2419 479.277 32.1479 477.961 31.9599C477.632 31.9129 477.256 31.8659 476.927 32.0069C476.551 32.1949 476.457 33.2289 476.457 33.8399C476.457 34.3569 476.457 35.7669 476.739 36.0959C476.88 36.3309 477.491 36.3779 477.679 36.3779C479.559 36.3309 481.392 35.7669 483.225 35.7669C483.695 35.7669 484.118 35.7669 484.541 35.8609C485.199 36.0959 485.528 36.2839 485.669 36.9889C485.81 37.6939 485.81 38.4459 485.857 39.1979C485.857 40.2319 485.81 41.3129 485.669 42.3469C485.669 42.6289 485.622 42.9579 485.528 43.2399C485.34 43.7099 484.917 44.0389 484.588 44.1799C483.789 44.5089 482.943 44.4149 482.097 44.4149ZM497.098 42.1589C497.098 43.9449 495.124 44.5559 493.244 44.5559C491.74 44.5559 490.33 44.1799 489.954 43.7099C489.343 42.8639 489.437 39.8559 489.484 38.6809C489.672 30.1739 489.625 21.6669 489.86 13.1599C489.86 10.8099 495.641 10.3869 497.239 10.3869C499.965 10.3869 502.691 11.0919 505.041 12.8309C510.023 16.4969 510.117 28.3409 505.605 33.2759C507.203 36.4249 507.344 37.2239 508.143 39.1979C509.036 41.4539 510.352 44.0859 508.519 44.2739C508.096 44.3209 506.498 44.4619 504.947 44.4619C503.161 44.4619 501.422 44.2739 501.328 43.6159C501.046 41.5479 499.636 37.7409 498.978 35.0149C498.226 35.1559 497.098 36.1429 497.098 36.1429V42.1589ZM497.286 27.5419C502.503 27.9649 503.772 18.4239 497.286 19.1759C497.239 21.9959 497.286 27.5419 497.286 27.5419ZM526.812 44.4149C523.804 44.6499 520.702 44.1799 517.459 44.1799C516.472 44.1799 512.947 44.8849 512.947 42.0179C512.947 40.0909 512.853 35.3439 512.853 33.4169C512.712 26.8369 512.336 20.2099 512.618 13.6299C512.712 11.5149 512.947 11.1389 514.357 11.1389C515.062 11.1389 516.096 11.2329 517.6 11.2329C518.352 11.2329 519.574 10.9979 519.856 11.9849C520.655 14.9929 520.279 27.3539 520.326 30.5969C520.326 32.5239 520.044 34.8739 521.407 34.9679C522.77 35.0149 526.577 34.9679 528.645 34.9679C529.726 34.9679 529.773 38.9629 529.773 40.4669C529.773 44.5089 528.504 44.2739 526.812 44.4149ZM538.836 44.5559C538.507 44.7439 537.802 44.8379 537.05 44.8379C535.546 44.8379 533.619 44.5559 532.961 44.5089C529.812 44.2269 531.175 42.6289 533.243 34.9209C535.311 27.3069 536.862 21.1499 538.836 13.4889C539.588 10.7159 540.857 10.9979 543.959 10.9979C547.437 10.9979 548.001 10.9509 548.612 13.6299C551.15 24.7219 552.936 32.7589 555.427 42.2059C555.709 43.2399 555.568 44.0859 554.816 44.2739C554.111 44.4149 552.278 44.6499 550.727 44.6499C549.787 44.6499 548.941 44.5559 548.518 44.3209C547.484 43.7099 547.484 38.2579 546.121 38.2579C544.288 38.2109 543.066 38.1169 541.233 38.2579C539.588 38.3989 540.387 43.6629 538.836 44.5559ZM541.797 30.4559C542.408 30.5499 543.113 30.5969 543.818 30.5969C544.476 30.5969 545.087 30.5499 545.604 30.4559C545.228 28.2939 543.865 22.8419 543.63 21.2439C543.066 24.3459 542.408 27.4009 541.797 30.4559ZM562.619 33.5579C562.337 33.5579 562.055 33.5109 561.726 33.5109C560.786 33.3699 560.41 32.7119 560.316 31.8189C560.269 31.1609 560.269 30.5029 560.316 29.8449C560.41 28.7169 560.739 27.5889 561.256 26.7429C561.914 25.6149 562.807 24.7689 563.606 23.7349C564.076 23.1239 564.546 22.3249 564.687 21.4319C564.969 19.9279 564.358 18.3769 563.324 18.3769C562.76 18.3769 562.243 18.7999 561.961 19.2699C561.773 19.6459 561.773 20.2099 561.632 20.6799C561.491 21.0559 561.209 21.3379 560.927 21.4789C560.598 21.5729 560.222 21.6199 559.846 21.6199C558.53 21.7139 557.167 21.7139 555.851 21.5729C554.488 21.4319 555.24 17.7189 555.804 16.3089C557.026 13.0659 561.585 10.6689 564.875 10.6689C565.956 10.6689 567.084 10.9509 568.071 11.5149C571.032 13.1129 572.771 15.7919 572.771 19.2229C572.677 22.9829 571.784 26.1319 568.87 28.6229C568.494 28.9519 568.071 29.2339 567.742 29.6099C567.413 29.8919 567.084 30.2679 566.896 30.7379C566.708 31.2549 566.661 31.9129 566.52 32.4299C566.426 32.7119 566.238 32.9939 566.05 33.1349C565.768 33.3229 565.439 33.3699 565.157 33.4169C564.311 33.5109 563.465 33.5109 562.619 33.5579ZM567.272 38.1639C567.883 41.8769 566.003 44.8849 563.512 44.8849C563.183 44.8849 562.901 44.8379 562.572 44.7439C560.175 44.0389 559.376 39.6209 560.927 36.8479C561.773 35.2969 562.948 34.5449 564.076 34.5449C565.533 34.5449 566.849 35.7669 567.272 38.1639Z" fill="black"/>
</svg>
