<svg width="376" height="91" viewBox="0 0 376 91" fill="none" xmlns="http://www.w3.org/2000/svg">
<g filter="url(#filter0_d_439_293)">
<path d="M4 10C4 4.47715 8.47715 0 14 0H362C367.523 0 372 4.47715 372 10V73C372 78.5229 367.523 83 362 83H14C8.47716 83 4 78.5228 4 73V10Z" fill="black"/>
<path d="M43.1088 45.404C43.1088 53.77 39.6308 58 33.4268 58C28.9618 58 24.4028 55.462 22.9458 48.506C20.5488 36.85 24.4028 24.489 32.9098 24.489C39.8658 24.489 43.3438 29.236 43.3438 36.709C43.3438 38.072 41.8398 38.636 40.2888 38.636C38.6908 38.636 36.9988 37.978 36.9988 36.944C36.9988 34.171 35.4948 32.949 33.7558 32.949C28.2098 32.949 27.3168 50.339 33.8028 49.869C35.7298 49.728 36.9988 48.271 36.7638 44.934C36.7168 43.665 38.2678 42.96 39.8188 42.96C41.4638 42.96 43.1088 43.712 43.1088 45.404ZM66.224 52.031C64.297 56.543 60.819 58.799 57.294 58.799C53.252 58.799 49.21 55.885 47.283 50.198C46.39 47.707 46.014 44.934 46.014 42.208C46.014 31.727 50.15 24.348 57.106 24.348C66.083 24.348 67.822 33.607 68.104 40.751C68.292 44.558 67.728 48.506 66.224 52.031ZM54.239 42.208C54.239 46.861 55.038 50.856 57.67 50.48C60.631 49.963 60.678 44.323 60.443 40.892C60.208 36.897 59.738 32.761 57.294 32.761C54.897 32.761 54.239 35.863 54.239 42.208ZM85.6545 58.141C82.6465 58.376 79.5445 57.906 76.3015 57.906C75.3145 57.906 71.7895 58.611 71.7895 55.744C71.7895 53.817 71.6955 49.07 71.6955 47.143C71.5545 40.563 71.1785 33.936 71.4605 27.356C71.5545 25.241 71.7895 24.865 73.1995 24.865C73.9045 24.865 74.9385 24.959 76.4425 24.959C77.1945 24.959 78.4165 24.724 78.6985 25.711C79.4975 28.719 79.1215 41.08 79.1685 44.323C79.1685 46.25 78.8865 48.6 80.2495 48.694C81.6125 48.741 85.4195 48.694 87.4875 48.694C88.5685 48.694 88.6155 52.689 88.6155 54.193C88.6155 58.235 87.3465 58 85.6545 58.141ZM111.61 49.681C110.482 55.227 107.521 58.376 101.881 58.376C98.0272 58.376 93.8442 57.342 91.9642 53.347C89.8022 48.741 90.2252 32.244 90.4132 26.698C90.4602 24.771 92.1992 25.241 93.5622 25.194C94.0322 25.147 95.0192 24.959 95.8182 24.959C96.4292 24.959 96.9462 25.053 97.1812 25.429C97.7922 26.322 97.6042 29.565 97.5102 30.834C97.3222 35.487 97.6042 41.644 97.7922 46.25C97.8862 48.835 99.2022 49.963 100.612 49.963C102.304 49.963 104.043 48.459 104.043 46.015C104.043 42.208 103.714 30.223 104.043 26.416C104.231 24.536 106.017 25.006 107.333 25.006C108.132 25.053 110.388 24.724 110.999 25.57C111.657 26.51 111.375 30.364 111.422 31.727C111.516 34.735 112.221 46.814 111.61 49.681ZM143.063 55.838C143.157 57.248 140.995 58.094 139.162 58.094C137.799 58.094 136.624 57.624 136.671 56.59C136.765 51.232 136.483 45.827 136.389 40.422C134.791 46.297 133.616 50.715 132.159 56.496C131.924 57.389 130.608 57.953 129.339 57.953C128.164 57.953 127.036 57.53 126.801 56.496C126.425 54.992 125.485 51.326 125.109 49.775C124.263 46.203 123.464 43.242 122.383 39.764C122.336 43.947 122.383 47.096 122.383 51.749C122.383 54.757 122.806 58.047 120.738 57.859C119.939 57.812 117.213 58.141 116.555 57.53C115.521 56.543 115.803 52.36 115.803 50.621C115.756 44.088 115.803 39.341 115.568 32.808C115.474 30.364 115.427 24.959 117.166 25.006C118.294 25.006 120.08 24.583 121.631 24.583C122.994 24.583 124.169 24.912 124.498 26.087C126.472 32.62 128.023 37.696 129.668 42.772C130.561 38.824 131.971 35.158 133.005 31.257C133.381 29.8 133.945 25.382 134.932 24.677C135.59 24.16 138.551 24.301 139.303 24.301C140.196 24.301 142.452 24.16 143.063 25.053C143.392 25.617 143.251 27.544 143.204 28.296C142.922 33.701 142.922 39.2 143.063 44.652C143.251 50.433 142.922 52.83 143.063 55.838ZM154.289 54.71C154.289 56.496 154.289 58.376 151.986 58.376C150.764 58.376 149.495 58.094 148.32 57.812C147.568 57.624 147.427 57.295 147.333 56.543C147.239 55.65 147.239 54.757 147.239 53.864C147.333 51.185 147.474 48.506 147.474 45.827C147.521 43.383 147.521 40.939 147.474 38.542C147.427 35.863 147.239 33.231 147.192 30.552C147.192 29.424 147.098 26.275 147.662 25.476C147.803 25.241 147.991 25.1 148.226 25.053C148.461 25.006 148.696 25.053 148.978 25.1C150.012 25.147 151.046 25.053 152.08 24.818C152.409 24.771 152.832 24.63 153.161 24.771C153.255 24.818 153.396 25.1 153.443 25.147C154.148 26.275 154.712 27.638 155.37 28.907C156.451 31.163 157.908 33.137 159.036 35.346C159.882 36.85 160.54 38.448 161.292 39.999C161.292 38.918 161.198 37.837 161.198 36.709C161.151 35.205 161.151 33.748 161.104 32.244C161.057 30.693 160.963 29.142 161.057 27.591C161.104 26.745 161.292 25.758 161.997 25.194C162.373 25.006 162.796 24.959 163.172 24.959C164.253 24.959 165.334 25.006 166.415 25.006C166.838 25.006 167.308 25.006 167.684 25.147C167.872 25.241 168.06 25.429 168.201 25.664C168.342 25.993 168.389 26.463 168.389 26.886C168.389 27.92 168.342 28.954 168.342 29.941C168.295 31.163 168.342 32.338 168.342 33.513C168.342 36.991 168.295 40.469 168.389 43.947C168.389 46.156 168.483 48.318 168.436 50.48C168.389 52.266 168.248 54.005 168.06 55.744C168.06 56.261 167.966 56.825 167.872 57.295C167.778 57.577 167.637 57.906 167.402 58.047C167.261 58.188 167.026 58.188 166.791 58.188C165.851 58.235 164.864 58.235 163.924 58.141C163.501 58.094 163.031 58.047 162.655 57.765C162.279 57.53 162.044 57.013 161.856 56.59C161.574 56.026 161.386 55.509 161.151 54.945C159.741 51.702 157.908 48.929 156.31 45.874C155.605 44.464 154.994 42.913 154.195 41.597C154.148 43.712 154.289 45.827 154.289 47.942V50.997C154.289 52.219 154.336 53.441 154.289 54.71ZM178.781 58.282C178.452 58.47 177.747 58.564 176.995 58.564C175.491 58.564 173.564 58.282 172.906 58.235C169.757 57.953 171.12 56.355 173.188 48.647C175.256 41.033 176.807 34.876 178.781 27.215C179.533 24.442 180.802 24.724 183.904 24.724C187.382 24.724 187.946 24.677 188.557 27.356C191.095 38.448 192.881 46.485 195.372 55.932C195.654 56.966 195.513 57.812 194.761 58C194.056 58.141 192.223 58.376 190.672 58.376C189.732 58.376 188.886 58.282 188.463 58.047C187.429 57.436 187.429 51.984 186.066 51.984C184.233 51.937 183.011 51.843 181.178 51.984C179.533 52.125 180.332 57.389 178.781 58.282ZM181.742 44.182C182.353 44.276 183.058 44.323 183.763 44.323C184.421 44.323 185.032 44.276 185.549 44.182C185.173 42.02 183.81 36.568 183.575 34.97C183.011 38.072 182.353 41.127 181.742 44.182ZM215.012 54.71C215.012 56.496 215.012 58.376 212.709 58.376C211.487 58.376 210.218 58.094 209.043 57.812C208.291 57.624 208.15 57.295 208.056 56.543C207.962 55.65 207.962 54.757 207.962 53.864C208.056 51.185 208.197 48.506 208.197 45.827C208.244 43.383 208.244 40.939 208.197 38.542C208.15 35.863 207.962 33.231 207.915 30.552C207.915 29.424 207.821 26.275 208.385 25.476C208.526 25.241 208.714 25.1 208.949 25.053C209.184 25.006 209.419 25.053 209.701 25.1C210.735 25.147 211.769 25.053 212.803 24.818C213.132 24.771 213.555 24.63 213.884 24.771C213.978 24.818 214.119 25.1 214.166 25.147C214.871 26.275 215.435 27.638 216.093 28.907C217.174 31.163 218.631 33.137 219.759 35.346C220.605 36.85 221.263 38.448 222.015 39.999C222.015 38.918 221.921 37.837 221.921 36.709C221.874 35.205 221.874 33.748 221.827 32.244C221.78 30.693 221.686 29.142 221.78 27.591C221.827 26.745 222.015 25.758 222.72 25.194C223.096 25.006 223.519 24.959 223.895 24.959C224.976 24.959 226.057 25.006 227.138 25.006C227.561 25.006 228.031 25.006 228.407 25.147C228.595 25.241 228.783 25.429 228.924 25.664C229.065 25.993 229.112 26.463 229.112 26.886C229.112 27.92 229.065 28.954 229.065 29.941C229.018 31.163 229.065 32.338 229.065 33.513C229.065 36.991 229.018 40.469 229.112 43.947C229.112 46.156 229.206 48.318 229.159 50.48C229.112 52.266 228.971 54.005 228.783 55.744C228.783 56.261 228.689 56.825 228.595 57.295C228.501 57.577 228.36 57.906 228.125 58.047C227.984 58.188 227.749 58.188 227.514 58.188C226.574 58.235 225.587 58.235 224.647 58.141C224.224 58.094 223.754 58.047 223.378 57.765C223.002 57.53 222.767 57.013 222.579 56.59C222.297 56.026 222.109 55.509 221.874 54.945C220.464 51.702 218.631 48.929 217.033 45.874C216.328 44.464 215.717 42.913 214.918 41.597C214.871 43.712 215.012 45.827 215.012 47.942V50.997C215.012 52.219 215.059 53.441 215.012 54.71ZM252.618 52.031C250.691 56.543 247.213 58.799 243.688 58.799C239.646 58.799 235.604 55.885 233.677 50.198C232.784 47.707 232.408 44.934 232.408 42.208C232.408 31.727 236.544 24.348 243.5 24.348C252.477 24.348 254.216 33.607 254.498 40.751C254.686 44.558 254.122 48.506 252.618 52.031ZM240.633 42.208C240.633 46.861 241.432 50.856 244.064 50.48C247.025 49.963 247.072 44.323 246.837 40.892C246.602 36.897 246.132 32.761 243.688 32.761C241.291 32.761 240.633 35.863 240.633 42.208ZM265.421 55.885C265.421 57.671 263.447 58.282 261.567 58.282C260.063 58.282 258.653 57.906 258.277 57.436C257.666 56.59 257.76 53.582 257.807 52.407C257.995 43.9 257.948 35.393 258.183 26.886C258.183 24.536 263.964 24.113 265.562 24.113C268.288 24.113 271.014 24.818 273.364 26.557C278.346 30.223 278.44 42.067 273.928 47.002C275.526 50.151 275.667 50.95 276.466 52.924C277.359 55.18 278.675 57.812 276.842 58C276.419 58.047 274.821 58.188 273.27 58.188C271.484 58.188 269.745 58 269.651 57.342C269.369 55.274 267.959 51.467 267.301 48.741C266.549 48.882 265.421 49.869 265.421 49.869V55.885ZM265.609 41.268C270.826 41.691 272.095 32.15 265.609 32.902C265.562 35.722 265.609 41.268 265.609 41.268ZM308.389 55.838C308.483 57.248 306.321 58.094 304.488 58.094C303.125 58.094 301.95 57.624 301.997 56.59C302.091 51.232 301.809 45.827 301.715 40.422C300.117 46.297 298.942 50.715 297.485 56.496C297.25 57.389 295.934 57.953 294.665 57.953C293.49 57.953 292.362 57.53 292.127 56.496C291.751 54.992 290.811 51.326 290.435 49.775C289.589 46.203 288.79 43.242 287.709 39.764C287.662 43.947 287.709 47.096 287.709 51.749C287.709 54.757 288.132 58.047 286.064 57.859C285.265 57.812 282.539 58.141 281.881 57.53C280.847 56.543 281.129 52.36 281.129 50.621C281.082 44.088 281.129 39.341 280.894 32.808C280.8 30.364 280.753 24.959 282.492 25.006C283.62 25.006 285.406 24.583 286.957 24.583C288.32 24.583 289.495 24.912 289.824 26.087C291.798 32.62 293.349 37.696 294.994 42.772C295.887 38.824 297.297 35.158 298.331 31.257C298.707 29.8 299.271 25.382 300.258 24.677C300.916 24.16 303.877 24.301 304.629 24.301C305.522 24.301 307.778 24.16 308.389 25.053C308.718 25.617 308.577 27.544 308.53 28.296C308.248 33.701 308.248 39.2 308.389 44.652C308.577 50.433 308.248 52.83 308.389 55.838ZM318.863 58.282C318.534 58.47 317.829 58.564 317.077 58.564C315.573 58.564 313.646 58.282 312.988 58.235C309.839 57.953 311.202 56.355 313.27 48.647C315.338 41.033 316.889 34.876 318.863 27.215C319.615 24.442 320.884 24.724 323.986 24.724C327.464 24.724 328.028 24.677 328.639 27.356C331.177 38.448 332.963 46.485 335.454 55.932C335.736 56.966 335.595 57.812 334.843 58C334.138 58.141 332.305 58.376 330.754 58.376C329.814 58.376 328.968 58.282 328.545 58.047C327.511 57.436 327.511 51.984 326.148 51.984C324.315 51.937 323.093 51.843 321.26 51.984C319.615 52.125 320.414 57.389 318.863 58.282ZM321.824 44.182C322.435 44.276 323.14 44.323 323.845 44.323C324.503 44.323 325.114 44.276 325.631 44.182C325.255 42.02 323.892 36.568 323.657 34.97C323.093 38.072 322.435 41.127 321.824 44.182ZM352.37 58.141C349.362 58.376 346.26 57.906 343.017 57.906C342.03 57.906 338.505 58.611 338.505 55.744C338.505 53.817 338.411 49.07 338.411 47.143C338.27 40.563 337.894 33.936 338.176 27.356C338.27 25.241 338.505 24.865 339.915 24.865C340.62 24.865 341.654 24.959 343.158 24.959C343.91 24.959 345.132 24.724 345.414 25.711C346.213 28.719 345.837 41.08 345.884 44.323C345.884 46.25 345.602 48.6 346.965 48.694C348.328 48.741 352.135 48.694 354.203 48.694C355.284 48.694 355.331 52.689 355.331 54.193C355.331 58.235 354.062 58 352.37 58.141Z" fill="#FEF8E8"/>
</g>
<defs>
<filter id="filter0_d_439_293" x="0" y="0" width="376" height="91" filterUnits="userSpaceOnUse" color-interpolation-filters="sRGB">
<feFlood flood-opacity="0" result="BackgroundImageFix"/>
<feColorMatrix in="SourceAlpha" type="matrix" values="0 0 0 0 0 0 0 0 0 0 0 0 0 0 0 0 0 0 127 0" result="hardAlpha"/>
<feOffset dy="4"/>
<feGaussianBlur stdDeviation="2"/>
<feComposite in2="hardAlpha" operator="out"/>
<feColorMatrix type="matrix" values="0 0 0 0 0 0 0 0 0 0 0 0 0 0 0 0 0 0 0.25 0"/>
<feBlend mode="normal" in2="BackgroundImageFix" result="effect1_dropShadow_439_293"/>
<feBlend mode="normal" in="SourceGraphic" in2="effect1_dropShadow_439_293" result="shape"/>
</filter>
</defs>
</svg>
