<svg width="323" height="91" viewBox="0 0 323 91" fill="none" xmlns="http://www.w3.org/2000/svg">
<g filter="url(#filter0_d_439_293)">
<path d="M4 10C4 4.47715 8.47715 0 14 0H309C314.523 0 319 4.47715 319 10V73C319 78.5229 314.523 83 309 83H14C8.47715 83 4 78.5228 4 73V10Z" fill="black"/>
<path d="M28.9027 58.047C27.3517 57.953 25.3777 58.235 23.6387 58.235C21.2417 58.235 19.2677 57.765 19.2677 55.227V27.92C19.2677 25.194 21.2887 24.583 23.8267 24.583C25.9887 24.583 28.5267 25.053 30.4537 25.006C42.0627 24.724 42.5327 58.658 28.9027 58.047ZM26.9287 33.513C26.7877 35.816 25.8477 48.976 27.4457 48.976C34.0727 48.976 35.1067 32.573 26.9287 33.513ZM47.5456 58.282C47.2166 58.47 46.5116 58.564 45.7596 58.564C44.2556 58.564 42.3286 58.282 41.6706 58.235C38.5216 57.953 39.8846 56.355 41.9526 48.647C44.0206 41.033 45.5716 34.876 47.5456 27.215C48.2976 24.442 49.5666 24.724 52.6686 24.724C56.1466 24.724 56.7106 24.677 57.3216 27.356C59.8596 38.448 61.6456 46.485 64.1366 55.932C64.4186 56.966 64.2776 57.812 63.5256 58C62.8206 58.141 60.9876 58.376 59.4366 58.376C58.4966 58.376 57.6506 58.282 57.2276 58.047C56.1936 57.436 56.1936 51.984 54.8306 51.984C52.9976 51.937 51.7756 51.843 49.9426 51.984C48.2976 52.125 49.0966 57.389 47.5456 58.282ZM50.5066 44.182C51.1176 44.276 51.8226 44.323 52.5276 44.323C53.1856 44.323 53.7966 44.276 54.3136 44.182C53.9376 42.02 52.5746 36.568 52.3396 34.97C51.7756 38.072 51.1176 41.127 50.5066 44.182ZM73.9089 54.71C73.9089 56.496 73.9089 58.376 71.6059 58.376C70.3839 58.376 69.1149 58.094 67.9399 57.812C67.1879 57.624 67.0469 57.295 66.9529 56.543C66.8589 55.65 66.8589 54.757 66.8589 53.864C66.9529 51.185 67.0939 48.506 67.0939 45.827C67.1409 43.383 67.1409 40.939 67.0939 38.542C67.0469 35.863 66.8589 33.231 66.8119 30.552C66.8119 29.424 66.7179 26.275 67.2819 25.476C67.4229 25.241 67.6109 25.1 67.8459 25.053C68.0809 25.006 68.3159 25.053 68.5979 25.1C69.6319 25.147 70.6659 25.053 71.6999 24.818C72.0289 24.771 72.4519 24.63 72.7809 24.771C72.8749 24.818 73.0159 25.1 73.0629 25.147C73.7679 26.275 74.3319 27.638 74.9899 28.907C76.0709 31.163 77.5279 33.137 78.6559 35.346C79.5019 36.85 80.1599 38.448 80.9119 39.999C80.9119 38.918 80.8179 37.837 80.8179 36.709C80.7709 35.205 80.7709 33.748 80.7239 32.244C80.6769 30.693 80.5829 29.142 80.6769 27.591C80.7239 26.745 80.9119 25.758 81.6169 25.194C81.9929 25.006 82.4159 24.959 82.7919 24.959C83.8729 24.959 84.9539 25.006 86.0349 25.006C86.4579 25.006 86.9279 25.006 87.3039 25.147C87.4919 25.241 87.6799 25.429 87.8209 25.664C87.9619 25.993 88.0089 26.463 88.0089 26.886C88.0089 27.92 87.9619 28.954 87.9619 29.941C87.9149 31.163 87.9619 32.338 87.9619 33.513C87.9619 36.991 87.9149 40.469 88.0089 43.947C88.0089 46.156 88.1029 48.318 88.0559 50.48C88.0089 52.266 87.8679 54.005 87.6799 55.744C87.6799 56.261 87.5859 56.825 87.4919 57.295C87.3979 57.577 87.2569 57.906 87.0219 58.047C86.8809 58.188 86.6459 58.188 86.4109 58.188C85.4709 58.235 84.4839 58.235 83.5439 58.141C83.1209 58.094 82.6509 58.047 82.2749 57.765C81.8989 57.53 81.6639 57.013 81.4759 56.59C81.1939 56.026 81.0059 55.509 80.7709 54.945C79.3609 51.702 77.5279 48.929 75.9299 45.874C75.2249 44.464 74.6139 42.913 73.8149 41.597C73.7679 43.712 73.9089 45.827 73.9089 47.942V50.997C73.9089 52.219 73.9559 53.441 73.9089 54.71ZM74.8959 22.609C74.5669 22.985 72.9219 23.267 72.2639 23.267C71.8409 23.267 71.4179 23.126 71.2769 22.609C70.4779 19.084 72.1229 14.807 74.4729 14.29C74.6139 14.243 74.8019 14.243 74.9429 14.243C76.5879 14.243 78.0919 15.935 79.7369 15.7C80.1599 15.653 80.0189 14.243 80.4889 14.149C80.8649 14.055 81.2879 13.961 81.7579 13.961C82.4629 13.961 83.1679 14.149 83.4499 14.901C84.0609 16.452 83.4969 19.507 82.6509 20.823C81.9929 21.904 80.8179 22.515 79.7369 22.28C78.4209 21.951 76.8229 20.212 75.8359 20.212C75.4599 20.212 75.1779 20.447 75.0839 21.152C75.0369 21.622 75.1309 22.28 74.8959 22.609ZM111.514 52.031C109.587 56.543 106.109 58.799 102.584 58.799C98.542 58.799 94.5 55.885 92.573 50.198C91.68 47.707 91.304 44.934 91.304 42.208C91.304 31.727 95.44 24.348 102.396 24.348C111.373 24.348 113.112 33.607 113.394 40.751C113.582 44.558 113.018 48.506 111.514 52.031ZM99.529 42.208C99.529 46.861 100.328 50.856 102.96 50.48C105.921 49.963 105.968 44.323 105.733 40.892C105.498 36.897 105.028 32.761 102.584 32.761C100.187 32.761 99.529 35.863 99.529 42.208ZM132.917 58.282C132.588 58.47 131.883 58.564 131.131 58.564C129.627 58.564 127.7 58.282 127.042 58.235C123.893 57.953 125.256 56.355 127.324 48.647C129.392 41.033 130.943 34.876 132.917 27.215C133.669 24.442 134.938 24.724 138.04 24.724C141.518 24.724 142.082 24.677 142.693 27.356C145.231 38.448 147.017 46.485 149.508 55.932C149.79 56.966 149.649 57.812 148.897 58C148.192 58.141 146.359 58.376 144.808 58.376C143.868 58.376 143.022 58.282 142.599 58.047C141.565 57.436 141.565 51.984 140.202 51.984C138.369 51.937 137.147 51.843 135.314 51.984C133.669 52.125 134.468 57.389 132.917 58.282ZM135.878 44.182C136.489 44.276 137.194 44.323 137.899 44.323C138.557 44.323 139.168 44.276 139.685 44.182C139.309 42.02 137.946 36.568 137.711 34.97C137.147 38.072 136.489 41.127 135.878 44.182ZM189.546 55.838C189.64 57.248 187.478 58.094 185.645 58.094C184.282 58.094 183.107 57.624 183.154 56.59C183.248 51.232 182.966 45.827 182.872 40.422C181.274 46.297 180.099 50.715 178.642 56.496C178.407 57.389 177.091 57.953 175.822 57.953C174.647 57.953 173.519 57.53 173.284 56.496C172.908 54.992 171.968 51.326 171.592 49.775C170.746 46.203 169.947 43.242 168.866 39.764C168.819 43.947 168.866 47.096 168.866 51.749C168.866 54.757 169.289 58.047 167.221 57.859C166.422 57.812 163.696 58.141 163.038 57.53C162.004 56.543 162.286 52.36 162.286 50.621C162.239 44.088 162.286 39.341 162.051 32.808C161.957 30.364 161.91 24.959 163.649 25.006C164.777 25.006 166.563 24.583 168.114 24.583C169.477 24.583 170.652 24.912 170.981 26.087C172.955 32.62 174.506 37.696 176.151 42.772C177.044 38.824 178.454 35.158 179.488 31.257C179.864 29.8 180.428 25.382 181.415 24.677C182.073 24.16 185.034 24.301 185.786 24.301C186.679 24.301 188.935 24.16 189.546 25.053C189.875 25.617 189.734 27.544 189.687 28.296C189.405 33.701 189.405 39.2 189.546 44.652C189.734 50.433 189.405 52.83 189.546 55.838ZM200.678 50.621C200.725 52.877 201.101 58.047 199.644 58.047H194.991C193.299 58.047 193.816 55.039 193.816 50.01V32.526C193.816 26.604 193.722 24.959 195.602 24.959C196.119 24.959 197.388 24.771 198.469 24.771C199.315 24.771 200.067 24.865 200.349 25.241C201.336 26.51 200.819 31.163 200.772 33.043C200.631 38.871 200.631 44.746 200.678 50.621ZM218.646 58.141C215.497 58.141 212.301 58.329 209.152 58.282C208.024 58.282 206.52 58.188 205.627 57.389C205.392 57.154 205.204 56.825 205.11 56.449C204.922 55.979 204.875 55.462 204.875 54.945C204.781 54.334 204.781 53.676 204.781 53.018C204.781 49.681 204.828 46.391 204.875 43.101C205.016 39.388 205.251 35.675 205.204 32.009C205.157 30.082 205.11 28.155 205.345 26.322C205.392 25.993 205.439 25.664 205.58 25.429C205.674 25.147 205.909 24.959 206.097 24.912C206.52 24.724 206.99 24.771 207.413 24.818C208.259 24.865 209.152 24.959 209.998 25.006C211.314 25.1 212.63 25.147 213.946 25.147C215.826 25.147 217.706 25.053 219.586 24.818C220.197 24.724 220.808 24.63 221.466 24.63C221.748 24.63 222.124 24.818 222.124 25.147C222.218 25.523 222.218 25.993 222.265 26.416C222.312 28.014 222.453 29.659 222.406 31.304C222.359 31.633 222.312 31.962 222.218 32.291C222.124 32.62 221.936 32.902 221.748 33.09C221.419 33.325 220.996 33.419 220.62 33.466C219.21 33.56 217.8 33.654 216.39 33.654C215.685 33.607 214.98 33.513 214.228 33.419C213.1 33.419 213.1 33.983 213.1 35.017C213.1 35.581 213.053 37.179 213.335 37.602C213.429 37.743 213.852 37.743 213.993 37.79C215.168 37.79 216.296 37.696 217.471 37.555C218.082 37.461 218.693 37.367 219.351 37.32C220.714 37.32 221.325 37.837 221.419 39.2C221.466 40.046 221.419 40.892 221.372 41.738C221.372 44.135 221.278 45.639 218.458 45.921C217.142 45.968 215.826 45.874 214.51 45.686C214.181 45.639 213.805 45.592 213.476 45.733C213.1 45.921 213.006 46.955 213.006 47.566C213.006 48.083 213.006 49.493 213.288 49.822C213.429 50.057 214.04 50.104 214.228 50.104C216.108 50.057 217.941 49.493 219.774 49.493C220.244 49.493 220.667 49.493 221.09 49.587C221.748 49.822 222.077 50.01 222.218 50.715C222.359 51.42 222.359 52.172 222.406 52.924C222.406 53.958 222.359 55.039 222.218 56.073C222.218 56.355 222.171 56.684 222.077 56.966C221.889 57.436 221.466 57.765 221.137 57.906C220.338 58.235 219.492 58.141 218.646 58.141ZM240.275 58.141C237.267 58.376 234.165 57.906 230.922 57.906C229.935 57.906 226.41 58.611 226.41 55.744C226.41 53.817 226.316 49.07 226.316 47.143C226.175 40.563 225.799 33.936 226.081 27.356C226.175 25.241 226.41 24.865 227.82 24.865C228.525 24.865 229.559 24.959 231.063 24.959C231.815 24.959 233.037 24.724 233.319 25.711C234.118 28.719 233.742 41.08 233.789 44.323C233.789 46.25 233.507 48.6 234.87 48.694C236.233 48.741 240.04 48.694 242.108 48.694C243.189 48.694 243.236 52.689 243.236 54.193C243.236 58.235 241.967 58 240.275 58.141ZM252.956 50.621C253.003 52.877 253.379 58.047 251.922 58.047H247.269C245.577 58.047 246.094 55.039 246.094 50.01V32.526C246.094 26.604 246 24.959 247.88 24.959C248.397 24.959 249.666 24.771 250.747 24.771C251.593 24.771 252.345 24.865 252.627 25.241C253.614 26.51 253.097 31.163 253.05 33.043C252.909 38.871 252.909 44.746 252.956 50.621ZM264.204 54.71C264.204 56.496 264.204 58.376 261.901 58.376C260.679 58.376 259.41 58.094 258.235 57.812C257.483 57.624 257.342 57.295 257.248 56.543C257.154 55.65 257.154 54.757 257.154 53.864C257.248 51.185 257.389 48.506 257.389 45.827C257.436 43.383 257.436 40.939 257.389 38.542C257.342 35.863 257.154 33.231 257.107 30.552C257.107 29.424 257.013 26.275 257.577 25.476C257.718 25.241 257.906 25.1 258.141 25.053C258.376 25.006 258.611 25.053 258.893 25.1C259.927 25.147 260.961 25.053 261.995 24.818C262.324 24.771 262.747 24.63 263.076 24.771C263.17 24.818 263.311 25.1 263.358 25.147C264.063 26.275 264.627 27.638 265.285 28.907C266.366 31.163 267.823 33.137 268.951 35.346C269.797 36.85 270.455 38.448 271.207 39.999C271.207 38.918 271.113 37.837 271.113 36.709C271.066 35.205 271.066 33.748 271.019 32.244C270.972 30.693 270.878 29.142 270.972 27.591C271.019 26.745 271.207 25.758 271.912 25.194C272.288 25.006 272.711 24.959 273.087 24.959C274.168 24.959 275.249 25.006 276.33 25.006C276.753 25.006 277.223 25.006 277.599 25.147C277.787 25.241 277.975 25.429 278.116 25.664C278.257 25.993 278.304 26.463 278.304 26.886C278.304 27.92 278.257 28.954 278.257 29.941C278.21 31.163 278.257 32.338 278.257 33.513C278.257 36.991 278.21 40.469 278.304 43.947C278.304 46.156 278.398 48.318 278.351 50.48C278.304 52.266 278.163 54.005 277.975 55.744C277.975 56.261 277.881 56.825 277.787 57.295C277.693 57.577 277.552 57.906 277.317 58.047C277.176 58.188 276.941 58.188 276.706 58.188C275.766 58.235 274.779 58.235 273.839 58.141C273.416 58.094 272.946 58.047 272.57 57.765C272.194 57.53 271.959 57.013 271.771 56.59C271.489 56.026 271.301 55.509 271.066 54.945C269.656 51.702 267.823 48.929 266.225 45.874C265.52 44.464 264.909 42.913 264.11 41.597C264.063 43.712 264.204 45.827 264.204 47.942V50.997C264.204 52.219 264.251 53.441 264.204 54.71ZM288.696 58.282C288.367 58.47 287.662 58.564 286.91 58.564C285.406 58.564 283.479 58.282 282.821 58.235C279.672 57.953 281.035 56.355 283.103 48.647C285.171 41.033 286.722 34.876 288.696 27.215C289.448 24.442 290.717 24.724 293.819 24.724C297.297 24.724 297.861 24.677 298.472 27.356C301.01 38.448 302.796 46.485 305.287 55.932C305.569 56.966 305.428 57.812 304.676 58C303.971 58.141 302.138 58.376 300.587 58.376C299.647 58.376 298.801 58.282 298.378 58.047C297.344 57.436 297.344 51.984 295.981 51.984C294.148 51.937 292.926 51.843 291.093 51.984C289.448 52.125 290.247 57.389 288.696 58.282ZM291.657 44.182C292.268 44.276 292.973 44.323 293.678 44.323C294.336 44.323 294.947 44.276 295.464 44.182C295.088 42.02 293.725 36.568 293.49 34.97C292.926 38.072 292.268 41.127 291.657 44.182Z" fill="#FEF8E8"/>
</g>
<defs>
<filter id="filter0_d_439_293" x="0" y="0" width="323" height="91" filterUnits="userSpaceOnUse" color-interpolation-filters="sRGB">
<feFlood flood-opacity="0" result="BackgroundImageFix"/>
<feColorMatrix in="SourceAlpha" type="matrix" values="0 0 0 0 0 0 0 0 0 0 0 0 0 0 0 0 0 0 127 0" result="hardAlpha"/>
<feOffset dy="4"/>
<feGaussianBlur stdDeviation="2"/>
<feComposite in2="hardAlpha" operator="out"/>
<feColorMatrix type="matrix" values="0 0 0 0 0 0 0 0 0 0 0 0 0 0 0 0 0 0 0.25 0"/>
<feBlend mode="normal" in2="BackgroundImageFix" result="effect1_dropShadow_439_293"/>
<feBlend mode="normal" in="SourceGraphic" in2="effect1_dropShadow_439_293" result="shape"/>
</filter>
</defs>
</svg>
