<svg width="420" height="159" viewBox="0 0 420 159" fill="none" xmlns="http://www.w3.org/2000/svg">
<g filter="url(#filter0_d_455_7)">
<path d="M4 10C4 4.47715 8.47715 0 14 0H406C411.523 0 416 4.47715 416 10V141C416 146.523 411.523 151 406 151H14C8.47715 151 4 146.523 4 141V10Z" fill="black"/>
<path d="M107.779 68.7919C104.677 68.7919 103.455 69.0739 102.703 66.3009C100.729 58.6399 99.8357 53.0469 97.8147 45.4329C95.7467 37.7249 94.3837 36.1269 97.5327 35.8449C98.1437 35.7979 99.9767 35.2809 101.528 35.2809C102.703 35.2809 103.69 35.5629 103.878 36.5499C106.745 50.7439 106.228 51.0729 107.638 58.9219C109.048 50.5089 108.954 49.3339 111.163 37.0669C111.304 36.0329 113.842 35.7509 116.004 35.7509C117.273 35.7509 118.401 35.8449 118.824 35.9389C119.576 36.0799 119.717 36.9259 119.482 37.9599C116.944 47.4069 114.97 55.0679 112.479 66.1599C111.868 68.8389 111.257 68.7919 107.779 68.7919ZM135.898 68.7919C132.749 68.7919 129.553 68.9799 126.404 68.9329C125.276 68.9329 123.772 68.8389 122.879 68.0399C122.644 67.8049 122.456 67.4759 122.362 67.0999C122.174 66.6299 122.127 66.1129 122.127 65.5959C122.033 64.9849 122.033 64.3269 122.033 63.6689C122.033 60.3319 122.08 57.0419 122.127 53.7519C122.268 50.0389 122.503 46.3259 122.456 42.6599C122.409 40.7329 122.362 38.8059 122.597 36.9729C122.644 36.6439 122.691 36.3149 122.832 36.0799C122.926 35.7979 123.161 35.6099 123.349 35.5629C123.772 35.3749 124.242 35.4219 124.665 35.4689C125.511 35.5159 126.404 35.6099 127.25 35.6569C128.566 35.7509 129.882 35.7979 131.198 35.7979C133.078 35.7979 134.958 35.7039 136.838 35.4689C137.449 35.3749 138.06 35.2809 138.718 35.2809C139 35.2809 139.376 35.4689 139.376 35.7979C139.47 36.1739 139.47 36.6439 139.517 37.0669C139.564 38.6649 139.705 40.3099 139.658 41.9549C139.611 42.2839 139.564 42.6129 139.47 42.9419C139.376 43.2709 139.188 43.5529 139 43.7409C138.671 43.9759 138.248 44.0699 137.872 44.1169C136.462 44.2109 135.052 44.3049 133.642 44.3049C132.937 44.2579 132.232 44.1639 131.48 44.0699C130.352 44.0699 130.352 44.6339 130.352 45.6679C130.352 46.2319 130.305 47.8299 130.587 48.2529C130.681 48.3939 131.104 48.3939 131.245 48.4409C132.42 48.4409 133.548 48.3469 134.723 48.2059C135.334 48.1119 135.945 48.0179 136.603 47.9709C137.966 47.9709 138.577 48.4879 138.671 49.8509C138.718 50.6969 138.671 51.5429 138.624 52.3889C138.624 54.7859 138.53 56.2899 135.71 56.5719C134.394 56.6189 133.078 56.5249 131.762 56.3369C131.433 56.2899 131.057 56.2429 130.728 56.3839C130.352 56.5719 130.258 57.6059 130.258 58.2169C130.258 58.7339 130.258 60.1439 130.54 60.4729C130.681 60.7079 131.292 60.7549 131.48 60.7549C133.36 60.7079 135.193 60.1439 137.026 60.1439C137.496 60.1439 137.919 60.1439 138.342 60.2379C139 60.4729 139.329 60.6609 139.47 61.3659C139.611 62.0709 139.611 62.8229 139.658 63.5749C139.658 64.6089 139.611 65.6899 139.47 66.7239C139.47 67.0059 139.423 67.3349 139.329 67.6169C139.141 68.0869 138.718 68.4159 138.389 68.5569C137.59 68.8859 136.744 68.7919 135.898 68.7919ZM157.573 31.0979C157.056 32.1319 156.492 33.0719 155.223 33.0719C154.565 33.0719 153.813 32.8369 153.155 32.6019C152.967 32.5079 152.732 32.3669 152.591 32.1319C152.45 31.8969 152.403 31.6149 152.45 31.3329C152.45 30.8159 152.638 30.2989 152.826 29.8289C153.202 28.9359 153.578 27.9959 153.907 27.0559C154.142 26.4449 154.377 25.8809 154.612 25.2699C154.753 24.9879 154.847 24.7059 155.082 24.5649C155.223 24.4709 155.411 24.4239 155.599 24.3769C156.21 24.3769 156.821 24.4709 157.385 24.5179C158.184 24.5649 159.03 24.5649 159.782 24.4709C160.111 24.4709 160.299 24.9409 160.064 25.2699C160.064 25.3169 160.017 25.3639 159.97 25.4109C159.923 25.5519 159.688 26.0219 159.594 26.1629C158.842 27.7609 158.278 29.4999 157.573 31.0979ZM149.63 68.9329C149.301 69.1209 148.596 69.2149 147.844 69.2149C146.34 69.2149 144.413 68.9329 143.755 68.8859C140.606 68.6039 141.969 67.0059 144.037 59.2979C146.105 51.6839 147.656 45.5269 149.63 37.8659C150.382 35.0929 151.651 35.3749 154.753 35.3749C158.231 35.3749 158.795 35.3279 159.406 38.0069C161.944 49.0989 163.73 57.1359 166.221 66.5829C166.503 67.6169 166.362 68.4629 165.61 68.6509C164.905 68.7919 163.072 69.0269 161.521 69.0269C160.581 69.0269 159.735 68.9329 159.312 68.6979C158.278 68.0869 158.278 62.6349 156.915 62.6349C155.082 62.5879 153.86 62.4939 152.027 62.6349C150.382 62.7759 151.181 68.0399 149.63 68.9329ZM152.591 54.8329C153.202 54.9269 153.907 54.9739 154.612 54.9739C155.27 54.9739 155.881 54.9269 156.398 54.8329C156.022 52.6709 154.659 47.2189 154.424 45.6209C153.86 48.7229 153.202 51.7779 152.591 54.8329ZM196.391 66.4889C196.485 67.8989 194.323 68.7449 192.49 68.7449C191.127 68.7449 189.952 68.2749 189.999 67.2409C190.093 61.8829 189.811 56.4779 189.717 51.0729C188.119 56.9479 186.944 61.3659 185.487 67.1469C185.252 68.0399 183.936 68.6039 182.667 68.6039C181.492 68.6039 180.364 68.1809 180.129 67.1469C179.753 65.6429 178.813 61.9769 178.437 60.4259C177.591 56.8539 176.792 53.8929 175.711 50.4149C175.664 54.5979 175.711 57.7469 175.711 62.3999C175.711 65.4079 176.134 68.6979 174.066 68.5099C173.267 68.4629 170.541 68.7919 169.883 68.1809C168.849 67.1939 169.131 63.0109 169.131 61.2719C169.084 54.7389 169.131 49.9919 168.896 43.4589C168.802 41.0149 168.755 35.6099 170.494 35.6569C171.622 35.6569 173.408 35.2339 174.959 35.2339C176.322 35.2339 177.497 35.5629 177.826 36.7379C179.8 43.2709 181.351 48.3469 182.996 53.4229C183.889 49.4749 185.299 45.8089 186.333 41.9079C186.709 40.4509 187.273 36.0329 188.26 35.3279C188.918 34.8109 191.879 34.9519 192.631 34.9519C193.524 34.9519 195.78 34.8109 196.391 35.7039C196.72 36.2679 196.579 38.1949 196.532 38.9469C196.25 44.3519 196.25 49.8509 196.391 55.3029C196.579 61.0839 196.25 63.4809 196.391 66.4889ZM219.978 62.6819C218.051 67.1939 214.573 69.4499 211.048 69.4499C207.006 69.4499 202.964 66.5359 201.037 60.8489C200.144 58.3579 199.768 55.5849 199.768 52.8589C199.768 42.3779 203.904 34.9989 210.86 34.9989C219.837 34.9989 221.576 44.2579 221.858 51.4019C222.046 55.2089 221.482 59.1569 219.978 62.6819ZM207.993 52.8589C207.993 57.5119 208.792 61.5069 211.424 61.1309C214.385 60.6139 214.432 54.9739 214.197 51.5429C213.962 47.5479 213.492 43.4119 211.048 43.4119C208.651 43.4119 207.993 46.5139 207.993 52.8589ZM244.625 59.6739C244.578 67.2879 238.562 69.1209 234.191 69.1209C229.632 69.1209 223.992 67.9929 224.509 60.3319C224.65 58.3109 226.624 57.6529 228.41 57.6529C229.961 57.6529 231.371 58.1699 231.371 58.7809C231.559 61.4599 232.734 61.7419 234.191 61.7419C236.87 61.7419 238.092 57.7939 234.661 56.7129C231.794 55.8669 228.457 55.3499 226.436 52.3419C222.112 45.8089 227.376 35.5159 233.674 35.5159C237.904 35.5159 243.168 36.2679 243.168 44.7279C243.168 45.7619 241.617 46.2319 239.972 46.2319C238.186 46.2319 236.259 45.6679 236.306 44.6339C236.353 42.7539 235.413 41.8609 234.379 41.8609C233.298 41.8609 232.123 42.8949 232.123 44.6339C232.123 50.0859 244.672 47.9709 244.625 59.6739ZM278.911 70.3899C278.3 71.0009 275.339 71.3299 274.587 71.3299C273.882 71.3299 273.224 71.1889 272.754 70.6249C272.284 70.0609 271.955 69.3559 271.579 68.6509C270.451 69.1679 269.229 69.4499 268.054 69.4499C264.012 69.4499 259.97 66.5359 258.043 60.8489C257.15 58.3579 256.774 55.5849 256.774 52.8589C256.774 42.3779 260.91 34.9989 267.866 34.9989C276.843 34.9989 278.582 44.2579 278.864 51.4019C279.052 55.2089 278.488 59.1569 276.984 62.6819C276.749 63.1049 276.608 63.4809 276.42 63.8569C277.031 65.2199 277.783 66.5829 278.582 67.8519C278.864 68.3219 279.099 68.8389 279.193 69.4499C279.24 69.7789 279.099 70.2019 278.911 70.3899ZM264.999 52.8589C264.999 57.3709 265.751 61.1309 268.289 61.1309C271.203 60.9899 271.532 56.6659 271.203 51.5429C270.968 47.5479 270.498 43.4119 268.054 43.4119C265.657 43.4119 264.999 46.5139 264.999 52.8589ZM303.46 60.3319C302.332 65.8779 299.371 69.0269 293.731 69.0269C289.877 69.0269 285.694 67.9929 283.814 63.9979C281.652 59.3919 282.075 42.8949 282.263 37.3489C282.31 35.4219 284.049 35.8919 285.412 35.8449C285.882 35.7979 286.869 35.6099 287.668 35.6099C288.279 35.6099 288.796 35.7039 289.031 36.0799C289.642 36.9729 289.454 40.2159 289.36 41.4849C289.172 46.1379 289.454 52.2949 289.642 56.9009C289.736 59.4859 291.052 60.6139 292.462 60.6139C294.154 60.6139 295.893 59.1099 295.893 56.6659C295.893 52.8589 295.564 40.8739 295.893 37.0669C296.081 35.1869 297.867 35.6569 299.183 35.6569C299.982 35.7039 302.238 35.3749 302.849 36.2209C303.507 37.1609 303.225 41.0149 303.272 42.3779C303.366 45.3859 304.071 57.4649 303.46 60.3319ZM318.321 32.7899C318.039 33.0249 317.71 33.0719 317.334 33.0719C316.535 33.0719 315.125 32.7429 314.655 32.1319C314.514 31.8969 314.467 31.6149 314.514 31.3329C314.514 30.8159 314.702 30.2989 314.89 29.8289C315.266 28.9359 315.642 27.9959 316.018 27.0559C316.253 26.4449 316.441 25.8809 316.676 25.2699C316.77 24.9879 316.958 24.7059 317.146 24.5649C317.334 24.4709 317.475 24.4239 317.663 24.3769C318.274 24.3769 318.885 24.4709 319.496 24.5179C320.295 24.5649 321.094 24.5649 321.846 24.4709C322.175 24.4709 322.363 24.9409 322.175 25.2699C322.128 25.3169 322.081 25.3639 322.081 25.4109C322.034 25.5519 321.752 26.0219 321.705 26.1629C320.953 27.7609 320.342 29.4999 319.637 31.0979C319.308 31.7559 318.885 32.4609 318.321 32.7899ZM321.235 68.7919C318.086 68.7919 314.89 68.9799 311.741 68.9329C310.613 68.9329 309.109 68.8389 308.216 68.0399C307.981 67.8049 307.793 67.4759 307.699 67.0999C307.511 66.6299 307.464 66.1129 307.464 65.5959C307.37 64.9849 307.37 64.3269 307.37 63.6689C307.37 60.3319 307.417 57.0419 307.464 53.7519C307.605 50.0389 307.84 46.3259 307.793 42.6599C307.746 40.7329 307.699 38.8059 307.934 36.9729C307.981 36.6439 308.028 36.3149 308.169 36.0799C308.263 35.7979 308.498 35.6099 308.686 35.5629C309.109 35.3749 309.579 35.4219 310.002 35.4689C310.848 35.5159 311.741 35.6099 312.587 35.6569C313.903 35.7509 315.219 35.7979 316.535 35.7979C318.415 35.7979 320.295 35.7039 322.175 35.4689C322.786 35.3749 323.397 35.2809 324.055 35.2809C324.337 35.2809 324.713 35.4689 324.713 35.7979C324.807 36.1739 324.807 36.6439 324.854 37.0669C324.901 38.6649 325.042 40.3099 324.995 41.9549C324.948 42.2839 324.901 42.6129 324.807 42.9419C324.713 43.2709 324.525 43.5529 324.337 43.7409C324.008 43.9759 323.585 44.0699 323.209 44.1169C321.799 44.2109 320.389 44.3049 318.979 44.3049C318.274 44.2579 317.569 44.1639 316.817 44.0699C315.689 44.0699 315.689 44.6339 315.689 45.6679C315.689 46.2319 315.642 47.8299 315.924 48.2529C316.018 48.3939 316.441 48.3939 316.582 48.4409C317.757 48.4409 318.885 48.3469 320.06 48.2059C320.671 48.1119 321.282 48.0179 321.94 47.9709C323.303 47.9709 323.914 48.4879 324.008 49.8509C324.055 50.6969 324.008 51.5429 323.961 52.3889C323.961 54.7859 323.867 56.2899 321.047 56.5719C319.731 56.6189 318.415 56.5249 317.099 56.3369C316.77 56.2899 316.394 56.2429 316.065 56.3839C315.689 56.5719 315.595 57.6059 315.595 58.2169C315.595 58.7339 315.595 60.1439 315.877 60.4729C316.018 60.7079 316.629 60.7549 316.817 60.7549C318.697 60.7079 320.53 60.1439 322.363 60.1439C322.833 60.1439 323.256 60.1439 323.679 60.2379C324.337 60.4729 324.666 60.6609 324.807 61.3659C324.948 62.0709 324.948 62.8229 324.995 63.5749C324.995 64.6089 324.948 65.6899 324.807 66.7239C324.807 67.0059 324.76 67.3349 324.666 67.6169C324.478 68.0869 324.055 68.4159 323.726 68.5569C322.927 68.8859 322.081 68.7919 321.235 68.7919ZM59.4023 115.674C59.3553 123.288 53.3393 125.121 48.9683 125.121C44.4093 125.121 38.7693 123.993 39.2863 116.332C39.4273 114.311 41.4013 113.653 43.1873 113.653C44.7383 113.653 46.1483 114.17 46.1483 114.781C46.3363 117.46 47.5113 117.742 48.9683 117.742C51.6473 117.742 52.8693 113.794 49.4383 112.713C46.5713 111.867 43.2343 111.35 41.2133 108.342C36.8893 101.809 42.1533 91.5159 48.4513 91.5159C52.6813 91.5159 57.9453 92.2679 57.9453 100.728C57.9453 101.762 56.3943 102.232 54.7493 102.232C52.9633 102.232 51.0363 101.668 51.0833 100.634C51.1303 98.7539 50.1903 97.8609 49.1563 97.8609C48.0753 97.8609 46.9003 98.8949 46.9003 100.634C46.9003 106.086 59.4493 103.971 59.4023 115.674ZM83.5375 116.332C82.4095 121.878 79.4485 125.027 73.8085 125.027C69.9545 125.027 65.7715 123.993 63.8915 119.998C61.7295 115.392 62.1525 98.8949 62.3405 93.3489C62.3875 91.4219 64.1265 91.8919 65.4895 91.8449C65.9595 91.7979 66.9465 91.6099 67.7455 91.6099C68.3565 91.6099 68.8735 91.7039 69.1085 92.0799C69.7195 92.9729 69.5315 96.2159 69.4375 97.4849C69.2495 102.138 69.5315 108.295 69.7195 112.901C69.8135 115.486 71.1295 116.614 72.5395 116.614C74.2315 116.614 75.9705 115.11 75.9705 112.666C75.9705 108.859 75.6415 96.8739 75.9705 93.0669C76.1585 91.1869 77.9445 91.6569 79.2605 91.6569C80.0595 91.7039 82.3155 91.3749 82.9265 92.2209C83.5845 93.1609 83.3025 97.0149 83.3495 98.3779C83.4435 101.386 84.1485 113.465 83.5375 116.332ZM107.611 112.055C107.611 120.421 104.133 124.651 97.929 124.651C93.464 124.651 88.905 122.113 87.448 115.157C85.051 103.501 88.905 91.1399 97.412 91.1399C104.368 91.1399 107.846 95.8869 107.846 103.36C107.846 104.723 106.342 105.287 104.791 105.287C103.193 105.287 101.501 104.629 101.501 103.595C101.501 100.822 99.997 99.5999 98.258 99.5999C92.712 99.5999 91.819 116.99 98.305 116.52C100.232 116.379 101.501 114.922 101.266 111.585C101.219 110.316 102.77 109.611 104.321 109.611C105.966 109.611 107.611 110.363 107.611 112.055ZM124.997 124.792C121.848 124.792 118.652 124.98 115.503 124.933C114.375 124.933 112.871 124.839 111.978 124.04C111.743 123.805 111.555 123.476 111.461 123.1C111.273 122.63 111.226 122.113 111.226 121.596C111.132 120.985 111.132 120.327 111.132 119.669C111.132 116.332 111.179 113.042 111.226 109.752C111.367 106.039 111.602 102.326 111.555 98.6599C111.508 96.7329 111.461 94.8059 111.696 92.9729C111.743 92.6439 111.79 92.3149 111.931 92.0799C112.025 91.7979 112.26 91.6099 112.448 91.5629C112.871 91.3749 113.341 91.4219 113.764 91.4689C114.61 91.5159 115.503 91.6099 116.349 91.6569C117.665 91.7509 118.981 91.7979 120.297 91.7979C122.177 91.7979 124.057 91.7039 125.937 91.4689C126.548 91.3749 127.159 91.2809 127.817 91.2809C128.099 91.2809 128.475 91.4689 128.475 91.7979C128.569 92.1739 128.569 92.6439 128.616 93.0669C128.663 94.6649 128.804 96.3099 128.757 97.9549C128.71 98.2839 128.663 98.6129 128.569 98.9419C128.475 99.2709 128.287 99.5529 128.099 99.7409C127.77 99.9759 127.347 100.07 126.971 100.117C125.561 100.211 124.151 100.305 122.741 100.305C122.036 100.258 121.331 100.164 120.579 100.07C119.451 100.07 119.451 100.634 119.451 101.668C119.451 102.232 119.404 103.83 119.686 104.253C119.78 104.394 120.203 104.394 120.344 104.441C121.519 104.441 122.647 104.347 123.822 104.206C124.433 104.112 125.044 104.018 125.702 103.971C127.065 103.971 127.676 104.488 127.77 105.851C127.817 106.697 127.77 107.543 127.723 108.389C127.723 110.786 127.629 112.29 124.809 112.572C123.493 112.619 122.177 112.525 120.861 112.337C120.532 112.29 120.156 112.243 119.827 112.384C119.451 112.572 119.357 113.606 119.357 114.217C119.357 114.734 119.357 116.144 119.639 116.473C119.78 116.708 120.391 116.755 120.579 116.755C122.459 116.708 124.292 116.144 126.125 116.144C126.595 116.144 127.018 116.144 127.441 116.238C128.099 116.473 128.428 116.661 128.569 117.366C128.71 118.071 128.71 118.823 128.757 119.575C128.757 120.609 128.71 121.69 128.569 122.724C128.569 123.006 128.522 123.335 128.428 123.617C128.24 124.087 127.817 124.416 127.488 124.557C126.689 124.886 125.843 124.792 124.997 124.792ZM142.113 124.698C140.562 124.604 138.588 124.886 136.849 124.886C134.452 124.886 132.478 124.416 132.478 121.878V94.5709C132.478 91.8449 134.546 91.2339 137.084 91.2339C139.246 91.2339 141.784 91.7039 143.711 91.6569C155.273 91.3749 155.79 125.309 142.113 124.698ZM140.139 100.164C139.998 102.467 139.058 115.627 140.656 115.627C147.33 115.627 148.364 99.2239 140.139 100.164ZM169.426 124.792C166.277 124.792 163.081 124.98 159.932 124.933C158.804 124.933 157.3 124.839 156.407 124.04C156.172 123.805 155.984 123.476 155.89 123.1C155.702 122.63 155.655 122.113 155.655 121.596C155.561 120.985 155.561 120.327 155.561 119.669C155.561 116.332 155.608 113.042 155.655 109.752C155.796 106.039 156.031 102.326 155.984 98.6599C155.937 96.7329 155.89 94.8059 156.125 92.9729C156.172 92.6439 156.219 92.3149 156.36 92.0799C156.454 91.7979 156.689 91.6099 156.877 91.5629C157.3 91.3749 157.77 91.4219 158.193 91.4689C159.039 91.5159 159.932 91.6099 160.778 91.6569C162.094 91.7509 163.41 91.7979 164.726 91.7979C166.606 91.7979 168.486 91.7039 170.366 91.4689C170.977 91.3749 171.588 91.2809 172.246 91.2809C172.528 91.2809 172.904 91.4689 172.904 91.7979C172.998 92.1739 172.998 92.6439 173.045 93.0669C173.092 94.6649 173.233 96.3099 173.186 97.9549C173.139 98.2839 173.092 98.6129 172.998 98.9419C172.904 99.2709 172.716 99.5529 172.528 99.7409C172.199 99.9759 171.776 100.07 171.4 100.117C169.99 100.211 168.58 100.305 167.17 100.305C166.465 100.258 165.76 100.164 165.008 100.07C163.88 100.07 163.88 100.634 163.88 101.668C163.88 102.232 163.833 103.83 164.115 104.253C164.209 104.394 164.632 104.394 164.773 104.441C165.948 104.441 167.076 104.347 168.251 104.206C168.862 104.112 169.473 104.018 170.131 103.971C171.494 103.971 172.105 104.488 172.199 105.851C172.246 106.697 172.199 107.543 172.152 108.389C172.152 110.786 172.058 112.29 169.238 112.572C167.922 112.619 166.606 112.525 165.29 112.337C164.961 112.29 164.585 112.243 164.256 112.384C163.88 112.572 163.786 113.606 163.786 114.217C163.786 114.734 163.786 116.144 164.068 116.473C164.209 116.708 164.82 116.755 165.008 116.755C166.888 116.708 168.721 116.144 170.554 116.144C171.024 116.144 171.447 116.144 171.87 116.238C172.528 116.473 172.857 116.661 172.998 117.366C173.139 118.071 173.139 118.823 173.186 119.575C173.186 120.609 173.139 121.69 172.998 122.724C172.998 123.006 172.951 123.335 172.857 123.617C172.669 124.087 172.246 124.416 171.917 124.557C171.118 124.886 170.272 124.792 169.426 124.792ZM196.411 124.698C194.86 124.604 192.886 124.886 191.147 124.886C188.75 124.886 186.776 124.416 186.776 121.878V94.5709C186.776 91.8449 188.844 91.2339 191.382 91.2339C193.544 91.2339 196.082 91.7039 198.009 91.6569C209.571 91.3749 210.088 125.309 196.411 124.698ZM194.437 100.164C194.296 102.467 193.356 115.627 194.954 115.627C201.628 115.627 202.662 99.2239 194.437 100.164ZM223.724 124.792C220.575 124.792 217.379 124.98 214.23 124.933C213.102 124.933 211.598 124.839 210.705 124.04C210.47 123.805 210.282 123.476 210.188 123.1C210 122.63 209.953 122.113 209.953 121.596C209.859 120.985 209.859 120.327 209.859 119.669C209.859 116.332 209.906 113.042 209.953 109.752C210.094 106.039 210.329 102.326 210.282 98.6599C210.235 96.7329 210.188 94.8059 210.423 92.9729C210.47 92.6439 210.517 92.3149 210.658 92.0799C210.752 91.7979 210.987 91.6099 211.175 91.5629C211.598 91.3749 212.068 91.4219 212.491 91.4689C213.337 91.5159 214.23 91.6099 215.076 91.6569C216.392 91.7509 217.708 91.7979 219.024 91.7979C220.904 91.7979 222.784 91.7039 224.664 91.4689C225.275 91.3749 225.886 91.2809 226.544 91.2809C226.826 91.2809 227.202 91.4689 227.202 91.7979C227.296 92.1739 227.296 92.6439 227.343 93.0669C227.39 94.6649 227.531 96.3099 227.484 97.9549C227.437 98.2839 227.39 98.6129 227.296 98.9419C227.202 99.2709 227.014 99.5529 226.826 99.7409C226.497 99.9759 226.074 100.07 225.698 100.117C224.288 100.211 222.878 100.305 221.468 100.305C220.763 100.258 220.058 100.164 219.306 100.07C218.178 100.07 218.178 100.634 218.178 101.668C218.178 102.232 218.131 103.83 218.413 104.253C218.507 104.394 218.93 104.394 219.071 104.441C220.246 104.441 221.374 104.347 222.549 104.206C223.16 104.112 223.771 104.018 224.429 103.971C225.792 103.971 226.403 104.488 226.497 105.851C226.544 106.697 226.497 107.543 226.45 108.389C226.45 110.786 226.356 112.29 223.536 112.572C222.22 112.619 220.904 112.525 219.588 112.337C219.259 112.29 218.883 112.243 218.554 112.384C218.178 112.572 218.084 113.606 218.084 114.217C218.084 114.734 218.084 116.144 218.366 116.473C218.507 116.708 219.118 116.755 219.306 116.755C221.186 116.708 223.019 116.144 224.852 116.144C225.322 116.144 225.745 116.144 226.168 116.238C226.826 116.473 227.155 116.661 227.296 117.366C227.437 118.071 227.437 118.823 227.484 119.575C227.484 120.609 227.437 121.69 227.296 122.724C227.296 123.006 227.249 123.335 227.155 123.617C226.967 124.087 226.544 124.416 226.215 124.557C225.416 124.886 224.57 124.792 223.724 124.792ZM261.095 112.055C261.095 120.421 257.617 124.651 251.413 124.651C246.948 124.651 242.389 122.113 240.932 115.157C238.535 103.501 242.389 91.1399 250.896 91.1399C257.852 91.1399 261.33 95.8869 261.33 103.36C261.33 104.723 259.826 105.287 258.275 105.287C256.677 105.287 254.985 104.629 254.985 103.595C254.985 100.822 253.481 99.5999 251.742 99.5999C246.196 99.5999 245.303 116.99 251.789 116.52C253.716 116.379 254.985 114.922 254.75 111.585C254.703 110.316 256.254 109.611 257.805 109.611C259.45 109.611 261.095 110.363 261.095 112.055ZM278.481 124.792C275.332 124.792 272.136 124.98 268.987 124.933C267.859 124.933 266.355 124.839 265.462 124.04C265.227 123.805 265.039 123.476 264.945 123.1C264.757 122.63 264.71 122.113 264.71 121.596C264.616 120.985 264.616 120.327 264.616 119.669C264.616 116.332 264.663 113.042 264.71 109.752C264.851 106.039 265.086 102.326 265.039 98.6599C264.992 96.7329 264.945 94.8059 265.18 92.9729C265.227 92.6439 265.274 92.3149 265.415 92.0799C265.509 91.7979 265.744 91.6099 265.932 91.5629C266.355 91.3749 266.825 91.4219 267.248 91.4689C268.094 91.5159 268.987 91.6099 269.833 91.6569C271.149 91.7509 272.465 91.7979 273.781 91.7979C275.661 91.7979 277.541 91.7039 279.421 91.4689C280.032 91.3749 280.643 91.2809 281.301 91.2809C281.583 91.2809 281.959 91.4689 281.959 91.7979C282.053 92.1739 282.053 92.6439 282.1 93.0669C282.147 94.6649 282.288 96.3099 282.241 97.9549C282.194 98.2839 282.147 98.6129 282.053 98.9419C281.959 99.2709 281.771 99.5529 281.583 99.7409C281.254 99.9759 280.831 100.07 280.455 100.117C279.045 100.211 277.635 100.305 276.225 100.305C275.52 100.258 274.815 100.164 274.063 100.07C272.935 100.07 272.935 100.634 272.935 101.668C272.935 102.232 272.888 103.83 273.17 104.253C273.264 104.394 273.687 104.394 273.828 104.441C275.003 104.441 276.131 104.347 277.306 104.206C277.917 104.112 278.528 104.018 279.186 103.971C280.549 103.971 281.16 104.488 281.254 105.851C281.301 106.697 281.254 107.543 281.207 108.389C281.207 110.786 281.113 112.29 278.293 112.572C276.977 112.619 275.661 112.525 274.345 112.337C274.016 112.29 273.64 112.243 273.311 112.384C272.935 112.572 272.841 113.606 272.841 114.217C272.841 114.734 272.841 116.144 273.123 116.473C273.264 116.708 273.875 116.755 274.063 116.755C275.943 116.708 277.776 116.144 279.609 116.144C280.079 116.144 280.502 116.144 280.925 116.238C281.583 116.473 281.912 116.661 282.053 117.366C282.194 118.071 282.194 118.823 282.241 119.575C282.241 120.609 282.194 121.69 282.053 122.724C282.053 123.006 282.006 123.335 281.912 123.617C281.724 124.087 281.301 124.416 280.972 124.557C280.173 124.886 279.327 124.792 278.481 124.792ZM293.482 122.536C293.482 124.322 291.508 124.933 289.628 124.933C288.124 124.933 286.714 124.557 286.338 124.087C285.727 123.241 285.821 120.233 285.868 119.058C286.056 110.551 286.009 102.044 286.244 93.5369C286.244 91.1869 292.025 90.7639 293.623 90.7639C296.349 90.7639 299.075 91.4689 301.425 93.2079C306.407 96.8739 306.501 108.718 301.989 113.653C303.587 116.802 303.728 117.601 304.527 119.575C305.42 121.831 306.736 124.463 304.903 124.651C304.48 124.698 302.882 124.839 301.331 124.839C299.545 124.839 297.806 124.651 297.712 123.993C297.43 121.925 296.02 118.118 295.362 115.392C294.61 115.533 293.482 116.52 293.482 116.52V122.536ZM293.67 107.919C298.887 108.342 300.156 98.8009 293.67 99.5529C293.623 102.373 293.67 107.919 293.67 107.919ZM329.071 112.055C329.071 120.421 325.593 124.651 319.389 124.651C314.924 124.651 310.365 122.113 308.908 115.157C306.511 103.501 310.365 91.1399 318.872 91.1399C325.828 91.1399 329.306 95.8869 329.306 103.36C329.306 104.723 327.802 105.287 326.251 105.287C324.653 105.287 322.961 104.629 322.961 103.595C322.961 100.822 321.457 99.5999 319.718 99.5999C314.172 99.5999 313.279 116.99 319.765 116.52C321.692 116.379 322.961 114.922 322.726 111.585C322.679 110.316 324.23 109.611 325.781 109.611C327.426 109.611 329.071 110.363 329.071 112.055ZM338.066 124.933C337.737 125.121 337.032 125.215 336.28 125.215C334.776 125.215 332.849 124.933 332.191 124.886C329.042 124.604 330.405 123.006 332.473 115.298C334.541 107.684 336.092 101.527 338.066 93.8659C338.818 91.0929 340.087 91.3749 343.189 91.3749C346.667 91.3749 347.231 91.3279 347.842 94.0069C350.38 105.099 352.166 113.136 354.657 122.583C354.939 123.617 354.798 124.463 354.046 124.651C353.341 124.792 351.508 125.027 349.957 125.027C349.017 125.027 348.171 124.933 347.748 124.698C346.714 124.087 346.714 118.635 345.351 118.635C343.518 118.588 342.296 118.494 340.463 118.635C338.818 118.776 339.617 124.04 338.066 124.933ZM341.027 110.833C341.638 110.927 342.343 110.974 343.048 110.974C343.706 110.974 344.317 110.927 344.834 110.833C344.458 108.671 343.095 103.219 342.86 101.621C342.296 104.723 341.638 107.778 341.027 110.833ZM363.63 118.541C364.241 122.254 362.361 125.262 359.87 125.262C359.588 125.262 359.306 125.215 358.977 125.121C356.533 124.416 355.734 119.998 357.285 117.225C358.131 115.674 359.306 114.922 360.434 114.922C361.891 114.922 363.207 116.144 363.63 118.541ZM373.131 118.541C373.742 122.254 371.862 125.262 369.371 125.262C369.089 125.262 368.807 125.215 368.478 125.121C366.034 124.416 365.235 119.998 366.786 117.225C367.632 115.674 368.807 114.922 369.935 114.922C371.392 114.922 372.708 116.144 373.131 118.541ZM382.632 118.541C383.243 122.254 381.363 125.262 378.872 125.262C378.59 125.262 378.308 125.215 377.979 125.121C375.535 124.416 374.736 119.998 376.287 117.225C377.133 115.674 378.308 114.922 379.436 114.922C380.893 114.922 382.209 116.144 382.632 118.541Z" fill="#FEF8E8"/>
</g>
<defs>
<filter id="filter0_d_455_7" x="0" y="0" width="420" height="159" filterUnits="userSpaceOnUse" color-interpolation-filters="sRGB">
<feFlood flood-opacity="0" result="BackgroundImageFix"/>
<feColorMatrix in="SourceAlpha" type="matrix" values="0 0 0 0 0 0 0 0 0 0 0 0 0 0 0 0 0 0 127 0" result="hardAlpha"/>
<feOffset dy="4"/>
<feGaussianBlur stdDeviation="2"/>
<feComposite in2="hardAlpha" operator="out"/>
<feColorMatrix type="matrix" values="0 0 0 0 0 0 0 0 0 0 0 0 0 0 0 0 0 0 0.25 0"/>
<feBlend mode="normal" in2="BackgroundImageFix" result="effect1_dropShadow_455_7"/>
<feBlend mode="normal" in="SourceGraphic" in2="effect1_dropShadow_455_7" result="shape"/>
</filter>
</defs>
</svg>
